<svg width="307" height="334" viewBox="0 0 307 334" fill="none" xmlns="http://www.w3.org/2000/svg">
<rect width="306.781" height="334" rx="8" fill="white"/>
<path opacity="0.3" d="M156.108 301.96C239.443 301.96 307 295.692 307 287.96C307 280.228 239.443 273.96 156.108 273.96C72.772 273.96 5.21515 280.228 5.21515 287.96C5.21515 295.692 72.772 301.96 156.108 301.96Z" fill="white"/>
<path fill-rule="evenodd" clip-rule="evenodd" d="M239.155 224.619C239.155 224.619 239.029 224.284 238.78 223.714C238.518 223.152 238.178 222.328 237.708 221.375C236.785 219.461 235.454 216.969 234.024 214.534C232.587 212.103 231.054 209.728 229.826 207.993C229.222 207.121 228.663 206.425 228.298 205.923C227.922 205.43 227.688 205.157 227.688 205.157C227.688 205.157 227.814 205.492 228.063 206.061C228.326 206.624 228.663 207.449 229.134 208.4C230.055 210.315 231.39 212.806 232.819 215.241C234.257 217.672 235.792 220.045 237.019 221.78C237.624 222.652 238.18 223.349 238.546 223.851C238.923 224.346 239.155 224.619 239.155 224.619Z" fill="#F3F8FF"/>
<path fill-rule="evenodd" clip-rule="evenodd" d="M245.951 213.054C245.951 213.054 245.792 212.665 245.485 212.001C245.165 211.346 244.743 210.387 244.174 209.274C243.054 207.039 241.457 204.117 239.766 201.253C238.065 198.394 236.269 195.592 234.844 193.536C234.14 192.503 233.501 191.674 233.077 191.078C232.642 190.49 232.377 190.164 232.377 190.164C232.377 190.164 232.536 190.553 232.844 191.216C233.163 191.873 233.583 192.832 234.152 193.945C235.272 196.181 236.87 199.101 238.562 201.964C240.264 204.823 242.061 207.624 243.486 209.681C244.19 210.714 244.828 211.544 245.252 212.139C245.686 212.728 245.951 213.054 245.951 213.054Z" fill="#F3F8FF"/>
<path fill-rule="evenodd" clip-rule="evenodd" d="M252.747 201.489C252.747 201.489 252.621 201.154 252.371 200.584C252.109 200.022 251.769 199.198 251.3 198.246C250.377 196.332 249.045 193.84 247.616 191.404C246.179 188.973 244.646 186.599 243.418 184.864C242.813 183.992 242.255 183.296 241.89 182.794C241.513 182.299 241.28 182.027 241.28 182.027C241.28 182.027 241.406 182.362 241.655 182.932C241.917 183.495 242.255 184.319 242.726 185.271C243.647 187.185 244.982 189.676 246.411 192.112C247.849 194.542 249.383 196.915 250.61 198.65C251.216 199.523 251.773 200.219 252.137 200.721C252.515 201.216 252.747 201.489 252.747 201.489Z" fill="#F3F8FF"/>
<path fill-rule="evenodd" clip-rule="evenodd" d="M259.543 189.924C259.543 189.924 259.19 188.866 258.503 187.371C257.824 185.872 256.817 183.932 255.714 182.049C254.601 180.17 253.395 178.348 252.41 177.027C251.436 175.702 250.679 174.88 250.679 174.88C250.679 174.88 251.031 175.94 251.718 177.434C252.395 178.934 253.404 180.874 254.508 182.756C255.621 184.634 256.83 186.455 257.813 187.776C258.787 189.102 259.543 189.924 259.543 189.924Z" fill="#F3F8FF"/>
<path fill-rule="evenodd" clip-rule="evenodd" d="M237.156 228.021C237.156 228.021 237.508 228.09 238.124 228.177C238.742 228.251 239.622 228.395 240.68 228.497C242.797 228.72 245.621 228.899 248.448 228.966C251.274 229.023 254.103 228.971 256.227 228.839C257.288 228.784 258.174 228.676 258.794 228.63C259.414 228.571 259.769 228.516 259.769 228.516C259.769 228.516 259.417 228.446 258.8 228.359C258.183 228.286 257.303 228.139 256.244 228.038C254.128 227.814 251.304 227.637 248.477 227.571C245.651 227.514 242.822 227.569 240.698 227.7C239.636 227.755 238.751 227.861 238.131 227.907C237.511 227.968 237.156 228.021 237.156 228.021Z" fill="#F3F8FF"/>
<path fill-rule="evenodd" clip-rule="evenodd" d="M241.918 254.782C241.918 254.782 242.097 255.093 242.435 255.615C242.783 256.129 243.251 256.887 243.867 257.752C245.085 259.495 246.8 261.741 248.601 263.916C250.409 266.086 252.303 268.185 253.793 269.701C254.53 270.467 255.193 271.064 255.633 271.502C256.085 271.929 256.358 272.161 256.358 272.161C256.358 272.161 256.181 271.849 255.843 271.328C255.494 270.814 255.028 270.055 254.412 269.19C253.194 267.447 251.478 265.201 249.677 263.026C247.868 260.857 245.973 258.76 244.483 257.243C243.745 256.479 243.084 255.879 242.643 255.442C242.192 255.014 241.918 254.782 241.918 254.782Z" fill="#F3F8FF"/>
<path fill-rule="evenodd" clip-rule="evenodd" d="M255.123 252.331C255.123 252.331 255.341 252.691 255.747 253.298C256.164 253.898 256.729 254.779 257.464 255.791C258.916 257.828 260.945 260.467 263.061 263.037C265.183 265.598 267.392 268.09 269.118 269.901C269.973 270.814 270.733 271.534 271.243 272.057C271.764 272.571 272.077 272.853 272.077 272.853C272.077 272.853 271.86 272.492 271.453 271.885C271.037 271.285 270.472 270.403 269.738 269.392C268.285 267.354 266.256 264.717 264.138 262.148C262.016 259.586 259.807 257.095 258.08 255.284C257.226 254.372 256.466 253.65 255.956 253.126C255.436 252.613 255.123 252.331 255.123 252.331Z" fill="#F3F8FF"/>
<path fill-rule="evenodd" clip-rule="evenodd" d="M231.408 248.902C231.408 248.902 231.401 248.543 231.356 247.924C231.296 247.305 231.251 246.416 231.125 245.362C230.893 243.251 230.468 240.458 229.932 237.687C229.387 234.917 228.733 232.169 228.155 230.125C227.875 229.101 227.581 228.26 227.404 227.665C227.213 227.073 227.083 226.739 227.083 226.739C227.083 226.739 227.091 227.096 227.137 227.717C227.196 228.335 227.239 229.224 227.366 230.278C227.596 232.39 228.024 235.182 228.56 237.954C229.105 240.723 229.762 243.471 230.34 245.515C230.62 246.539 230.913 247.381 231.089 247.975C231.281 248.567 231.408 248.902 231.408 248.902Z" fill="#F3F8FF"/>
<path fill-rule="evenodd" clip-rule="evenodd" d="M241.672 240.254C241.672 240.254 241.652 239.834 241.583 239.106C241.501 238.382 241.422 237.338 241.257 236.099C240.947 233.619 240.415 230.334 239.774 227.071C239.124 223.81 238.364 220.57 237.706 218.159C237.387 216.95 237.06 215.956 236.86 215.253C236.646 214.554 236.504 214.159 236.504 214.159C236.504 214.159 236.524 214.579 236.593 215.307C236.675 216.031 236.752 217.075 236.918 218.313C237.228 220.795 237.761 224.079 238.403 227.342C239.054 230.603 239.814 233.842 240.473 236.254C240.793 237.462 241.117 238.457 241.318 239.16C241.532 239.858 241.672 240.254 241.672 240.254Z" fill="#F3F8FF"/>
<path fill-rule="evenodd" clip-rule="evenodd" d="M251.937 231.607C251.937 231.607 251.93 231.248 251.884 230.628C251.824 230.01 251.779 229.121 251.653 228.067C251.422 225.955 250.996 223.163 250.461 220.392C249.916 217.622 249.262 214.874 248.682 212.83C248.402 211.806 248.109 210.965 247.932 210.37C247.741 209.778 247.612 209.444 247.612 209.444C247.612 209.444 247.619 209.801 247.664 210.422C247.724 211.04 247.768 211.929 247.894 212.983C248.124 215.095 248.552 217.887 249.089 220.659C249.634 223.428 250.289 226.176 250.869 228.22C251.149 229.243 251.441 230.085 251.617 230.68C251.809 231.272 251.937 231.607 251.937 231.607Z" fill="#F3F8FF"/>
<path fill-rule="evenodd" clip-rule="evenodd" d="M228.389 251.446C228.389 251.446 228.697 251.628 229.25 251.915C229.807 252.189 230.59 252.618 231.554 253.065C233.474 253.979 236.078 255.086 238.721 256.089C241.368 257.081 244.053 257.971 246.099 258.554C247.119 258.855 247.99 259.048 248.59 259.209C249.195 259.359 249.547 259.426 249.547 259.426C249.547 259.426 249.238 259.243 248.686 258.956C248.129 258.682 247.348 258.251 246.384 257.803C244.463 256.889 241.858 255.784 239.216 254.783C236.568 253.79 233.883 252.902 231.837 252.319C230.816 252.019 229.946 251.824 229.346 251.662C228.741 251.513 228.389 251.446 228.389 251.446Z" fill="#F3F8FF"/>
<path fill-rule="evenodd" clip-rule="evenodd" d="M239.155 224.619C239.155 224.619 239.029 224.284 238.78 223.714C238.518 223.152 238.178 222.328 237.708 221.375C236.785 219.461 235.454 216.969 234.024 214.534C232.587 212.103 231.054 209.728 229.826 207.993C229.222 207.121 228.663 206.425 228.298 205.923C227.922 205.43 227.688 205.157 227.688 205.157C227.688 205.157 227.814 205.492 228.063 206.061C228.326 206.624 228.663 207.449 229.134 208.4C230.055 210.315 231.39 212.806 232.819 215.241C234.257 217.672 235.792 220.045 237.019 221.78C237.624 222.652 238.18 223.349 238.546 223.851C238.923 224.346 239.155 224.619 239.155 224.619Z" fill="#F3F8FF"/>
<path fill-rule="evenodd" clip-rule="evenodd" d="M245.951 213.054C245.951 213.054 245.792 212.665 245.485 212.001C245.165 211.346 244.743 210.387 244.174 209.274C243.054 207.039 241.457 204.117 239.766 201.253C238.065 198.394 236.269 195.592 234.844 193.536C234.14 192.503 233.501 191.674 233.077 191.078C232.642 190.49 232.377 190.164 232.377 190.164C232.377 190.164 232.536 190.553 232.844 191.216C233.163 191.873 233.583 192.832 234.152 193.945C235.272 196.181 236.87 199.101 238.562 201.964C240.264 204.823 242.061 207.624 243.486 209.681C244.19 210.714 244.828 211.544 245.252 212.139C245.686 212.728 245.951 213.054 245.951 213.054Z" fill="#F3F8FF"/>
<path fill-rule="evenodd" clip-rule="evenodd" d="M252.747 201.489C252.747 201.489 252.621 201.154 252.371 200.584C252.109 200.022 251.769 199.198 251.3 198.246C250.377 196.332 249.045 193.84 247.616 191.404C246.179 188.973 244.646 186.599 243.418 184.864C242.813 183.992 242.255 183.296 241.89 182.794C241.513 182.299 241.28 182.027 241.28 182.027C241.28 182.027 241.406 182.362 241.655 182.932C241.917 183.495 242.255 184.319 242.726 185.271C243.647 187.185 244.982 189.676 246.411 192.112C247.849 194.542 249.383 196.915 250.61 198.65C251.216 199.523 251.773 200.219 252.137 200.721C252.515 201.216 252.747 201.489 252.747 201.489Z" fill="#F3F8FF"/>
<path fill-rule="evenodd" clip-rule="evenodd" d="M237.156 228.021C237.156 228.021 237.508 228.09 238.124 228.177C238.742 228.251 239.622 228.395 240.68 228.497C242.797 228.72 245.621 228.899 248.448 228.966C251.274 229.023 254.103 228.971 256.227 228.839C257.288 228.784 258.174 228.676 258.794 228.63C259.414 228.571 259.769 228.516 259.769 228.516C259.769 228.516 259.417 228.446 258.8 228.359C258.183 228.286 257.303 228.139 256.244 228.038C254.128 227.814 251.304 227.637 248.477 227.571C245.651 227.514 242.822 227.569 240.698 227.7C239.636 227.755 238.751 227.861 238.131 227.907C237.511 227.968 237.156 228.021 237.156 228.021Z" fill="#F3F8FF"/>
<path fill-rule="evenodd" clip-rule="evenodd" d="M241.918 254.782C241.918 254.782 242.097 255.093 242.435 255.615C242.783 256.129 243.251 256.887 243.867 257.752C245.085 259.495 246.8 261.741 248.601 263.916C250.409 266.086 252.303 268.185 253.793 269.701C254.53 270.467 255.193 271.064 255.633 271.502C256.085 271.929 256.358 272.161 256.358 272.161C256.358 272.161 256.181 271.849 255.843 271.328C255.494 270.814 255.028 270.055 254.412 269.19C253.194 267.447 251.478 265.201 249.677 263.026C247.868 260.857 245.973 258.76 244.483 257.243C243.745 256.479 243.084 255.879 242.643 255.442C242.192 255.014 241.918 254.782 241.918 254.782Z" fill="#F3F8FF"/>
<path fill-rule="evenodd" clip-rule="evenodd" d="M255.123 252.331C255.123 252.331 255.341 252.691 255.747 253.298C256.164 253.898 256.729 254.779 257.464 255.791C258.916 257.828 260.945 260.467 263.061 263.037C265.183 265.598 267.392 268.09 269.118 269.901C269.973 270.814 270.733 271.534 271.243 272.057C271.764 272.571 272.077 272.853 272.077 272.853C272.077 272.853 271.86 272.492 271.453 271.885C271.037 271.285 270.472 270.403 269.738 269.392C268.285 267.354 266.256 264.717 264.138 262.148C262.016 259.586 259.807 257.095 258.08 255.284C257.226 254.372 256.466 253.65 255.956 253.126C255.436 252.613 255.123 252.331 255.123 252.331Z" fill="#F3F8FF"/>
<path fill-rule="evenodd" clip-rule="evenodd" d="M231.408 248.902C231.408 248.902 231.401 248.543 231.356 247.924C231.296 247.305 231.251 246.416 231.125 245.362C230.893 243.251 230.468 240.458 229.932 237.687C229.387 234.917 228.733 232.169 228.155 230.125C227.875 229.101 227.581 228.26 227.404 227.665C227.213 227.073 227.083 226.739 227.083 226.739C227.083 226.739 227.091 227.096 227.137 227.717C227.196 228.335 227.239 229.224 227.366 230.278C227.596 232.39 228.024 235.182 228.56 237.954C229.105 240.723 229.762 243.471 230.34 245.515C230.62 246.539 230.913 247.381 231.089 247.975C231.281 248.567 231.408 248.902 231.408 248.902Z" fill="#F3F8FF"/>
<path fill-rule="evenodd" clip-rule="evenodd" d="M241.672 240.254C241.672 240.254 241.652 239.834 241.583 239.106C241.501 238.382 241.422 237.338 241.257 236.099C240.947 233.619 240.415 230.334 239.774 227.071C239.124 223.81 238.364 220.57 237.706 218.159C237.387 216.95 237.06 215.956 236.86 215.253C236.646 214.554 236.504 214.159 236.504 214.159C236.504 214.159 236.524 214.579 236.593 215.307C236.675 216.031 236.752 217.075 236.918 218.313C237.228 220.795 237.761 224.079 238.403 227.342C239.054 230.603 239.814 233.842 240.473 236.254C240.793 237.462 241.117 238.457 241.318 239.16C241.532 239.858 241.672 240.254 241.672 240.254Z" fill="#F3F8FF"/>
<path fill-rule="evenodd" clip-rule="evenodd" d="M251.937 231.607C251.937 231.607 251.93 231.248 251.884 230.628C251.824 230.01 251.779 229.121 251.653 228.067C251.422 225.955 250.996 223.163 250.461 220.392C249.916 217.622 249.262 214.874 248.682 212.83C248.402 211.806 248.109 210.965 247.932 210.37C247.741 209.778 247.612 209.444 247.612 209.444C247.612 209.444 247.619 209.801 247.664 210.422C247.724 211.04 247.768 211.929 247.894 212.983C248.124 215.095 248.552 217.887 249.089 220.659C249.634 223.428 250.289 226.176 250.869 228.22C251.149 229.243 251.441 230.085 251.617 230.68C251.809 231.272 251.937 231.607 251.937 231.607Z" fill="#F3F8FF"/>
<path fill-rule="evenodd" clip-rule="evenodd" d="M228.389 251.446C228.389 251.446 228.697 251.628 229.25 251.915C229.807 252.189 230.59 252.618 231.554 253.065C233.474 253.979 236.078 255.086 238.721 256.089C241.368 257.081 244.053 257.971 246.099 258.554C247.119 258.855 247.99 259.048 248.59 259.209C249.195 259.359 249.547 259.426 249.547 259.426C249.547 259.426 249.238 259.243 248.686 258.956C248.129 258.682 247.348 258.251 246.384 257.803C244.463 256.889 241.858 255.784 239.216 254.783C236.568 253.79 233.883 252.902 231.837 252.319C230.816 252.019 229.946 251.824 229.346 251.662C228.741 251.513 228.389 251.446 228.389 251.446Z" fill="#F3F8FF"/>
<path fill-rule="evenodd" clip-rule="evenodd" d="M61.645 224.619C61.645 224.619 61.7711 224.284 62.0209 223.714C62.2829 223.152 62.6224 222.328 63.0921 221.375C64.0145 219.461 65.3475 216.969 66.776 214.534C68.2134 212.103 69.7461 209.728 70.9741 207.993C71.5788 207.121 72.1366 206.425 72.502 205.923C72.8795 205.43 73.1123 205.157 73.1123 205.157C73.1123 205.157 72.9862 205.492 72.7364 206.061C72.4745 206.624 72.1366 207.449 71.6661 208.4C70.7445 210.315 69.4106 212.806 67.9805 215.241C66.5432 217.672 65.0088 220.045 63.7817 221.78C63.1762 222.652 62.62 223.349 62.2546 223.851C61.877 224.346 61.645 224.619 61.645 224.619Z" fill="#F3F8FF"/>
<path fill-rule="evenodd" clip-rule="evenodd" d="M54.8492 213.054C54.8492 213.054 55.0085 212.665 55.3157 212.001C55.6358 211.346 56.0578 210.387 56.6261 209.274C57.7458 207.039 59.3424 204.117 61.0344 201.253C62.7353 198.394 64.5316 195.592 65.9568 193.536C66.6601 192.503 67.2996 191.674 67.7224 191.078C68.1573 190.49 68.4233 190.164 68.4233 190.164C68.4233 190.164 68.2648 190.553 67.9568 191.216C67.6375 191.873 67.2171 192.832 66.648 193.945C65.5284 196.181 63.9301 199.101 62.2373 201.964C60.5364 204.823 58.7393 207.624 57.3141 209.681C56.61 210.714 55.9713 211.544 55.5493 212.139C55.1144 212.728 54.8492 213.054 54.8492 213.054Z" fill="#F3F8FF"/>
<path fill-rule="evenodd" clip-rule="evenodd" d="M48.0531 201.489C48.0531 201.489 48.1792 201.154 48.429 200.584C48.6917 200.022 49.0305 199.198 49.501 198.246C50.4226 196.332 51.7556 193.84 53.1841 191.404C54.6215 188.973 56.1542 186.599 57.383 184.864C57.9877 183.992 58.5455 183.296 58.9101 182.794C59.2876 182.299 59.5204 182.027 59.5204 182.027C59.5204 182.027 59.3943 182.362 59.1445 182.932C58.8826 183.495 58.5447 184.319 58.0742 185.271C57.1526 187.185 55.8187 189.676 54.3886 192.112C52.9513 194.542 51.4169 196.915 50.1897 198.65C49.5842 199.523 49.028 200.219 48.6626 200.721C48.2851 201.216 48.0531 201.489 48.0531 201.489Z" fill="#F3F8FF"/>
<path fill-rule="evenodd" clip-rule="evenodd" d="M63.6442 228.021C63.6442 228.021 63.2925 228.09 62.6757 228.177C62.0589 228.251 61.1777 228.395 60.1195 228.497C58.0031 228.72 55.1793 228.899 52.3531 228.966C49.5269 229.023 46.6974 228.971 44.5737 228.839C43.5115 228.784 42.6254 228.676 42.0062 228.63C41.3861 228.571 41.0312 228.516 41.0312 228.516C41.0312 228.516 41.3829 228.446 41.9997 228.359C42.6174 228.286 43.4977 228.139 44.5559 228.038C46.6715 227.814 49.4961 227.637 52.3223 227.571C55.1494 227.514 57.978 227.569 60.1025 227.7C61.164 227.755 62.05 227.861 62.6692 227.907C63.2893 227.968 63.6442 228.021 63.6442 228.021Z" fill="#F3F8FF"/>
<path fill-rule="evenodd" clip-rule="evenodd" d="M58.8814 254.782C58.8814 254.782 58.7035 255.093 58.3656 255.615C58.0164 256.129 57.5491 256.887 56.9331 257.752C55.7156 259.495 54.0002 261.741 52.1991 263.916C50.3914 266.086 48.4973 268.185 47.0074 269.701C46.2702 270.467 45.6081 271.064 45.1667 271.502C44.7148 271.929 44.4415 272.161 44.4415 272.161C44.4415 272.161 44.6194 271.849 44.9573 271.328C45.3065 270.814 45.7722 270.055 46.389 269.19C47.6057 267.447 49.3219 265.201 51.1239 263.026C52.9331 260.857 54.8272 258.76 56.3179 257.243C57.0552 256.479 57.7157 255.879 58.1571 255.442C58.609 255.014 58.8814 254.782 58.8814 254.782Z" fill="#F3F8FF"/>
<path fill-rule="evenodd" clip-rule="evenodd" d="M45.6768 252.331C45.6768 252.331 45.4593 252.691 45.0535 253.298C44.6356 253.898 44.0705 254.779 43.3364 255.791C41.8837 257.828 39.8546 260.467 37.7398 263.037C35.6169 265.598 33.4091 268.09 31.6824 269.901C30.8271 270.814 30.0672 271.534 29.557 272.057C29.0364 272.571 28.7236 272.853 28.7236 272.853C28.7236 272.853 28.9402 272.492 29.3469 271.885C29.764 271.285 30.3283 270.403 31.0623 269.392C32.515 267.354 34.5449 264.717 36.6614 262.148C38.7843 259.586 40.9937 257.095 42.7196 255.284C43.5749 254.372 44.334 253.65 44.8441 253.126C45.3647 252.613 45.6768 252.331 45.6768 252.331Z" fill="#F3F8FF"/>
<path fill-rule="evenodd" clip-rule="evenodd" d="M69.3916 248.902C69.3916 248.902 69.3989 248.543 69.445 247.924C69.504 247.305 69.5501 246.416 69.6754 245.362C69.9066 243.251 70.3326 240.458 70.8678 237.687C71.4126 234.917 72.0666 232.169 72.6463 230.125C72.926 229.101 73.2194 228.26 73.3973 227.665C73.5873 227.073 73.7166 226.739 73.7166 226.739C73.7166 226.739 73.7093 227.096 73.6641 227.717C73.6042 228.335 73.5606 229.224 73.4345 230.278C73.2041 232.39 72.7764 235.182 72.2396 237.954C71.6948 240.723 71.0391 243.471 70.4595 245.515C70.1798 246.539 69.888 247.381 69.7109 247.975C69.5193 248.567 69.3916 248.902 69.3916 248.902Z" fill="#F3F8FF"/>
<path fill-rule="evenodd" clip-rule="evenodd" d="M59.1278 240.254C59.1278 240.254 59.148 239.834 59.2167 239.106C59.2992 238.382 59.3784 237.338 59.5433 236.099C59.8538 233.619 60.3857 230.334 61.0268 227.071C61.6767 223.81 62.4358 220.57 63.0947 218.159C63.414 216.95 63.7406 215.956 63.9411 215.253C64.1545 214.554 64.2968 214.159 64.2968 214.159C64.2968 214.159 64.2766 214.579 64.2079 215.307C64.1254 216.031 64.0478 217.075 63.8829 218.313C63.5725 220.795 63.0397 224.079 62.3978 227.342C61.7463 230.603 60.9855 233.842 60.3275 236.254C60.0082 237.462 59.6832 238.457 59.4827 239.16C59.2685 239.858 59.1278 240.254 59.1278 240.254Z" fill="#F3F8FF"/>
<path fill-rule="evenodd" clip-rule="evenodd" d="M48.8635 231.607C48.8635 231.607 48.8708 231.248 48.9161 230.628C48.9759 230.01 49.0212 229.121 49.1473 228.067C49.3785 225.955 49.8045 223.163 50.3397 220.392C50.8846 217.622 51.5386 214.874 52.1182 212.83C52.3979 211.806 52.6914 210.965 52.8684 210.37C53.0592 209.778 53.1877 209.444 53.1877 209.444C53.1877 209.444 53.1813 209.801 53.136 210.422C53.0762 211.04 53.0325 211.929 52.9064 212.983C52.6752 215.095 52.2483 217.887 51.7116 220.659C51.1667 223.428 50.5111 226.176 49.9314 228.22C49.6517 229.243 49.3591 230.085 49.1828 230.68C48.9913 231.272 48.8635 231.607 48.8635 231.607Z" fill="#F3F8FF"/>
<path fill-rule="evenodd" clip-rule="evenodd" d="M72.4113 251.446C72.4113 251.446 72.1024 251.628 71.5503 251.915C70.9925 252.189 70.2108 252.618 69.2463 253.065C67.3255 253.979 64.7225 255.086 62.0789 256.089C59.433 257.081 56.7475 257.971 54.7006 258.554C53.6812 258.855 52.8097 259.048 52.2098 259.209C51.6052 259.359 51.2527 259.426 51.2527 259.426C51.2527 259.426 51.5615 259.243 52.1136 258.956C52.6714 258.682 53.4524 258.251 54.4168 257.803C56.3376 256.889 58.9415 255.784 61.585 254.783C64.2317 253.79 66.9181 252.902 68.9642 252.319C69.9836 252.019 70.8551 251.824 71.4541 251.662C72.0588 251.513 72.4113 251.446 72.4113 251.446Z" fill="#F3F8FF"/>
<path fill-rule="evenodd" clip-rule="evenodd" d="M64.5339 251.104H236.266V244.732H64.5339V251.104Z" fill="#279D8A"/>
<path fill-rule="evenodd" clip-rule="evenodd" d="M47.0959 245.055H253.704C255.62 245.055 257.173 243.505 257.173 241.592V110.656C257.173 108.743 255.62 107.193 253.704 107.193H47.0959C45.1799 107.193 43.627 108.743 43.627 110.656V241.592C43.627 243.505 45.1799 245.055 47.0959 245.055Z" fill="white"/>
<path fill-rule="evenodd" clip-rule="evenodd" d="M50.5977 232.144H250.203V114.062H50.5977V232.144Z" fill="#4B5352"/>
<path fill-rule="evenodd" clip-rule="evenodd" d="M257.173 251.104H150.4H43.6271L12.9907 275.282H150.4H287.809L257.173 251.104Z" fill="#2ADABF"/>
<path fill-rule="evenodd" clip-rule="evenodd" d="M123.188 261.343H169.088H177.612L190.529 271.537H276.559L255.414 254.849H150.4H45.3865L24.2408 271.537H110.27L123.188 261.343Z" fill="white"/>
<path fill-rule="evenodd" clip-rule="evenodd" d="M176.263 264.993H169.972H124.537L111.501 275.282H169.972H189.3L176.263 264.993Z" fill="#279D8A"/>
<path fill-rule="evenodd" clip-rule="evenodd" d="M280.144 282.934H20.6562C16.4225 282.934 12.9908 279.509 12.9908 275.282H287.809C287.809 279.509 284.377 282.934 280.144 282.934Z" fill="#279D8A"/>
<path fill-rule="evenodd" clip-rule="evenodd" d="M148.851 271.863H133.121L128.788 275.282H148.851V271.863Z" fill="#2ADABF"/>
<path fill-rule="evenodd" clip-rule="evenodd" d="M151.949 275.282H172.012L167.68 271.863H151.949V275.282Z" fill="#2ADABF"/>
<path fill-rule="evenodd" clip-rule="evenodd" d="M47.6426 258.675L43.6272 261.85H111.639L115.654 258.675H47.6426Z" fill="#2ADABF"/>
<path fill-rule="evenodd" clip-rule="evenodd" d="M41.4014 263.865L37.386 267.041H105.398L109.413 263.865H41.4014Z" fill="#2ADABF"/>
<path fill-rule="evenodd" clip-rule="evenodd" d="M253.158 258.675L257.174 261.85H189.162L185.146 258.675H253.158Z" fill="#2ADABF"/>
<path fill-rule="evenodd" clip-rule="evenodd" d="M259.399 263.865L263.414 267.041H195.403L191.386 263.865H259.399Z" fill="#2ADABF"/>
<path fill-rule="evenodd" clip-rule="evenodd" d="M131.107 192.341H71.056C69.4933 192.341 68.2266 191.076 68.2266 189.516C68.2266 187.956 69.4933 186.692 71.056 186.692H131.107C132.67 186.692 133.937 187.956 133.937 189.516C133.937 191.076 132.67 192.341 131.107 192.341Z" fill="#2ADABF"/>
<path fill-rule="evenodd" clip-rule="evenodd" d="M131.107 186.692H126.15C127.713 186.692 128.979 187.956 128.979 189.516C128.979 191.076 127.713 192.341 126.15 192.341H131.107C132.67 192.341 133.937 191.076 133.937 189.516C133.937 187.956 132.67 186.692 131.107 186.692Z" fill="#D4E1FF"/>
<path fill-rule="evenodd" clip-rule="evenodd" d="M131.107 200.814H71.056C69.4933 200.814 68.2266 199.55 68.2266 197.99C68.2266 196.43 69.4933 195.165 71.056 195.165H131.107C132.67 195.165 133.937 196.43 133.937 197.99C133.937 199.55 132.67 200.814 131.107 200.814Z" fill="#2ADABF"/>
<path fill-rule="evenodd" clip-rule="evenodd" d="M131.107 195.165H122.114C123.676 195.165 124.943 196.43 124.943 197.99C124.943 199.55 123.676 200.814 122.114 200.814H131.107C132.67 200.814 133.937 199.55 133.937 197.99C133.937 196.43 132.67 195.165 131.107 195.165Z" fill="#D4E1FF"/>
<path fill-rule="evenodd" clip-rule="evenodd" d="M131.107 209.288H71.056C69.4933 209.288 68.2266 208.024 68.2266 206.463C68.2266 204.903 69.4933 203.639 71.056 203.639H131.107C132.67 203.639 133.937 204.903 133.937 206.463C133.937 208.024 132.67 209.288 131.107 209.288Z" fill="#2ADABF"/>
<path fill-rule="evenodd" clip-rule="evenodd" d="M131.107 203.639H98.7708C100.333 203.639 101.6 204.903 101.6 206.463C101.6 208.024 100.333 209.288 98.7708 209.288H131.107C132.67 209.288 133.937 208.024 133.937 206.463C133.937 204.903 132.67 203.639 131.107 203.639Z" fill="#D4E1FF"/>
<path fill-rule="evenodd" clip-rule="evenodd" d="M131.107 217.761H71.056C69.4933 217.761 68.2266 216.498 68.2266 214.937C68.2266 213.377 69.4933 212.112 71.056 212.112H131.107C132.67 212.112 133.937 213.377 133.937 214.937C133.937 216.498 132.67 217.761 131.107 217.761Z" fill="#2ADABF"/>
<path fill-rule="evenodd" clip-rule="evenodd" d="M131.107 212.112H114.737C116.3 212.112 117.566 213.377 117.566 214.937C117.566 216.498 116.3 217.761 114.737 217.761H131.107C132.67 217.761 133.937 216.498 133.937 214.937C133.937 213.377 132.67 212.112 131.107 212.112Z" fill="#D4E1FF"/>
<path d="M76.5101 128.996H168.985" stroke="#8CB0EA" stroke-width="0.5" stroke-dasharray="1.62"/>
<path d="M76.5101 138.331H168.985" stroke="#8CB0EA" stroke-width="0.5" stroke-dasharray="1.62"/>
<path d="M76.5101 147.667H168.985" stroke="#8CB0EA" stroke-width="0.5" stroke-dasharray="1.62"/>
<path d="M76.5101 157.003H168.985" stroke="#8CB0EA" stroke-width="0.5" stroke-dasharray="1.62"/>
<path d="M76.5101 166.338H168.985" stroke="#8CB0EA" stroke-width="0.5" stroke-dasharray="1.62"/>
<path fill-rule="evenodd" clip-rule="evenodd" d="M79.1841 177.506H79.6V174.946H79.1841V177.506Z" fill="#279D8A"/>
<path fill-rule="evenodd" clip-rule="evenodd" d="M69.8121 177.506H70.2279V124.35H69.8121V177.506Z" fill="#279D8A"/>
<path fill-rule="evenodd" clip-rule="evenodd" d="M89.1163 177.506H89.5321V174.946H89.1163V177.506Z" fill="#279D8A"/>
<path fill-rule="evenodd" clip-rule="evenodd" d="M99.0477 177.506H99.4635V174.946H99.0477V177.506Z" fill="#279D8A"/>
<path fill-rule="evenodd" clip-rule="evenodd" d="M108.98 177.506H109.396V174.946H108.98V177.506Z" fill="#279D8A"/>
<path fill-rule="evenodd" clip-rule="evenodd" d="M118.911 177.506H119.327V174.946H118.911V177.506Z" fill="#279D8A"/>
<path fill-rule="evenodd" clip-rule="evenodd" d="M128.843 177.506H129.259V174.946H128.843V177.506Z" fill="#279D8A"/>
<path fill-rule="evenodd" clip-rule="evenodd" d="M138.775 177.506H139.19V174.946H138.775V177.506Z" fill="#279D8A"/>
<path fill-rule="evenodd" clip-rule="evenodd" d="M148.706 177.506H149.122V174.946H148.706V177.506Z" fill="#279D8A"/>
<path fill-rule="evenodd" clip-rule="evenodd" d="M158.638 177.506H159.054V174.946H158.638V177.506Z" fill="#279D8A"/>
<path fill-rule="evenodd" clip-rule="evenodd" d="M168.569 177.506H168.986V174.946H168.569V177.506Z" fill="#279D8A"/>
<path fill-rule="evenodd" clip-rule="evenodd" d="M68.226 166.546H70.791V166.132H68.226V166.546Z" fill="#5D7EE8"/>
<path fill-rule="evenodd" clip-rule="evenodd" d="M68.226 157.21H70.791V156.795H68.226V157.21Z" fill="#5D7EE8"/>
<path fill-rule="evenodd" clip-rule="evenodd" d="M68.226 147.874H70.791V147.46H68.226V147.874Z" fill="#5D7EE8"/>
<path fill-rule="evenodd" clip-rule="evenodd" d="M68.226 138.539H70.791V138.124H68.226V138.539Z" fill="#5D7EE8"/>
<path fill-rule="evenodd" clip-rule="evenodd" d="M68.226 129.203H70.791V128.788H68.226V129.203Z" fill="#5D7EE8"/>
<path fill-rule="evenodd" clip-rule="evenodd" d="M68.226 175.882H170.689V175.467H68.226V175.882Z" fill="#279D8A"/>
<path d="M160.433 132.558C160.433 132.558 155.204 148.437 141.893 142.102C128.581 135.766 125.729 143.132 123.496 152.254C115.287 185.791 114.539 151.505 109.754 151.838C104.969 152.172 103.415 170.054 98.8683 170.589C94.321 171.125 92.0113 149.112 86.9507 149.167C81.8892 149.222 77.8358 164.155 77.8358 164.155" stroke="#89FFED" stroke-width="1.61798"/>
<path d="M162.01 141.894C162.01 141.894 156.892 153.407 151.39 146.674C145.524 139.495 144.178 162.019 139.018 163.419C133.815 164.832 136.081 139.597 128.659 151.574C120.934 164.038 117.301 149.619 111.655 146.154C106.01 142.69 102.988 148.217 101.734 151.229C100.707 153.696 99.7408 156.593 96.7771 152.55C93.9736 148.726 92.3398 145.506 86.5798 159.132" stroke="#2ADABF" stroke-width="1.61798"/>
<path fill-rule="evenodd" clip-rule="evenodd" d="M211.14 166.394C203.07 166.394 196.528 159.864 196.528 151.809C196.528 143.753 203.07 137.223 211.14 137.223C219.208 137.223 225.75 143.753 225.75 151.809C225.75 159.864 219.208 166.394 211.14 166.394ZM211.14 131.985C200.173 131.985 191.282 140.86 191.282 151.809C191.282 162.757 200.173 171.632 211.14 171.632C222.106 171.632 230.997 162.757 230.997 151.809C230.997 140.86 222.106 131.985 211.14 131.985Z" fill="#2ADABF"/>
<path fill-rule="evenodd" clip-rule="evenodd" d="M225.75 151.809C225.75 152.101 225.739 152.391 225.722 152.679H230.975C230.988 152.39 230.997 152.1 230.997 151.809C230.997 140.861 222.106 131.985 211.14 131.985V137.223C219.209 137.223 225.75 143.753 225.75 151.809Z" fill="#EFA748"/>
<path fill-rule="evenodd" clip-rule="evenodd" d="M222.473 139.943L222.023 139.495L226.498 135.026H234.264V135.661H226.762L222.473 139.943Z" fill="white"/>
<path fill-rule="evenodd" clip-rule="evenodd" d="M225.62 152.475C225.3 160.249 218.89 166.453 211.025 166.453C207.969 166.453 205.137 165.511 202.793 163.909L199.573 168.053C202.81 170.34 206.757 171.691 211.025 171.691C221.699 171.691 230.404 163.281 230.86 152.738L225.62 152.475Z" fill="#62C1C5"/>
<path fill-rule="evenodd" clip-rule="evenodd" d="M230.572 176.836H214.934L208.048 169.96L208.497 169.511L215.198 176.201H230.572V176.836Z" fill="white"/>
<path fill-rule="evenodd" clip-rule="evenodd" d="M200.001 139.943L195.621 135.571H187.309V134.936H195.884L200.451 139.495L200.001 139.943Z" fill="white"/>
<path d="M12.9907 157.062L64.3467 105.795L86.5627 127.972L132.557 82.058L178.124 127.546L237.711 68.0627" stroke="#EFA748" stroke-width="4.85393" stroke-linecap="round"/>
<path fill-rule="evenodd" clip-rule="evenodd" d="M183.987 127.547C183.987 130.779 181.362 133.399 178.124 133.399C174.886 133.399 172.261 130.779 172.261 127.547C172.261 124.314 174.886 121.694 178.124 121.694C181.362 121.694 183.987 124.314 183.987 127.547Z" fill="#EFA748"/>
<path fill-rule="evenodd" clip-rule="evenodd" d="M181.045 127.547C181.045 129.157 179.737 130.462 178.124 130.462C176.511 130.462 175.203 129.157 175.203 127.547C175.203 125.936 176.511 124.631 178.124 124.631C179.737 124.631 181.045 125.936 181.045 127.547Z" fill="#F3F8FF"/>
<path fill-rule="evenodd" clip-rule="evenodd" d="M138.419 82.0577C138.419 85.2898 135.794 87.9102 132.556 87.9102C129.319 87.9102 126.694 85.2898 126.694 82.0577C126.694 78.8256 129.319 76.2052 132.556 76.2052C135.794 76.2052 138.419 78.8256 138.419 82.0577Z" fill="#EFA748"/>
<path fill-rule="evenodd" clip-rule="evenodd" d="M135.477 82.0577C135.477 83.6685 134.169 84.9735 132.557 84.9735C130.943 84.9735 129.635 83.6685 129.635 82.0577C129.635 80.4469 130.943 79.142 132.557 79.142C134.169 79.142 135.477 80.4469 135.477 82.0577Z" fill="#F3F8FF"/>
<path fill-rule="evenodd" clip-rule="evenodd" d="M92.3861 127.972C92.3861 131.204 89.7612 133.825 86.5235 133.825C83.2858 133.825 80.6609 131.204 80.6609 127.972C80.6609 124.74 83.2858 122.12 86.5235 122.12C89.7612 122.12 92.3861 124.74 92.3861 127.972Z" fill="#EFA748"/>
<path fill-rule="evenodd" clip-rule="evenodd" d="M89.4446 127.972C89.4446 129.583 88.1366 130.888 86.523 130.888C84.9102 130.888 83.6022 129.583 83.6022 127.972C83.6022 126.361 84.9102 125.056 86.523 125.056C88.1366 125.056 89.4446 126.361 89.4446 127.972Z" fill="#F3F8FF"/>
<path fill-rule="evenodd" clip-rule="evenodd" d="M70.2379 105.822C70.2379 109.054 67.613 111.675 64.3753 111.675C61.1376 111.675 58.5127 109.054 58.5127 105.822C58.5127 102.59 61.1376 99.9696 64.3753 99.9696C67.613 99.9696 70.2379 102.59 70.2379 105.822Z" fill="#EFA748"/>
<path fill-rule="evenodd" clip-rule="evenodd" d="M67.2961 105.822C67.2961 107.433 65.9881 108.738 64.3753 108.738C62.7617 108.738 61.4537 107.433 61.4537 105.822C61.4537 104.211 62.7617 102.906 64.3753 102.906C65.9881 102.906 67.2961 104.211 67.2961 105.822Z" fill="#F3F8FF"/>
<path fill-rule="evenodd" clip-rule="evenodd" d="M225.054 80.6978L214.24 69.9023L229.012 65.9512L243.785 62L239.826 76.7466L235.868 91.4933L225.054 80.6978Z" fill="#EFA748"/>
<path fill-rule="evenodd" clip-rule="evenodd" d="M152.129 228.198C152.129 228.198 151.299 227.399 150.237 227.471C149.174 227.542 150.313 228.448 150.313 228.448C150.313 228.448 148.764 227.932 147.696 228.181C146.627 228.43 146.343 231.504 151.871 230.651L153.02 230.456L153.287 228.234L152.129 228.198Z" fill="#FFA9A8"/>
<path fill-rule="evenodd" clip-rule="evenodd" d="M172.133 284.011L169.408 284.314C169.408 284.314 169.079 286.048 168.07 286.401C167.06 286.752 165.213 287.431 165.26 288.439C165.296 289.212 167.104 289.016 168.274 288.943C168.983 288.689 169.302 288.276 169.302 288.276L171.092 287.596L171.571 288.668C172.214 288.528 172.725 288.369 172.706 288.241C172.659 287.937 172.133 284.011 172.133 284.011Z" fill="#0A3C5F"/>
<path fill-rule="evenodd" clip-rule="evenodd" d="M169.045 238.374C165.259 255.452 169.408 284.314 169.408 284.314L172.133 284.011C172.133 284.011 170.885 259.849 173.49 244.739C175.542 232.829 170.982 230.269 169.045 238.374Z" fill="#FED4D5"/>
<path fill-rule="evenodd" clip-rule="evenodd" d="M179.581 284.011L176.856 284.314C176.856 284.314 176.527 286.048 175.517 286.401C174.508 286.752 172.66 287.431 172.707 288.439C172.744 289.212 174.551 289.016 175.722 288.943C176.431 288.689 176.75 288.276 176.75 288.276L178.54 287.596L179.019 288.668C179.662 288.528 180.173 288.369 180.154 288.241C180.107 287.937 179.581 284.011 179.581 284.011Z" fill="#0A3C5F"/>
<path fill-rule="evenodd" clip-rule="evenodd" d="M176.493 238.374C172.706 255.452 176.856 284.314 176.856 284.314L179.581 284.011C179.581 284.011 178.333 259.849 180.938 244.739C180.154 244.454 175.835 241.962 176.493 238.374Z" fill="#FED4D5"/>
<path fill-rule="evenodd" clip-rule="evenodd" d="M168.531 246.636H179.042V238.375H168.531V246.636Z" fill="#FED4D5"/>
<path fill-rule="evenodd" clip-rule="evenodd" d="M170.331 219.454C170.331 219.454 166.716 226.023 163.132 229.284C160.583 231.603 157.253 231.053 152.286 230.945L152.553 227.816C152.553 227.816 154.675 227.772 157.66 227.422C162.121 226.901 163.57 221.606 163.57 221.606C163.57 221.606 164.882 218.273 166.07 216.982C168.94 213.858 172.119 216.564 170.331 219.454Z" fill="#FFEB75"/>
<path fill-rule="evenodd" clip-rule="evenodd" d="M167.78 238.374C167.78 238.374 181.862 238.388 180.292 238.388C179.042 229.982 180.688 226.093 181.098 223.846C181.824 219.867 181.408 217.772 181.408 217.772C181.433 216.233 179.455 215.588 177.915 215.588H168.366C168.78 218.897 165.856 223.612 167.78 226.254C169.942 229.226 167.78 238.374 167.78 238.374Z" fill="#FFEB75"/>
<path fill-rule="evenodd" clip-rule="evenodd" d="M173.098 217.484C172.367 217.484 171.772 216.892 171.772 216.161V213.806H174.424V216.161C174.424 216.892 173.83 217.484 173.098 217.484Z" fill="#FED4D5"/>
<path fill-rule="evenodd" clip-rule="evenodd" d="M170.085 214.339C170.085 214.339 168.255 214.471 167.118 214.2C167.118 214.2 167.012 210.36 166.371 206.77C165.73 203.179 167.535 199.926 171.773 199.926C176.011 199.926 177.768 203.748 177.768 203.748C177.768 203.748 180.611 204.032 180.846 206.308C181.08 208.583 178.516 212.032 178.765 214.733C178.765 214.733 176.574 214.733 174.322 214.449C172.137 214.173 170.085 214.339 170.085 214.339Z" fill="#282828"/>
<path fill-rule="evenodd" clip-rule="evenodd" d="M177.987 207.945C177.189 208.185 176.946 208.817 176.89 209.012C176.885 209.034 176.877 209.053 176.873 209.075C173.738 205.241 167.78 205.546 167.78 205.546C167.78 205.546 167.728 209.241 168.616 212.158C169.39 214.7 172.264 216.108 174.626 214.88C175.551 214.398 176.375 213.525 176.762 211.989C176.762 211.989 178.898 211.011 179.034 209.164C179.11 208.151 178.556 207.832 177.987 207.945Z" fill="#FED4D5"/>
<path fill-rule="evenodd" clip-rule="evenodd" d="M166.644 259.773H181.526C181.526 259.773 184.813 244.978 180.292 238.388L167.779 238.374C167.779 238.374 163.681 245.681 166.644 259.773Z" fill="#2C4199"/>
<path fill-rule="evenodd" clip-rule="evenodd" d="M171.919 237.819L182.074 235.71L179.322 222.502L169.167 224.61L171.919 237.819Z" fill="white"/>
<path fill-rule="evenodd" clip-rule="evenodd" d="M171.546 285.73C171.92 285.276 172.134 284.011 172.134 284.011H171.877L169.408 284.314C169.408 284.314 169.079 286.049 168.069 286.401C167.703 286.527 167.227 286.7 166.771 286.914C166.767 286.928 166.447 288.179 168.376 287.561C170.317 286.939 171.131 286.232 171.546 285.73Z" fill="#FED4D5"/>
<path fill-rule="evenodd" clip-rule="evenodd" d="M178.994 285.73C179.368 285.276 179.582 284.011 179.582 284.011H179.325L176.856 284.314C176.856 284.314 176.527 286.049 175.517 286.401C175.151 286.527 174.675 286.7 174.219 286.914C174.215 286.928 173.895 288.179 175.824 287.561C177.765 286.939 178.579 286.232 178.994 285.73Z" fill="#FED4D5"/>
<path fill-rule="evenodd" clip-rule="evenodd" d="M140.746 213.916C140.746 213.916 143.549 213.899 143.175 220.511C142.801 227.123 143.362 234.082 146.576 239.211L142.938 240.526C142.938 240.526 140.344 235.762 138.867 228.669C137.844 223.751 140.746 213.916 140.746 213.916Z" fill="#F59E6E"/>
<path fill-rule="evenodd" clip-rule="evenodd" d="M143.653 241.307L147.075 240.951C146.786 240.466 146.514 239.919 146.257 239.322L143.082 240.414C143.43 241 143.653 241.307 143.653 241.307Z" fill="#EF9D75"/>
<path fill-rule="evenodd" clip-rule="evenodd" d="M146.301 240.093C146.301 240.093 147.769 239.787 147.956 240.507C148.143 241.227 147.769 242.347 147.769 242.347L146.514 242.161L146.594 241.534L146.301 240.093Z" fill="#EF9D75"/>
<path fill-rule="evenodd" clip-rule="evenodd" d="M141.184 244.401H142.159V242.703C142.159 242.274 142.509 241.925 142.939 241.925H147.627C148.058 241.925 148.407 242.274 148.407 242.703V244.401H149.383V242.703C149.383 241.736 148.595 240.951 147.627 240.951H142.939C141.971 240.951 141.184 241.736 141.184 242.703V244.401Z" fill="#EAA707"/>
<path fill-rule="evenodd" clip-rule="evenodd" d="M145.467 246.887H135.277V257.177H145.467H154.981V246.887H145.467Z" fill="#0A3C5F"/>
<path fill-rule="evenodd" clip-rule="evenodd" d="M135.277 250.762H154.981V244.248H135.277V250.762Z" fill="#0E4F77"/>
<path fill-rule="evenodd" clip-rule="evenodd" d="M144.036 251.072H146.221V249.477H144.036V251.072Z" fill="#EAA707"/>
<path fill-rule="evenodd" clip-rule="evenodd" d="M138.504 284.314C138.504 284.314 138.833 286.048 139.843 286.401C140.853 286.752 142.7 287.431 142.653 288.439C142.606 289.447 139.35 289.026 138.739 289.026C138.128 289.026 135.159 288.546 135.206 288.241C135.254 287.937 135.309 283.923 135.309 283.923L138.504 284.314Z" fill="#0A3C5F"/>
<path fill-rule="evenodd" clip-rule="evenodd" d="M140.814 240.148C143.568 257.473 138.962 284.464 138.962 284.464H134.904C134.904 284.464 135.927 258.44 134.206 246.479C132.485 234.516 139.54 231.249 140.814 240.148Z" fill="#0A3C5F"/>
<path fill-rule="evenodd" clip-rule="evenodd" d="M127.606 248.397H140.814V240.135H127.606V248.397Z" fill="#0A3C5F"/>
<path fill-rule="evenodd" clip-rule="evenodd" d="M129.234 284.314C129.234 284.314 129.563 286.048 130.572 286.401C131.582 286.752 133.429 287.431 133.382 288.439C133.335 289.447 130.079 289.026 129.469 289.026C128.859 289.026 125.889 288.546 125.936 288.241C125.983 287.937 126.038 283.923 126.038 283.923L129.234 284.314Z" fill="#0A3C5F"/>
<path fill-rule="evenodd" clip-rule="evenodd" d="M133.57 240.148C133.937 256.938 129.691 284.464 129.691 284.464H125.633C125.633 284.464 127.037 263.446 125.23 251.498C124.039 243.626 124.718 240.148 124.718 240.148C126.824 236.701 132.644 233.687 133.57 240.148Z" fill="#0E4F77"/>
<path fill-rule="evenodd" clip-rule="evenodd" d="M140.814 240.148H124.718L124.039 213.916H140.746L140.814 240.148Z" fill="#F59E6E"/>
<path fill-rule="evenodd" clip-rule="evenodd" d="M133.548 215.813C134.281 215.813 134.874 215.221 134.874 214.489V212.135H132.223V214.489C132.223 215.221 132.817 215.813 133.548 215.813Z" fill="#FED4D5"/>
<path fill-rule="evenodd" clip-rule="evenodd" d="M133.548 215.813L132.358 216.991L131.116 213.906L132.223 213.307L133.548 215.813Z" fill="white"/>
<path fill-rule="evenodd" clip-rule="evenodd" d="M133.548 215.813L134.739 216.991L135.982 213.906L134.874 213.307L133.548 215.813Z" fill="white"/>
<path fill-rule="evenodd" clip-rule="evenodd" d="M138.867 203.874C138.867 203.874 138.919 207.57 138.031 210.485C137.257 213.03 134.383 214.437 132.021 213.207C131.096 212.727 130.273 211.854 129.885 210.317C129.885 210.317 127.749 209.339 127.612 207.491C127.472 205.589 129.55 206.12 129.774 207.404L131.171 202.595L133.966 202.537L136.209 203.762L138.867 203.874Z" fill="#F8B690"/>
<path fill-rule="evenodd" clip-rule="evenodd" d="M139.27 198.807C137.051 197.927 128.994 198.719 127.605 200.586C126.697 202.545 128.419 206.25 128.419 206.25C128.419 206.25 129.431 206.255 129.774 207.405C129.774 207.405 131.345 206.696 131.784 204.711C131.784 204.711 135.388 205.979 138.867 203.875C140.006 203.185 141.489 199.686 139.27 198.807Z" fill="#282828"/>
<path fill-rule="evenodd" clip-rule="evenodd" d="M146.707 240.808C148.174 240.601 147.981 242.364 147.542 242.774C147.165 243.126 143.904 244.168 143.53 243.492C143.156 242.817 142.464 241.661 143.425 241.448C144.387 241.234 145.241 241.014 146.707 240.808Z" fill="#F8B690"/>
<path fill-rule="evenodd" clip-rule="evenodd" d="M146.149 227.969C146.149 227.969 146.979 227.169 148.041 227.24C149.105 227.312 147.965 228.218 147.965 228.218C147.965 228.218 149.514 227.703 150.582 227.951C151.651 228.2 151.936 231.274 146.407 230.422L145.258 230.227L144.991 228.005L146.149 227.969Z" fill="#EF9D75"/>
<path fill-rule="evenodd" clip-rule="evenodd" d="M122.586 216.999C122.586 216.999 123.41 223.479 126.342 228.914C128.491 232.898 136.837 232.477 145.976 230.653L145.673 227.333C145.673 227.333 136.706 228.156 133.362 227.77C129.229 227.291 129.118 220.867 129.118 220.867C129.118 220.867 128.988 217.566 128.345 216.064C126.79 212.429 122.395 212.912 122.586 216.999Z" fill="#F59E6E"/>
<path fill-rule="evenodd" clip-rule="evenodd" d="M178.721 215.645C178.721 215.645 177.303 216.053 179.236 220.376C181.169 224.701 183.928 230.112 182.966 230.654C182.003 231.194 176.068 230.57 175.097 230.8C174.125 231.03 173.532 233.232 175.995 233.681C178.456 234.128 183.06 235.005 185.8 234.202C188.54 233.399 187.518 229.622 185.077 222.813C182.637 216.003 181.016 214.767 178.721 215.645Z" fill="#FFEB75"/>
<path fill-rule="evenodd" clip-rule="evenodd" d="M172.175 233.34C171.073 233.318 170.126 232.714 170.774 231.008C171.421 229.303 173.548 229.842 175.258 230.489C176.964 231.136 176.973 230.666 176.885 232.512C176.786 234.601 174.179 233.38 172.175 233.34Z" fill="#FED4D5"/>
<path fill-rule="evenodd" clip-rule="evenodd" d="M176.827 231.149C176.827 231.149 176.214 229.778 174.962 229.571C173.887 229.393 174.186 230.128 174.186 230.128L175.058 231.549L176.139 231.745L176.827 231.149Z" fill="#FED4D5"/>
<path fill-rule="evenodd" clip-rule="evenodd" d="M128.418 206.25C128.418 206.25 129.431 206.255 129.774 207.405C129.774 207.405 131.345 206.696 131.784 204.711C131.784 204.711 129.076 204.369 127.459 203.209C127.738 204.784 128.418 206.25 128.418 206.25Z" fill="#282828"/>
<path fill-rule="evenodd" clip-rule="evenodd" d="M174.875 207.33C174.875 207.33 177.82 209.518 175.461 214.295L177.162 213.498L177.964 213.018L179.041 211.179L179.779 209.633L179.967 207.33L178.685 206.325L176.921 206.086H175.88L174.875 207.33Z" fill="#6CBA39"/>
<path fill-rule="evenodd" clip-rule="evenodd" d="M275.307 229.598C275.307 229.598 277.505 226.664 275.787 223.806C275.787 223.806 277.468 221.923 275.634 220.443C275.634 220.443 276.897 216.73 273.511 215.695C273.511 215.695 272.372 213.557 269.003 213.819C265.547 214.088 264.806 216.24 264.806 216.24C264.806 216.24 259.316 217.955 262.348 224.126C262.348 224.126 256.487 229.926 264.638 238.187C267.72 241.311 275.307 229.598 275.307 229.598Z" fill="#703518"/>
<path fill-rule="evenodd" clip-rule="evenodd" d="M271.706 232.914C271.706 232.914 272.938 241.646 275.194 245.633C277.45 249.62 284.042 247.376 290.467 243.557L289.331 240.39C289.331 240.39 285.733 242.197 282.548 242.865C278.395 243.736 278.328 236.781 278.328 236.781C278.328 236.781 278.248 233.395 277.615 231.862C276.082 228.155 271.722 229.349 271.706 232.914Z" fill="#FED4D5"/>
<path fill-rule="evenodd" clip-rule="evenodd" d="M275.863 253.958C275.863 253.958 260.132 253.755 261.617 253.755C265.21 244.704 263.653 239.534 263.265 237.409C262.578 233.646 262.973 231.664 262.973 231.664C262.949 230.209 264.818 229.598 266.277 229.598H275.308C274.916 232.727 277.682 237.188 275.863 239.687C273.818 242.497 275.863 253.958 275.863 253.958Z" fill="#F76B8D"/>
<path fill-rule="evenodd" clip-rule="evenodd" d="M261.917 231.183C261.917 231.183 258.268 237.325 257.571 241.851C256.875 246.377 258.194 248.366 265.449 249.974L266.422 247.651C266.422 247.651 265.73 247.43 262.861 245.898C259.114 243.9 263.543 237.684 263.543 237.684C263.543 237.684 265.577 234.973 266.029 233.378C267.12 229.519 263.358 228.311 261.917 231.183Z" fill="#FED4D5"/>
<path fill-rule="evenodd" clip-rule="evenodd" d="M269.422 251.985C269.911 253.64 270.561 251.174 270.573 249.449C270.583 247.725 269.144 247.708 267.415 247.697C265.688 247.688 265.827 247.265 265.288 248.928C264.583 251.106 268.913 250.267 269.422 251.985Z" fill="#FED4D5"/>
<path fill-rule="evenodd" clip-rule="evenodd" d="M270.037 254.588C270.037 254.588 268.439 264.547 276.974 262.159C285.191 259.86 289.582 259.194 291.004 280.879L294.912 280.568C294.912 280.568 296.54 259.5 291.455 255.096C286.37 250.693 270.037 254.588 270.037 254.588Z" fill="#C33E6B"/>
<path fill-rule="evenodd" clip-rule="evenodd" d="M294.456 280.554C294.456 280.554 295.216 282.041 296.226 282.093C297.236 282.145 300.061 281.991 300.286 282.919C300.511 283.846 296.476 284.607 295.921 284.769C295.368 284.931 294.289 283.698 293.773 283.595C293.258 283.49 293.089 283.863 292.661 283.826C292.233 283.789 290.924 283.109 290.886 282.82C290.847 282.53 291.415 280.678 291.415 280.678L294.456 280.554Z" fill="#3459B7"/>
<path fill-rule="evenodd" clip-rule="evenodd" d="M280.396 261.556H265.48L262.317 253.743H280.396V261.556Z" fill="#0A3C5F"/>
<path fill-rule="evenodd" clip-rule="evenodd" d="M261.617 253.755C261.617 253.755 257.873 260.799 266.254 262.207C274.67 263.621 279.082 263.648 274.355 284.861L278.193 285.657C278.193 285.657 285.469 265.374 281.84 259.714C277.443 252.856 261.617 253.755 261.617 253.755Z" fill="#C33E6B"/>
<path fill-rule="evenodd" clip-rule="evenodd" d="M277.761 285.515C277.761 285.515 278.072 287.155 279.027 287.488C279.982 287.82 282.736 288.464 282.692 289.417C282.647 290.371 278.56 289.971 277.982 289.971C277.406 289.971 276.717 288.486 276.251 288.242C275.784 287.998 275.518 288.309 275.117 288.154C274.718 287.998 273.652 286.978 273.697 286.69C273.741 286.402 274.807 284.784 274.807 284.784L277.761 285.515Z" fill="#3459B7"/>
<path fill-rule="evenodd" clip-rule="evenodd" d="M275.081 254.589H264.676C264.343 254.589 264.073 254.319 264.073 253.988V253.929C264.073 253.597 264.343 253.327 264.676 253.327H275.081C275.414 253.327 275.684 253.597 275.684 253.929V253.988C275.684 254.319 275.414 254.589 275.081 254.589Z" fill="#E89234"/>
<path fill-rule="evenodd" clip-rule="evenodd" d="M296.799 254.589H274.853C274.278 254.589 273.812 254.124 273.812 253.55V239.226C273.812 238.652 274.278 238.187 274.853 238.187H296.799C297.374 238.187 297.839 238.652 297.839 239.226V253.55C297.839 254.124 297.374 254.589 296.799 254.589Z" fill="white"/>
<path fill-rule="evenodd" clip-rule="evenodd" d="M274.852 238.187H286.866C286.291 238.187 285.825 238.652 285.825 239.225V253.55C285.825 254.124 286.291 254.589 286.866 254.589H274.852C274.278 254.589 273.812 254.124 273.812 253.55V239.225C273.812 238.652 274.278 238.187 274.852 238.187Z" fill="white"/>
<path fill-rule="evenodd" clip-rule="evenodd" d="M274.852 238.187H275.634C275.059 238.187 274.594 238.652 274.594 239.225V253.55C274.594 254.124 275.059 254.589 275.634 254.589H274.852C274.278 254.589 273.812 254.124 273.812 253.55V239.225C273.812 238.652 274.278 238.187 274.852 238.187Z" fill="#E89234"/>
<path fill-rule="evenodd" clip-rule="evenodd" d="M269.97 230.738C270.662 230.738 271.223 230.178 271.223 229.486V227.259H268.716V229.486C268.716 230.178 269.278 230.738 269.97 230.738Z" fill="#FED4D5"/>
<path fill-rule="evenodd" clip-rule="evenodd" d="M275 219.446C275 219.446 275.049 222.942 274.209 225.699C273.476 228.105 270.759 229.437 268.525 228.274C267.649 227.819 266.871 226.994 266.504 225.54C266.504 225.54 264.484 224.615 264.355 222.867C264.222 221.069 266.187 221.571 266.399 222.784L267.721 218.236L270.365 218.181L274.036 217.518L275 219.446Z" fill="#FED4D5"/>
<path fill-rule="evenodd" clip-rule="evenodd" d="M274.979 220.52C274.979 220.52 274.024 220.329 273.294 219.057C273.294 219.057 271.328 222.905 266.4 222.784C266.4 222.784 266.069 221.377 266.245 220.519C266.422 219.662 267.004 218.224 267.231 217.997C267.458 217.77 267.592 216.938 269.003 216.938C270.414 216.938 272.056 216.837 272.384 216.887C272.713 216.938 273.875 216.963 273.875 216.963C273.875 216.963 274.279 216.912 274.405 216.988C274.532 217.064 274.761 217.241 275 217.669C275.239 218.098 275.366 218.476 275.391 218.804C275.416 219.132 275.391 219.712 275.391 219.712L274.979 220.52Z" fill="#703518"/>
<path fill-rule="evenodd" clip-rule="evenodd" d="M42.6911 286.838C42.6911 286.838 42.3799 288.479 41.4252 288.811C40.4696 289.144 38.7234 289.787 38.7671 290.741C38.8116 291.695 41.8916 291.294 42.4688 291.294C43.046 291.294 45.8553 290.842 45.81 290.554C45.7663 290.265 45.7138 286.468 45.7138 286.468L42.6911 286.838Z" fill="#0A3C5F"/>
<path fill-rule="evenodd" clip-rule="evenodd" d="M40.5072 245.065C37.9017 261.451 42.259 286.98 42.259 286.98H46.0973C46.0973 286.98 45.1289 262.366 46.757 251.053C48.3851 239.738 41.7117 236.647 40.5072 245.065Z" fill="#6D6D6D"/>
<path fill-rule="evenodd" clip-rule="evenodd" d="M40.5071 252.867H52.9995V245.052H40.5071V252.867Z" fill="#6D6D6D"/>
<path fill-rule="evenodd" clip-rule="evenodd" d="M51.4598 286.838C51.4598 286.838 51.1485 288.479 50.1938 288.811C49.2383 289.144 47.4913 289.787 47.5357 290.741C47.5802 291.695 50.6603 291.294 51.2375 291.294C51.8147 291.294 54.6231 290.842 54.5786 290.554C54.5342 290.265 54.4816 286.468 54.4816 286.468L51.4598 286.838Z" fill="#0A3C5F"/>
<path fill-rule="evenodd" clip-rule="evenodd" d="M46.7534 245.053C46.5399 258.407 51.0266 286.981 51.0266 286.981H54.8658C54.8658 286.981 53.5375 267.1 55.2465 255.799C56.3727 248.354 55.7308 245.066 55.7308 245.066C53.7397 241.805 47.6281 238.941 46.7534 245.053Z" fill="#6D6D6D"/>
<path fill-rule="evenodd" clip-rule="evenodd" d="M40.5071 245.065H55.7311L56.373 220.254H40.5709L40.5071 245.065Z" fill="#6CBA39"/>
<path fill-rule="evenodd" clip-rule="evenodd" d="M47.3787 222.048C46.6867 222.048 46.1249 221.488 46.1249 220.796V218.569H48.6326V220.796C48.6326 221.488 48.0707 222.048 47.3787 222.048Z" fill="#FED4D5"/>
<path fill-rule="evenodd" clip-rule="evenodd" d="M56.6241 220.224C56.6241 220.224 52.6426 220.19 52.9789 225.262C53.3144 230.333 55.0695 235.204 53.8981 235.391C52.7275 235.579 47.046 233.451 45.9821 233.321C44.9183 233.192 42.7784 234.773 45.0904 236.14C47.4025 237.504 53.3645 241.627 56.422 241.835C59.4802 242.044 60.173 237.599 60.2514 229.836C60.3298 222.073 58.6184 220.303 56.6241 220.224Z" fill="#A2D680"/>
<path fill-rule="evenodd" clip-rule="evenodd" d="M40.5533 227.819C40.5533 227.819 35.3269 231.323 31.9922 230.499C27.9591 229.502 31.7634 220.852 40.5848 214.03L42.5355 216.915C42.5355 216.915 36.7651 222.488 36.664 224.386C36.563 226.285 40.5711 220.254 40.5711 220.254L40.5533 227.819Z" fill="#A2D680"/>
<path fill-rule="evenodd" clip-rule="evenodd" d="M39.1082 218.162L42.4502 219.652C42.6216 219.727 42.8221 219.651 42.8981 219.481L45.7582 213.084C45.8342 212.914 45.7582 212.714 45.5869 212.637L42.2449 211.148C42.0735 211.072 41.8738 211.149 41.797 211.319L38.9369 217.715C38.8609 217.885 38.9377 218.085 39.1082 218.162Z" fill="#62C1C5"/>
<path fill-rule="evenodd" clip-rule="evenodd" d="M45.3224 212.866L44.7032 212.589C44.628 212.556 44.5399 212.59 44.5067 212.665C44.4784 212.727 44.4049 212.754 44.3426 212.727L43.0087 212.133C42.9465 212.105 42.9182 212.032 42.9465 211.969C42.9796 211.894 42.9465 211.807 42.8705 211.773L42.2513 211.497C42.1656 211.458 42.0637 211.497 42.0257 211.583L39.286 217.708C39.248 217.794 39.2868 217.895 39.3725 217.933L42.4437 219.303C42.5302 219.341 42.6312 219.303 42.67 219.216L45.4089 213.091C45.4477 213.005 45.4089 212.904 45.3224 212.866Z" fill="#0A3C5F"/>
<path fill-rule="evenodd" clip-rule="evenodd" d="M45.587 212.637L43.9161 211.892L40.7794 218.907L42.4504 219.651C42.6218 219.727 42.8223 219.65 42.8983 219.48L45.7584 213.084C45.8344 212.914 45.7576 212.714 45.587 212.637Z" fill="#45ADAD"/>
<path fill-rule="evenodd" clip-rule="evenodd" d="M45.3225 212.866L44.7033 212.589C44.6281 212.556 44.54 212.59 44.5068 212.665C44.4785 212.727 44.405 212.754 44.3427 212.727L43.6758 212.43L40.9086 218.618L42.4437 219.303C42.5302 219.341 42.6313 219.303 42.6701 219.216L45.409 213.091C45.4478 213.005 45.409 212.904 45.3225 212.866Z" fill="#0A3C5F"/>
<path fill-rule="evenodd" clip-rule="evenodd" d="M43.9095 212.354L43.2566 212.063C43.2291 212.051 43.217 212.019 43.2291 211.992C43.2412 211.965 43.2736 211.952 43.3003 211.965L43.954 212.255C43.9807 212.268 43.9936 212.299 43.9807 212.327C43.9693 212.354 43.937 212.366 43.9095 212.354Z" fill="#0A3C5F"/>
<path fill-rule="evenodd" clip-rule="evenodd" d="M44.1734 212.413C44.1612 212.439 44.1297 212.451 44.103 212.439C44.0763 212.428 44.0642 212.396 44.0763 212.369C44.0884 212.342 44.12 212.33 44.1467 212.342C44.1734 212.354 44.1855 212.386 44.1734 212.413Z" fill="#0A3C5F"/>
<path fill-rule="evenodd" clip-rule="evenodd" d="M44.3246 212.48C44.3125 212.506 44.2809 212.518 44.2542 212.506C44.2275 212.495 44.2154 212.463 44.2275 212.436C44.2397 212.409 44.2712 212.397 44.2979 212.409C44.3246 212.422 44.3368 212.453 44.3246 212.48Z" fill="#0A3C5F"/>
<path fill-rule="evenodd" clip-rule="evenodd" d="M42.3482 210.756C42.3482 210.756 42.2989 214.251 43.1388 217.009C43.8712 219.415 46.5891 220.746 48.8228 219.584C49.6983 219.129 50.4776 218.303 50.8438 216.85C50.8438 216.85 52.864 215.924 52.9934 214.177C53.1268 212.378 51.1607 212.88 50.9481 214.095L49.6271 209.546L46.9836 209.491L44.8616 210.65L42.3482 210.756Z" fill="#FED4D5"/>
<path fill-rule="evenodd" clip-rule="evenodd" d="M49.1399 205.082C52.3954 205.418 52.9993 207.646 52.9993 207.646C53.8594 209.498 52.2305 213.003 52.2305 213.003C52.2305 213.003 51.2733 213.007 50.9483 214.094C50.9483 214.094 49.4625 213.425 49.0478 211.547C48.6322 209.67 44.1464 212.342 41.1827 211.156C41.1827 211.156 37.5804 210.28 37.7356 206.195C37.7356 206.195 38.5635 207.657 40.3727 207.531C40.3727 207.531 38.2563 206.31 39.8779 203.289C39.8779 203.289 40.3969 205.503 42.1148 205.886C42.1148 205.886 41.8957 204.841 42.8383 203.816C42.8383 203.816 43.1924 205.329 44.8432 205.379C46.4932 205.43 48.009 204.965 49.1399 205.082Z" fill="#282828"/>
<path fill-rule="evenodd" clip-rule="evenodd" d="M41.0195 211.96C41.0195 211.96 41.7091 211.923 41.676 212.968C41.6436 214.015 40.798 216.32 39.8368 216.552C39.583 216.614 38.9581 216.398 39.0834 215.09C39.2087 213.782 39.9484 211.824 41.0195 211.96Z" fill="#FED4D5"/>
<path fill-rule="evenodd" clip-rule="evenodd" d="M47.4627 239.994L38.4037 239.443L36.1248 226.435L45.1846 226.987L47.4627 239.994Z" fill="white"/>
<path fill-rule="evenodd" clip-rule="evenodd" d="M46.5332 232.845C46.5332 232.845 44.9188 232.476 44.6973 233.915C44.4758 235.355 44.4394 238.307 46.5332 238.197C47.7636 238.133 48.2971 232.992 46.5332 232.845Z" fill="#FED4D5"/>
</svg>
