<svg width="126" height="170" viewBox="0 0 126 170" fill="none" xmlns="http://www.w3.org/2000/svg">
<g clip-path="url(#clip0_3309_2756)">
<path fill-rule="evenodd" clip-rule="evenodd" d="M0 9.75C0 4.36522 4.36522 0 9.75 0H116.25C121.635 0 126 4.36522 126 9.75V90.9482C126 96.333 121.635 100.698 116.25 100.698H110.25L92.5402 126.04C91.6129 127.367 89.5315 126.487 89.8378 124.897L94.5 100.698H63H9.75C4.36522 100.698 0 96.333 0 90.9482V9.75Z" fill="white"/>
<path d="M40.5 21.4172H85.5" stroke="#21CBAA" stroke-width="3.75" stroke-linecap="round"/>
<path d="M63.375 21.0414L63.375 84.9172" stroke="#21CBAA" stroke-width="3.75" stroke-linecap="round"/>
<path d="M24.6786 147.61H17.4786V145H34.8486V147.61H27.6486V166H24.6786V147.61ZM39.3517 152.77C39.8517 151.85 40.5917 151.15 41.5717 150.67C42.5517 150.19 43.7417 149.95 45.1417 149.95V152.74C44.9817 152.72 44.7617 152.71 44.4817 152.71C42.9217 152.71 41.6917 153.18 40.7917 154.12C39.9117 155.04 39.4717 156.36 39.4717 158.08V166H36.5917V150.1H39.3517V152.77ZM53.7284 149.95C55.9284 149.95 57.6084 150.49 58.7684 151.57C59.9484 152.65 60.5384 154.26 60.5384 156.4V166H57.8084V163.9C57.3284 164.64 56.6384 165.21 55.7384 165.61C54.8584 165.99 53.8084 166.18 52.5884 166.18C50.8084 166.18 49.3784 165.75 48.2984 164.89C47.2384 164.03 46.7084 162.9 46.7084 161.5C46.7084 160.1 47.2184 158.98 48.2384 158.14C49.2584 157.28 50.8784 156.85 53.0984 156.85H57.6584V156.28C57.6584 155.04 57.2984 154.09 56.5784 153.43C55.8584 152.77 54.7984 152.44 53.3984 152.44C52.4584 152.44 51.5384 152.6 50.6384 152.92C49.7384 153.22 48.9784 153.63 48.3584 154.15L47.1584 151.99C47.9784 151.33 48.9584 150.83 50.0984 150.49C51.2384 150.13 52.4484 149.95 53.7284 149.95ZM53.0684 163.96C54.1684 163.96 55.1184 163.72 55.9184 163.24C56.7184 162.74 57.2984 162.04 57.6584 161.14V158.92H53.2184C50.7784 158.92 49.5584 159.74 49.5584 161.38C49.5584 162.18 49.8684 162.81 50.4884 163.27C51.1084 163.73 51.9684 163.96 53.0684 163.96ZM80.2325 143.74V166H77.4725V163.48C76.8325 164.36 76.0225 165.03 75.0425 165.49C74.0625 165.95 72.9825 166.18 71.8025 166.18C70.2625 166.18 68.8825 165.84 67.6625 165.16C66.4425 164.48 65.4825 163.53 64.7825 162.31C64.1025 161.07 63.7625 159.65 63.7625 158.05C63.7625 156.45 64.1025 155.04 64.7825 153.82C65.4825 152.6 66.4425 151.65 67.6625 150.97C68.8825 150.29 70.2625 149.95 71.8025 149.95C72.9425 149.95 73.9925 150.17 74.9525 150.61C75.9125 151.03 76.7125 151.66 77.3525 152.5V143.74H80.2325ZM72.0425 163.66C73.0425 163.66 73.9525 163.43 74.7725 162.97C75.5925 162.49 76.2325 161.83 76.6925 160.99C77.1525 160.13 77.3825 159.15 77.3825 158.05C77.3825 156.95 77.1525 155.98 76.6925 155.14C76.2325 154.28 75.5925 153.62 74.7725 153.16C73.9525 152.7 73.0425 152.47 72.0425 152.47C71.0225 152.47 70.1025 152.7 69.2825 153.16C68.4825 153.62 67.8425 154.28 67.3625 155.14C66.9025 155.98 66.6725 156.95 66.6725 158.05C66.6725 159.15 66.9025 160.13 67.3625 160.99C67.8425 161.83 68.4825 162.49 69.2825 162.97C70.1025 163.43 71.0225 163.66 72.0425 163.66ZM84.9582 143.74H87.8382V166H84.9582V143.74ZM106.684 150.1L98.9736 167.59C98.2936 169.21 97.4936 170.35 96.5736 171.01C95.6736 171.67 94.5836 172 93.3036 172C92.5236 172 91.7636 171.87 91.0236 171.61C90.3036 171.37 89.7036 171.01 89.2236 170.53L90.4536 168.37C91.2736 169.15 92.2236 169.54 93.3036 169.54C94.0036 169.54 94.5836 169.35 95.0436 168.97C95.5236 168.61 95.9536 167.98 96.3336 167.08L96.8436 165.97L89.8236 150.1H92.8236L98.3736 162.82L103.864 150.1H106.684Z" fill="white"/>
</g>
<defs>
<clipPath id="clip0_3309_2756">
<rect width="126" height="170" fill="white"/>
</clipPath>
</defs>
</svg>
