<svg width="308" height="334" viewBox="0 0 308 334" fill="none" xmlns="http://www.w3.org/2000/svg">
<rect x="0.390564" width="307" height="334" rx="8" fill="white"/>
<path d="M156.609 301.96C240.004 301.96 307.609 295.692 307.609 287.96C307.609 280.228 240.004 273.96 156.609 273.96C73.2145 273.96 5.6095 280.228 5.6095 287.96C5.6095 295.692 73.2145 301.96 156.609 301.96Z" fill="#BCBCBC"/>
<path fill-rule="evenodd" clip-rule="evenodd" d="M109.211 188.346C109.211 188.346 111.072 176.53 123.1 174.264C130.437 172.883 136.779 176.553 142.146 182.623C143.362 184 144.533 185.53 145.662 187.203C135.929 193.587 109.02 193.492 109.211 188.346Z" fill="#3446AD"/>
<path fill-rule="evenodd" clip-rule="evenodd" d="M123.255 171.81C123.255 171.81 123.1 173.521 122.312 175.332C122.932 176.356 124.543 176.979 126.244 176.987C128.832 177 129.505 175.543 129.505 175.543C129.505 175.543 128.744 174.432 129.149 171.81C127.655 171.205 123.255 171.81 123.255 171.81Z" fill="#FFD4D6"/>
<path fill-rule="evenodd" clip-rule="evenodd" d="M132.5 165.589C132.5 165.589 133.186 164.153 134.157 164.602C135.127 165.049 132.447 170.335 132.01 168.269C132.056 166.366 132.5 165.589 132.5 165.589Z" fill="#FFD4D6"/>
<path fill-rule="evenodd" clip-rule="evenodd" d="M119.702 165.589C119.702 165.589 119.017 164.153 118.046 164.602C117.077 165.049 119.754 170.335 120.195 168.269C120.145 166.366 119.702 165.589 119.702 165.589Z" fill="#FFD4D6"/>
<path fill-rule="evenodd" clip-rule="evenodd" d="M119.728 163.544C119.728 163.544 119.377 168.087 121.425 170.534C123.096 172.533 124.815 173.787 126.457 173.787C128.099 173.787 130.093 172.039 131.223 170.238C132.353 168.437 132.676 164.566 132.648 163.086C132.623 161.608 130.781 154.981 124.546 155.438C119.593 155.801 119.728 163.544 119.728 163.544Z" fill="#FFD4D6"/>
<path fill-rule="evenodd" clip-rule="evenodd" d="M129.162 162.548C128.028 162.548 127.107 163.468 127.107 164.601C127.107 165.733 128.028 166.654 129.162 166.654C130.295 166.654 131.218 165.733 131.218 164.601C131.218 163.468 130.295 162.548 129.162 162.548ZM129.162 166.883C127.903 166.883 126.877 165.859 126.877 164.601C126.877 163.343 127.903 162.318 129.162 162.318C130.422 162.318 131.448 163.343 131.448 164.601C131.448 165.859 130.422 166.883 129.162 166.883Z" fill="#262626"/>
<path fill-rule="evenodd" clip-rule="evenodd" d="M123.033 162.548C121.9 162.548 120.977 163.468 120.977 164.601C120.977 165.733 121.9 166.654 123.033 166.654C124.167 166.654 125.089 165.733 125.089 164.601C125.089 163.468 124.167 162.548 123.033 162.548ZM123.033 166.883C121.773 166.883 120.747 165.859 120.747 164.601C120.747 163.343 121.773 162.318 123.033 162.318C124.293 162.318 125.318 163.343 125.318 164.601C125.318 165.859 124.293 166.883 123.033 166.883Z" fill="#262626"/>
<mask id="mask0_3309_2369" style="mask-type:alpha" maskUnits="userSpaceOnUse" x="7" y="53" width="300" height="247">
<path fill-rule="evenodd" clip-rule="evenodd" d="M7.39056 299.553H306.73V53H7.39056V299.553Z" fill="white"/>
</mask>
<g mask="url(#mask0_3309_2369)">
<path fill-rule="evenodd" clip-rule="evenodd" d="M125.102 163.81H127.149V163.581H125.102V163.81Z" fill="#262626"/>
<path fill-rule="evenodd" clip-rule="evenodd" d="M121.478 158.326C121.478 158.326 122.659 159.386 127.254 160.738C126.96 160.091 126.179 158.855 126.179 158.855C126.179 158.855 127.962 160.738 129.906 161.328C129.789 161.034 129.318 160.502 129.141 159.827C130.319 160.974 131.131 161.174 131.734 161.328C132.337 161.482 131.921 162.59 132.263 163.506C132.608 164.421 132.079 166.242 132.01 166.771C133.088 165.065 133.329 164.728 134.033 164.558C134.74 164.389 137.97 156.161 130.602 152.984C124.583 150.387 122.538 152.885 121.478 153.985C117.836 153.454 117.303 160.624 118.298 164.515C119.702 165.589 119.686 165.721 120.053 166.771C120.183 164.957 120.125 164.093 120.194 163.231C120.261 162.368 122.027 160.444 121.478 158.326Z" fill="#282828"/>
<path fill-rule="evenodd" clip-rule="evenodd" d="M111.459 160.616L135.107 162.13C135.107 162.13 137.108 155.164 132.651 152.976C128.195 150.788 120.582 150.513 118.25 154.828C117.015 157.088 116.879 159.007 116.879 159.007C116.879 159.007 107.961 158.869 111.459 160.616Z" fill="#F2387F"/>
<path opacity="0.4" fill-rule="evenodd" clip-rule="evenodd" d="M141.605 192.838C141.605 192.838 169.781 174.187 174.369 153.247C178.955 132.307 176.498 122.528 177.017 117.93C177.941 109.737 204.812 109.215 209.726 127.538C214.641 145.861 208.474 168.952 206.507 170.915C234.685 170.915 250.848 172.551 257.073 172.551C265.692 172.551 274.951 190.547 263.483 202.981C273.64 211.16 274.46 221.467 263.483 232.429C270.364 241.917 262.173 255.333 252.345 257.95C259.225 268.421 249.724 281.509 232.359 281.509H159.625C152.745 281.509 141.605 272.019 141.605 272.019V192.838Z" fill="#33907C"/>
<path fill-rule="evenodd" clip-rule="evenodd" d="M204.89 129.758C209.456 146.999 203.727 168.727 201.9 170.574C203.563 170.574 205.178 170.58 206.751 170.591C208.929 167.194 214.454 145.165 209.726 127.538C204.951 109.732 179.447 109.724 177.162 117.258C183.878 113.432 201.167 115.695 204.89 129.758Z" fill="#EDEDED"/>
<path fill-rule="evenodd" clip-rule="evenodd" d="M263.484 202.981C274.95 190.547 265.692 172.551 257.073 172.551C255.471 172.551 253.199 172.442 250.247 172.281C257.802 174.035 264.877 189.715 254.832 200.747C264.268 208.443 265.028 218.141 254.832 228.455C261.223 237.384 253.615 250.008 244.483 252.47C250.874 262.323 242.048 281.509 225.916 281.509H232.359C249.724 281.509 259.226 268.421 252.345 257.95C262.173 255.333 270.364 241.917 263.484 232.429C274.46 221.467 273.64 211.16 263.484 202.981Z" fill="#EDEDED"/>
<path fill-rule="evenodd" clip-rule="evenodd" d="M252.403 286H254.693V176.794H252.403V286Z" fill="#545454"/>
<path fill-rule="evenodd" clip-rule="evenodd" d="M218.433 286H220.723V176.794H218.433V286Z" fill="#545454"/>
<path fill-rule="evenodd" clip-rule="evenodd" d="M219.578 275.804H252.975V272.945H219.578V275.804Z" fill="#545454"/>
<path fill-rule="evenodd" clip-rule="evenodd" d="M219.578 258.27H252.975V255.411H219.578V258.27Z" fill="#545454"/>
<path fill-rule="evenodd" clip-rule="evenodd" d="M219.578 240.736H252.975V237.877H219.578V240.736Z" fill="#545454"/>
<path fill-rule="evenodd" clip-rule="evenodd" d="M219.578 223.202H252.975V220.343H219.578V223.202Z" fill="#545454"/>
<path fill-rule="evenodd" clip-rule="evenodd" d="M219.578 205.668H252.975V202.809H219.578V205.668Z" fill="#545454"/>
<path fill-rule="evenodd" clip-rule="evenodd" d="M219.578 188.134H252.975V185.275H219.578V188.134Z" fill="#545454"/>
<path opacity="0.4" fill-rule="evenodd" clip-rule="evenodd" d="M146.52 284.125H32.1259V274.863L136.472 186.621H146.52V284.125Z" fill="#33907C"/>
<path opacity="0.4" fill-rule="evenodd" clip-rule="evenodd" d="M136.472 284.125V186.621C136.472 186.621 69.2509 184.354 42.8624 228.274C29.8853 249.873 32.1257 284.125 32.1257 284.125H136.472Z" fill="#33907C"/>
<path fill-rule="evenodd" clip-rule="evenodd" d="M121.88 184.72C121.88 184.72 120.453 184.38 119.403 184.483C118.352 184.585 114.602 184.864 113.272 187.861C112.903 188.721 114.481 189.092 115.864 188.351C117.248 187.611 118.412 187.666 119.313 187.787C120.214 187.909 121 187.585 121.636 187.327C122.272 187.068 121.88 184.72 121.88 184.72Z" fill="#FFD4D6"/>
<path fill-rule="evenodd" clip-rule="evenodd" d="M141.305 181.706C141.305 181.706 139.301 183.365 134.72 182.996C130.14 182.628 122.761 183.867 121.107 184.312C121.425 186.345 121.616 187.806 121.616 187.806C121.616 187.806 129.558 186.917 133.188 187.235C136.819 187.552 144.857 189.007 144.93 186.726C144.98 185.136 142.672 182.375 141.305 181.706Z" fill="#4E65C6"/>
<path fill-rule="evenodd" clip-rule="evenodd" d="M129.58 181.446C129.58 181.446 130.903 180.813 131.951 180.691C132.999 180.569 136.724 180.046 138.661 182.692C139.203 183.455 137.739 184.152 136.231 183.72C134.722 183.29 133.597 183.591 132.741 183.9C131.886 184.209 131.05 184.06 130.373 183.942C129.697 183.824 129.58 181.446 129.58 181.446Z" fill="#FFD4D6"/>
<path fill-rule="evenodd" clip-rule="evenodd" d="M111.532 182.325C111.532 182.325 112.269 183.813 116.667 182.483C121.064 181.151 128.538 180.799 130.25 180.883C130.371 182.938 130.495 184.407 130.495 184.407C130.495 184.407 122.544 185.221 119.064 186.3C115.583 187.378 109.67 190.197 109.114 187.984C108.728 186.441 110.34 183.268 111.532 182.325Z" fill="#4E65C6"/>
<path fill-rule="evenodd" clip-rule="evenodd" d="M82.4617 212.995C82.4617 212.995 82.8121 214.202 82.7167 215.091C82.6212 215.981 82.367 219.158 79.377 220.301C78.5182 220.618 78.1357 219.285 78.8678 218.11C79.5991 216.934 79.5357 215.949 79.4083 215.187C79.2815 214.424 79.5999 213.757 79.8541 213.218C80.1083 212.678 82.4617 212.995 82.4617 212.995Z" fill="#FFD4D6"/>
<path fill-rule="evenodd" clip-rule="evenodd" d="M103.36 160.238C103.36 160.238 106.357 163.815 107.114 169.72C107.867 175.626 111.167 187.026 107.191 185.068C100.524 181.785 94.5845 183.355 91.2479 183.23C84.5746 182.98 86.0013 183.116 86.3601 180.498C86.7227 177.882 89.9341 165.453 91.7486 162.991C93.5616 160.533 98.4471 155.883 103.36 160.238Z" fill="#282828"/>
<path fill-rule="evenodd" clip-rule="evenodd" d="M108.393 278.856C108.393 278.856 110.815 281.494 111.626 283.256C112.437 285.02 116.376 288.338 116.948 289.338C117.521 290.339 116.615 291.149 115.852 291.101C115.088 291.053 110.019 290.348 106.461 287.033C106.461 287.33 106.426 288.22 106.426 288.22L105.376 288.188C105.376 288.188 104.234 279.142 105.415 278.856C106.596 278.57 108.393 278.856 108.393 278.856Z" fill="#444444"/>
<path fill-rule="evenodd" clip-rule="evenodd" d="M95.2494 277.392L92.712 277.188C92.712 277.188 92.6715 277.206 92.5983 277.244C92.2494 277.428 91.6387 278.489 90.8479 279.897C89.8937 281.597 87.9883 288.051 88.2746 288.766C88.5609 289.481 89.7952 291.482 90.9677 291.816C92.1395 292.149 94.1983 290.244 94.9616 289.196C95.725 288.147 95.8952 279.491 95.2494 277.392Z" fill="#444444"/>
<path fill-rule="evenodd" clip-rule="evenodd" d="M107.884 275.044C107.884 275.044 109.362 280.237 110.317 281.429C111.271 282.62 108.647 284.526 106.977 283.764C105.307 283.002 105.594 278.951 105.212 277.189C104.83 275.425 107.884 275.044 107.884 275.044Z" fill="#FFD4D6"/>
<path fill-rule="evenodd" clip-rule="evenodd" d="M92.521 274.33C92.521 274.33 92.1394 278.189 91.7104 279.094C91.2806 279.999 90.2783 281.143 91.7104 281.953C93.1409 282.763 95.5745 282.525 95.2409 280.094C94.9065 277.665 95.7172 275.044 95.7172 275.044L92.521 274.33Z" fill="#FFD4D6"/>
<path fill-rule="evenodd" clip-rule="evenodd" d="M108.393 220.079C108.393 220.079 102.158 248.414 100.25 252.098C98.3417 255.782 96.4333 275.985 96.4333 275.985L90.7081 275.096C90.7081 275.096 93.2531 250.954 95.9249 241.298C98.5966 231.642 95.2882 220.079 95.2882 220.079H108.393Z" fill="#2C4199"/>
<path fill-rule="evenodd" clip-rule="evenodd" d="M87.5279 220.079C87.5279 220.079 87.7821 224.017 89.9447 229.481C92.108 234.944 98.5966 250.954 99.105 252.86C99.4867 259.212 102.668 273.954 104.576 278.147C107.884 277.512 108.902 276.241 108.902 276.241C108.902 276.241 105.975 254.387 105.212 250.956C104.449 247.525 97.4752 220.715 97.4752 220.715L87.5279 220.079Z" fill="#3446AD"/>
<path fill-rule="evenodd" clip-rule="evenodd" d="M106.452 204.003V194.283C106.452 194.283 110.365 201.24 110.746 202.097C111.128 202.955 106.452 204.003 106.452 204.003ZM117.235 202.955C115.708 198.571 108.766 184.805 107.407 183.728C106.048 182.651 97.7378 180.303 97.7378 180.303C91.6935 179.187 85.5607 182.702 84.2248 184.344C82.889 185.986 74.86 191.919 73.1905 198.161C72.5706 200.477 79.5836 207.024 78.4218 214.075L83.0661 213.313C82.7615 213.019 82.9317 208.041 81.7783 204.546C80.6592 201.159 78.9981 197.761 79.3768 197.336C79.9783 196.66 87.1371 191.554 87.1371 191.554C87.2012 193.46 86.3607 202.764 86.3607 202.764L85.8416 208.577C85.8416 208.577 86.0325 210.674 83.8378 220.012C96.147 224.777 111.319 220.679 111.319 220.012C111.319 219.345 107.979 210.102 107.979 210.102C107.979 210.102 118.761 207.338 117.235 202.955Z" fill="#FFEB75"/>
<path fill-rule="evenodd" clip-rule="evenodd" d="M91.7234 170.114C91.7234 170.114 91.3653 168.566 90.3218 168.793C89.2799 169.02 90.747 174.756 91.6188 172.836C91.9875 170.969 91.7234 170.114 91.7234 170.114Z" fill="#FFD4D6"/>
<path fill-rule="evenodd" clip-rule="evenodd" d="M100.586 167.922C100.586 167.922 103.985 175.388 101.458 177.333C99.3932 178.922 97.4443 179.774 95.8413 179.417C94.2398 179.063 92.6764 176.929 91.9634 174.926C91.2504 172.925 91.7726 169.078 92.1199 167.643C92.4657 166.206 95.7016 160.138 101.682 161.933C106.436 163.356 100.586 167.922 100.586 167.922Z" fill="#FFD4D6"/>
<path fill-rule="evenodd" clip-rule="evenodd" d="M97.0192 162.901C97.0192 162.901 93.5704 167.653 91.6711 169.662C91.5551 169.368 90.8391 169.434 91.5788 166.669C92.3169 163.902 97.1207 159.765 101.901 160.947C106.682 162.13 106.035 169.601 104.592 172.496C103.588 171.394 96.8956 163.957 97.0192 162.901Z" fill="#282828"/>
<path fill-rule="evenodd" clip-rule="evenodd" d="M99.3943 178.182C99.3943 178.182 98.9378 180.424 100.238 182.576C97.8454 183.865 96.6706 183.935 95.0423 183.452C93.4126 182.965 91.7385 180.829 91.7385 180.829C91.7385 180.829 93.4706 179.552 93.6454 176.909C95.2332 176.642 99.3943 178.182 99.3943 178.182Z" fill="#FFD4D6"/>
<path fill-rule="evenodd" clip-rule="evenodd" d="M101.769 178.086C101.769 178.086 100.878 189.267 96.425 192.253C103.231 192.698 109.182 186.875 109.069 183.727C108.954 180.58 101.769 178.086 101.769 178.086Z" fill="#282828"/>
<path fill-rule="evenodd" clip-rule="evenodd" d="M294.924 197.329C294.924 197.329 295.216 196.598 295.267 195.319C295.32 194.042 297.201 192.62 298.06 192.076C298.921 191.532 302.061 190.527 302.118 190.785C302.176 191.044 303.679 191.792 302.476 193.934C301.735 195.255 298.015 197.587 297.735 198.825C297.453 200.064 294.924 197.329 294.924 197.329Z" fill="#FFD4D6"/>
<path fill-rule="evenodd" clip-rule="evenodd" d="M270.402 193.81C270.402 193.81 264.614 191.528 264.699 195.742C264.785 199.957 278.337 210.709 281.572 212.444C284.808 214.182 295.717 203.184 297.617 200.952C299.106 198.491 295.779 196.139 294.081 196.557C292.382 196.978 283.666 204.848 282.872 204.591C282.079 204.332 275.897 196.095 270.402 193.81Z" fill="#864596"/>
<path fill-rule="evenodd" clip-rule="evenodd" d="M270.327 276.956C270.327 276.956 270 281.959 270.861 283.11C271.722 284.259 283.28 283.557 285.458 283.791C287.636 284.028 289.751 280.861 286.89 280.448C284.025 280.035 274.373 278.486 273.856 276.044C273.341 273.603 270.327 276.956 270.327 276.956Z" fill="#333333"/>
<path fill-rule="evenodd" clip-rule="evenodd" d="M267.295 244.664C267.295 244.664 262.367 244.035 261.175 244.815C259.984 245.594 259.973 257.043 259.607 259.179C259.242 261.314 262.247 263.597 262.829 260.796C263.413 257.993 265.534 248.562 267.982 248.202C270.429 247.842 267.295 244.664 267.295 244.664Z" fill="#333333"/>
<path fill-rule="evenodd" clip-rule="evenodd" d="M283.921 219.918C283.921 219.918 295.423 236.176 295.888 239.394C296.355 242.612 297.918 246.665 267.126 249.614C266.514 246.771 266.643 244.103 266.643 244.103C266.643 244.103 283.341 239.626 286.858 239.788C281.409 231.849 273.273 227.04 272.08 225.94C270.888 224.842 274.757 218.695 274.757 218.695L283.921 219.918Z" fill="#246642"/>
<path fill-rule="evenodd" clip-rule="evenodd" d="M264.718 223.461C264.718 223.461 270.003 240.126 270.697 245.126C270.419 252.348 268.89 272.475 269.307 277.202H275.704C275.704 277.202 277.913 257.01 278.61 253.26C279.304 249.511 280.131 241.449 279.271 234.746C278.217 226.525 277.733 220.676 277.733 220.676L264.718 223.461Z" fill="#2F8C57"/>
<path fill-rule="evenodd" clip-rule="evenodd" d="M277.228 169.916C277.228 169.916 273.664 174.128 273.594 174.221C273.525 174.314 278.348 182.623 278.348 182.623C278.348 182.623 279.598 180.192 280.57 179.081C281.545 177.97 277.228 169.916 277.228 169.916Z" fill="#FFD4D6"/>
<path fill-rule="evenodd" clip-rule="evenodd" d="M292.028 167.795C292.028 167.795 291.808 171.512 290.954 172.911C290.101 174.309 290.978 175.622 291.118 176.61C291.256 177.6 290.06 177.38 289.022 176.903C287.673 178.644 286.192 181.915 282.765 181.304C279.339 180.696 275.861 174.702 277.771 171.41C278.489 168.478 282.356 163.635 282.356 163.635L292.028 167.795Z" fill="#FFD4D6"/>
<path fill-rule="evenodd" clip-rule="evenodd" d="M285.597 164.036C285.597 164.036 284.194 167.335 282.68 167.623C281.166 167.912 280.506 170.409 280.506 170.409L279.267 169.883C279.267 169.883 277.363 169.152 277.064 170.585C276.768 172.015 274.717 172.907 274.717 172.907C274.717 172.907 274.364 164.747 277.459 162.454C280.551 160.161 285.597 164.036 285.597 164.036Z" fill="#703518"/>
<path fill-rule="evenodd" clip-rule="evenodd" d="M292.112 170.399L269.422 164.527C269.422 164.527 268.158 162.523 270.829 163.106C273.497 163.689 275.676 164.219 275.676 164.219C275.676 164.219 278.165 158.393 281.536 157.903C284.906 157.413 293.704 157.994 292.112 170.399Z" fill="#7F3C8F"/>
<path fill-rule="evenodd" clip-rule="evenodd" d="M278.396 180.633C278.396 180.633 282.042 182.712 282.98 188.684C283.918 194.657 284.526 207.916 284.98 211.163C285.433 214.41 287.57 225.158 287.57 225.158C287.57 225.158 269.433 227.182 263.832 228.385C261.952 220.435 259.983 203.434 260.962 196.37C261.944 189.3 263.212 186.576 264.755 185.014C263.7 179.68 265.64 169.845 268.808 167.308C271.006 168.941 278.396 180.633 278.396 180.633Z" fill="#C075D2"/>
<path fill-rule="evenodd" clip-rule="evenodd" d="M279.92 168.629C279.92 168.629 279.53 166.201 277.672 166.613C275.814 167.027 277.23 173.089 278.472 172.347C279.714 171.604 279.92 168.629 279.92 168.629Z" fill="#FFD4D6"/>
<path fill-rule="evenodd" clip-rule="evenodd" d="M272.163 189.546C272.163 189.546 273.399 183.455 269.258 184.278C265.118 185.099 256.894 200.307 255.748 203.792C254.604 207.278 267.358 216.079 269.89 217.557C272.578 218.588 274.314 214.906 273.601 213.308C272.891 211.712 263.604 204.521 263.72 203.695C263.836 202.87 270.872 195.348 272.163 189.546Z" fill="#864596"/>
<path fill-rule="evenodd" clip-rule="evenodd" d="M306.119 187.433L305.721 187.001L296.083 195.198L296.482 195.629L298.547 197.035L306.119 187.433Z" fill="#E0E0E0"/>
<path fill-rule="evenodd" clip-rule="evenodd" d="M305.721 187.001L303.202 185.998L296.083 195.198L298.148 196.603L305.721 187.001Z" fill="#FCFCFC"/>
<path fill-rule="evenodd" clip-rule="evenodd" d="M297.689 192.324C297.689 192.324 299.068 191.178 299.733 191.191C300.398 191.204 299.911 192.053 299.148 192.404C298.386 192.756 297.408 193.484 297.209 193.741C297.009 193.999 297.689 192.324 297.689 192.324Z" fill="#FAB490"/>
<path fill-rule="evenodd" clip-rule="evenodd" d="M302.765 191.687C302.765 191.687 301.806 190.981 301.288 191.324C300.77 191.668 301.312 191.879 301.312 191.879C301.312 191.879 300.552 191.963 300.609 192.438C300.661 192.627 300.877 192.676 300.877 192.676C300.877 192.676 300.283 192.85 300.159 193.118C300.036 193.387 300.193 193.523 300.377 193.535C299.937 193.729 299.838 194.21 300.23 194.308C300.618 194.407 301.317 194.16 301.89 193.679C302.465 193.198 303.208 192.17 302.765 191.687Z" fill="#FFD4D6"/>
<path fill-rule="evenodd" clip-rule="evenodd" d="M50.3373 227.13C50.3373 227.13 55.0182 228.179 62.5502 225.077C67.3838 221.04 65.8815 215.53 65.8815 215.53L43.9327 214.711L50.3373 227.13Z" fill="#5B4199"/>
<path fill-rule="evenodd" clip-rule="evenodd" d="M57.0189 286.022L60.8769 286.142C60.8563 284.101 60.9372 281.294 60.9372 281.294C60.9372 281.294 57.3883 280.396 57.4128 281.94C57.4265 282.82 57.2418 284.539 57.0189 286.022Z" fill="#FFD4D6"/>
<path fill-rule="evenodd" clip-rule="evenodd" d="M56.9093 282.189C56.9093 282.189 57.136 277.466 56.3642 271.57C55.5932 265.675 53.8719 249.043 58.0658 246.863C62.2604 244.683 63.768 252.042 63.4971 256.85C63.2253 261.658 61.7177 281.758 61.7177 281.758C61.7177 281.758 60.2627 282.984 56.9093 282.189Z" fill="#5B4199"/>
<path fill-rule="evenodd" clip-rule="evenodd" d="M66.3678 214.774C66.3678 214.774 66.1938 248.529 63.4488 251.426C59.7755 255.3 55.8312 251.825 55.8312 251.825C55.8312 251.825 55.0625 231.185 54.5839 227.899C54.1068 224.611 64.3251 214.751 66.3678 214.774Z" fill="#5B4199"/>
<path fill-rule="evenodd" clip-rule="evenodd" d="M61.7653 286.38C61.7653 286.38 61.7775 284.327 59.0134 283.987C56.3126 283.649 55.4095 286.099 55.5447 287.884C55.6798 289.668 58.8256 288.812 60.2225 288.919C61.6195 289.026 62.65 288.456 61.7653 286.38Z" fill="#333333"/>
<path fill-rule="evenodd" clip-rule="evenodd" d="M48.5116 285.759L44.6536 285.639C44.801 283.604 44.8948 280.797 44.8948 280.797C44.8948 280.797 48.4926 280.12 48.3719 281.659C48.3048 282.536 48.3819 284.263 48.5116 285.759Z" fill="#FFD4D6"/>
<path fill-rule="evenodd" clip-rule="evenodd" d="M48.8597 281.94C48.8597 281.94 48.9269 277.212 50.0628 271.375C51.1979 265.539 53.9498 249.047 49.8994 246.61C45.849 244.174 43.8864 251.426 43.8582 256.241C43.8307 261.056 44.0872 281.211 44.0872 281.211C44.0872 281.211 45.4635 282.526 48.8597 281.94Z" fill="#5B4199"/>
<path fill-rule="evenodd" clip-rule="evenodd" d="M43.6072 214.068C43.6072 214.068 41.6835 247.769 44.2438 250.83C47.6683 254.925 51.8217 251.7 51.8217 251.7C51.8217 251.7 53.8713 231.149 54.553 227.898C55.2332 224.646 45.6477 214.171 43.6072 214.068Z" fill="#5B4199"/>
<path fill-rule="evenodd" clip-rule="evenodd" d="M43.7526 285.821C43.7526 285.821 43.8678 283.771 46.648 283.604C49.364 283.434 50.1136 285.935 49.8678 287.708C49.6213 289.481 46.5358 288.431 45.135 288.451C43.7342 288.471 42.7403 287.839 43.7526 285.821Z" fill="#333333"/>
<path fill-rule="evenodd" clip-rule="evenodd" d="M54.0325 186.754C54.0325 186.754 50.686 186.716 48.5898 187.432C46.218 188.241 45.318 189.096 44.7211 189.372C44.886 190.001 45.8989 195.289 45.4829 197.628C45.0669 199.965 40.8264 226.241 40.8264 226.241L69.3791 231.958L67.5562 199.095C67.5562 199.095 68.0684 192.101 69.3791 190.136C68.4791 188.325 61.5806 187.115 60.4684 186.954C59.3562 186.792 54.0325 186.754 54.0325 186.754Z" fill="#F68B50"/>
<path fill-rule="evenodd" clip-rule="evenodd" d="M50.8942 190.396L51.4888 191.7L52.9018 191.95L51.843 192.919L52.0423 194.337L50.7934 193.63L49.5033 194.258L49.7896 192.855L48.7934 191.823L50.2194 191.66L50.8942 190.396Z" fill="#FFF3B8"/>
<path fill-rule="evenodd" clip-rule="evenodd" d="M60.8446 193.869L60.7774 194.74L61.4583 195.288L60.6072 195.494L60.295 196.309L59.8377 195.566L58.9637 195.521L59.5301 194.856L59.3026 194.012L60.1118 194.346L60.8446 193.869Z" fill="#FFF3B8"/>
<path fill-rule="evenodd" clip-rule="evenodd" d="M54.6728 201.394L55.2408 202.057L56.111 201.965L55.6553 202.711L56.0118 203.507L55.1614 203.304L54.5118 203.89L54.4415 203.02L53.6835 202.584L54.4919 202.248L54.6728 201.394Z" fill="#FFF3B8"/>
<path fill-rule="evenodd" clip-rule="evenodd" d="M49.5776 197.567L50.0104 198.073L50.673 198.002L50.3257 198.57L50.5974 199.178L49.9493 199.023L49.4555 199.468L49.402 198.806L48.8257 198.474L49.4402 198.218L49.5776 197.567Z" fill="#FFF3B8"/>
<path fill-rule="evenodd" clip-rule="evenodd" d="M65.1236 204.745L64.7351 205.915L65.4793 206.894L64.248 206.889L63.5427 207.898L63.1694 206.724L61.9908 206.368L62.99 205.65L62.9671 204.421L63.9602 205.15L65.1236 204.745Z" fill="#FFF3B8"/>
<path fill-rule="evenodd" clip-rule="evenodd" d="M65.0908 190.114L64.8686 190.783L65.2946 191.345L64.5892 191.341L64.1854 191.919L63.9717 191.246L63.2969 191.044L63.8686 190.633L63.8564 189.928L64.4244 190.346L65.0908 190.114Z" fill="#FFF3B8"/>
<path fill-rule="evenodd" clip-rule="evenodd" d="M50.4863 203.807L50.1466 204.833L50.7993 205.691L49.7184 205.686L49.1016 206.571L48.7741 205.542L47.7405 205.23L48.6169 204.6L48.5963 203.522L49.4665 204.162L50.4863 203.807Z" fill="#FFF3B8"/>
<path fill-rule="evenodd" clip-rule="evenodd" d="M63.3964 198.611L63.0567 199.636L63.7094 200.495L62.6284 200.489L62.0116 201.374L61.6842 200.345L60.6506 200.033L61.5269 199.405L61.5063 198.326L62.3765 198.966L63.3964 198.611Z" fill="#FFF3B8"/>
<path fill-rule="evenodd" clip-rule="evenodd" d="M65.547 214.273L64.1554 214.624L63.6547 215.967L62.8913 214.753L61.4585 214.693L62.3791 213.593L61.9921 212.213L63.3234 212.746L64.518 211.953L64.4219 213.384L65.547 214.273Z" fill="#FFF3B8"/>
<path fill-rule="evenodd" clip-rule="evenodd" d="M60.337 223.425L59.4919 223.203L58.8286 223.773L58.7789 222.901L58.0316 222.447L58.8476 222.131L59.0476 221.281L59.6011 221.957L60.4728 221.884L59.9996 222.619L60.337 223.425Z" fill="#FFF3B8"/>
<path fill-rule="evenodd" clip-rule="evenodd" d="M54.034 216.009L53.279 216.449L53.2134 217.32L52.5599 216.738L51.7111 216.946L52.0645 216.147L51.6035 215.403L52.4737 215.49L53.0401 214.824L53.2241 215.678L54.034 216.009Z" fill="#FFF3B8"/>
<path fill-rule="evenodd" clip-rule="evenodd" d="M58.7192 211.691L58.1421 212.026L58.0941 212.69L57.5956 212.247L56.949 212.404L57.2177 211.796L56.8681 211.23L57.5299 211.296L57.9612 210.789L58.1017 211.44L58.7192 211.691Z" fill="#FFF3B8"/>
<path fill-rule="evenodd" clip-rule="evenodd" d="M48.8545 225.673L47.7721 225.083L46.6744 225.638L46.9003 224.428L46.0339 223.555L47.2561 223.399L47.8194 222.304L48.3461 223.415L49.5622 223.614L48.6645 224.457L48.8545 225.673Z" fill="#FFF3B8"/>
<path fill-rule="evenodd" clip-rule="evenodd" d="M63.2726 228.271L62.6535 227.933L62.0238 228.25L62.1535 227.558L61.6573 227.057L62.3581 226.968L62.6795 226.342L62.9818 226.978L63.6772 227.092L63.1635 227.575L63.2726 228.271Z" fill="#FFF3B8"/>
<path fill-rule="evenodd" clip-rule="evenodd" d="M52.4089 211.463L51.4608 210.944L50.4974 211.432L50.6966 210.37L49.9363 209.605L51.0081 209.469L51.5012 208.51L51.9638 209.483L53.0295 209.658L52.2432 210.397L52.4089 211.463Z" fill="#FFF3B8"/>
<path fill-rule="evenodd" clip-rule="evenodd" d="M55.2074 225.08L54.2585 224.562L53.2951 225.048L53.4951 223.988L52.7341 223.222L53.8066 223.086L54.2997 222.127L54.7616 223.099L55.8272 223.274L55.0409 224.014L55.2074 225.08Z" fill="#FFF3B8"/>
<path fill-rule="evenodd" clip-rule="evenodd" d="M55.4653 167.387C55.4653 167.387 52.7607 166.249 50.7645 171.295C48.7684 176.338 45.26 184.299 48.7271 186.366C52.1936 188.431 58.2821 188.18 61.3241 188.176C64.3638 188.173 66.3035 187.302 66.5745 184.91C66.8439 182.519 66.1462 175.003 65.0989 172.424C64.0508 169.845 61.8829 166.226 55.4653 167.387Z" fill="#703518"/>
<path fill-rule="evenodd" clip-rule="evenodd" d="M63.5179 178.718C63.5179 178.718 64.1835 177.432 65.053 177.867C65.9225 178.302 63.3355 183.037 62.995 181.146C63.0912 179.414 63.5179 178.718 63.5179 178.718Z" fill="#FFD4D6"/>
<path fill-rule="evenodd" clip-rule="evenodd" d="M51.8714 178.357C51.8714 178.357 51.2851 177.032 50.3912 177.412C49.4973 177.793 51.7859 182.678 52.2416 180.812C52.2523 179.079 51.8714 178.357 51.8714 178.357Z" fill="#FFD4D6"/>
<path fill-rule="evenodd" clip-rule="evenodd" d="M51.9511 176.498C51.9511 176.498 51.5038 180.622 53.2977 182.907C54.7626 184.773 56.2916 185.962 57.7863 186.009C59.2802 186.055 61.1427 184.521 62.2229 182.914C63.3023 181.307 63.7061 177.793 63.7244 176.447C63.7405 175.1 62.2519 169.017 56.5664 169.258C52.0473 169.448 51.9511 176.498 51.9511 176.498Z" fill="#FFD4D6"/>
<path fill-rule="evenodd" clip-rule="evenodd" d="M54.9957 171.645C54.9957 171.645 59.314 176.383 63.6659 178.33C63.8339 178.098 64.4507 178.318 64.4216 175.709C64.3919 173.1 61.082 168.368 56.5949 168.34C52.1079 168.311 50.9965 175.052 51.6186 177.932C52.7522 177.184 54.8675 172.609 54.9957 171.645Z" fill="#703518"/>
<path fill-rule="evenodd" clip-rule="evenodd" d="M49.1452 175.409C49.1452 175.409 57.9147 171.85 66.0368 176.477C66.0933 170.272 64.5109 166.218 57.8925 165.823C51.2735 165.426 48.9994 171.341 49.1452 175.409Z" fill="#5B4199"/>
<path fill-rule="evenodd" clip-rule="evenodd" d="M48.7486 176.498C48.7486 176.498 48.0219 175.193 49.1609 174.18C50.2998 173.166 59.6815 171.166 66.0204 175.13C66.9059 176.399 66.2234 177.817 66.2234 177.817C66.2234 177.817 63.1754 175.341 57.6089 174.966C52.5738 174.627 49.9967 175.77 48.7486 176.498Z" fill="white"/>
<path fill-rule="evenodd" clip-rule="evenodd" d="M54.9271 184.12C54.9271 184.12 54.8264 186.202 53.1935 187.809C55.0164 189.486 56.0371 189.812 57.5836 189.75C59.1317 189.688 61.092 188.176 61.092 188.176C61.092 188.176 59.8493 186.66 60.2905 184.287C58.95 183.694 54.9271 184.12 54.9271 184.12Z" fill="#FFD4D6"/>
<path fill-rule="evenodd" clip-rule="evenodd" d="M82.8456 160.265C82.8456 160.265 83.1105 159.028 83.1937 158.153C83.2769 157.28 82.6311 156.245 83.0288 154.366C83.4265 152.487 84.1318 151.632 84.57 152.107C85.0074 152.581 84.5357 153.213 84.5036 154.227C85.9433 151.596 86.4998 150.045 87.7631 149.438C88.2257 149.13 90.6555 150.127 89.1273 153.794C87.5998 157.46 85.8143 159.399 85.5158 160.774C84.1448 161.216 82.8456 160.265 82.8456 160.265Z" fill="#FFD4D6"/>
<path fill-rule="evenodd" clip-rule="evenodd" d="M64.3223 187.744C64.3223 187.744 70.6658 184.242 73.8413 178.17C77.0169 172.099 81.8139 159.088 81.8139 159.088L86.8772 160.122C86.8772 160.122 82.3986 174.206 80.3039 179.4C78.2093 184.594 69.607 193.887 67.7925 196.64C65.978 199.392 64.3223 187.744 64.3223 187.744Z" fill="#F68B50"/>
<path fill-rule="evenodd" clip-rule="evenodd" d="M33.1125 158.723C33.1125 158.723 32.9247 157.471 32.8957 156.593C32.8667 155.717 33.5758 154.723 33.2957 152.824C33.0155 150.924 32.3652 150.027 31.898 150.474C31.4316 150.921 31.8636 151.58 31.8316 152.593C30.559 149.879 30.0995 148.296 28.8758 147.612C28.4339 147.276 25.9461 148.121 27.2438 151.875C28.5423 155.628 30.2026 157.675 30.4155 159.066C31.7568 159.592 33.1125 158.723 33.1125 158.723Z" fill="#FFD4D6"/>
<path fill-rule="evenodd" clip-rule="evenodd" d="M49.8922 187.297C49.8922 187.297 43.7785 183.408 40.9861 177.151C38.1937 170.894 34.2151 157.612 34.2151 157.612L29.0968 158.33C29.0968 158.33 32.6922 172.665 34.4602 177.977C36.2273 183.292 44.2365 193.1 45.8754 195.96C47.5159 198.82 49.8922 187.297 49.8922 187.297Z" fill="#F68B50"/>
<path fill-rule="evenodd" clip-rule="evenodd" d="M241.111 149.51C241.111 149.51 246.186 147.974 247.488 147.788C248.788 147.604 251.297 150.765 251.28 151.097C251.264 151.43 248.527 152.001 248.527 152.001C248.527 152.001 247.164 150.934 246.453 150.983C245.743 151.03 245.679 152.317 244.371 151.794C243.065 151.271 241.396 152.146 241.396 152.146L241.111 149.51Z" fill="#FFD4D6"/>
<path fill-rule="evenodd" clip-rule="evenodd" d="M253.743 166.55C253.743 166.55 249.523 163.573 248.639 163.215C247.757 162.859 239.749 166.613 239.749 166.613L245.89 168.941L253.743 166.55Z" fill="#444444"/>
<path fill-rule="evenodd" clip-rule="evenodd" d="M260.4 169.288C260.4 169.288 250.642 163.785 246.608 165.232C242.575 166.678 245.293 169.897 247.703 170.998C251.071 172.537 258.036 174.197 259.616 173.443C262.143 172.235 262.311 170.288 260.4 169.288Z" fill="#3C3D3F"/>
<path fill-rule="evenodd" clip-rule="evenodd" d="M224.797 159.174C224.797 159.174 254.604 149.817 260.088 150.088C265.572 150.36 264.055 156.581 261.788 159.011C259.522 161.444 241.629 168.187 234.088 171.429C226.546 174.67 208.655 175.791 213.615 162.377C220.033 154.661 224.797 159.174 224.797 159.174Z" fill="#6D6D6D"/>
<path fill-rule="evenodd" clip-rule="evenodd" d="M233.766 118.582C233.766 118.582 231.716 122.028 230.757 123.79C230.416 126.585 235.119 129.832 235.119 129.832C235.119 129.832 237.527 126.207 238.72 124.564C240.15 122.594 238.406 114.259 233.766 118.582Z" fill="#FFD4D6"/>
<path fill-rule="evenodd" clip-rule="evenodd" d="M234.931 126.742C234.931 126.742 237.711 129.113 237.538 134.372C237.366 139.629 235.724 151.065 235.583 153.917C235.44 156.766 235.896 155.822 235.896 155.822C235.896 155.822 218.599 162.26 213.615 162.377C208.348 158.635 212.671 147.242 214.661 141.36C216.654 135.477 220.982 129.354 222.555 128.27C222.521 123.536 225.786 115.444 228.908 113.791C230.52 115.544 234.931 126.742 234.931 126.742Z" fill="#6CBA39"/>
<path fill-rule="evenodd" clip-rule="evenodd" d="M226.207 149.261C226.207 149.261 228.764 138.024 228.19 135.678C227.614 133.331 224.167 130.548 221.791 133.868C219.416 137.188 219.177 152.136 219.984 155.209C220.787 158.283 224.299 158.265 230.466 156.992C236.636 155.718 241.196 154.065 242.445 152.489C242.354 150.151 241.653 148.693 241.653 148.693C241.653 148.693 229.952 149.729 226.528 151.27C226.044 150.205 226.207 149.261 226.207 149.261Z" fill="#A2D680"/>
<path fill-rule="evenodd" clip-rule="evenodd" d="M271.004 130.202C270.779 130.051 270.451 130.143 270.272 130.408L258.328 148.148C258.147 148.414 258.187 148.751 258.411 148.901L258.623 149.044C258.847 149.195 259.176 149.102 259.354 148.837L271.298 131.099C271.479 130.832 271.438 130.495 271.215 130.343L271.004 130.202Z" fill="#EAEAEA"/>
<path fill-rule="evenodd" clip-rule="evenodd" d="M259.68 149.225C259.614 148.964 259.294 148.819 258.965 148.903L237.05 154.463C236.721 154.546 236.509 154.828 236.575 155.088L236.638 155.337C236.707 155.598 237.025 155.744 237.353 155.661L259.269 150.1C259.598 150.017 259.81 149.735 259.744 149.474L259.68 149.225Z" fill="#EAEAEA"/>
<path fill-rule="evenodd" clip-rule="evenodd" d="M242.059 117.733C242.059 117.733 242.744 116.298 243.715 116.746C244.686 117.193 242.005 122.479 241.568 120.413C241.615 118.511 242.059 117.733 242.059 117.733Z" fill="#FFD4D6"/>
<path fill-rule="evenodd" clip-rule="evenodd" d="M229.261 117.733C229.261 117.733 228.575 116.298 227.604 116.746C226.635 117.193 229.313 122.479 229.753 120.413C229.703 118.511 229.261 117.733 229.261 117.733Z" fill="#FFD4D6"/>
<path fill-rule="evenodd" clip-rule="evenodd" d="M229.286 115.688C229.286 115.688 228.936 120.232 230.983 122.678C232.654 124.677 234.373 125.931 236.016 125.931C237.658 125.931 239.651 124.183 240.781 122.382C241.911 120.581 242.235 116.71 242.207 115.231C242.181 113.752 240.339 107.125 234.104 107.582C229.152 107.946 229.286 115.688 229.286 115.688Z" fill="#FFD4D6"/>
<path fill-rule="evenodd" clip-rule="evenodd" d="M231.036 110.471C231.036 110.471 232.217 111.53 236.812 112.883C236.519 112.235 235.737 111 235.737 111C235.737 111 237.52 112.883 239.465 113.472C239.347 113.178 238.876 112.646 238.7 111.972C239.878 113.118 240.689 113.318 241.293 113.472C241.895 113.626 241.479 114.734 241.822 115.65C242.166 116.565 241.637 118.386 241.568 118.915C242.646 117.209 242.888 116.872 243.591 116.702C244.298 116.533 247.528 108.306 240.161 105.128C234.142 102.532 232.097 105.029 231.036 106.129C227.394 105.598 226.862 112.768 227.856 116.659C229.261 117.733 229.244 117.865 229.611 118.915C229.741 117.101 229.683 116.237 229.752 115.375C229.82 114.512 231.585 112.588 231.036 110.471Z" fill="#282828"/>
<path fill-rule="evenodd" clip-rule="evenodd" d="M191.242 288.851C191.242 288.851 189.118 286.697 185.913 287.513C182.708 288.331 174.48 289.499 173.823 292.159C173.165 294.818 174.401 296.472 178.048 295.906C181.696 295.339 188.435 291.946 189.938 292.443C191.12 291.087 191.242 288.851 191.242 288.851Z" fill="#333333"/>
<path fill-rule="evenodd" clip-rule="evenodd" d="M205.338 273.141C205.338 273.141 213.629 275.395 222.939 279.826C229.771 283.075 222.997 290.113 211.469 291.672C200.497 293.158 190.323 292.836 190.323 292.836V286.842C190.323 286.842 205.994 284.401 210.951 285.171C207.386 285.999 192.062 287.143 192.062 287.143L192.303 274.79L205.338 273.141Z" fill="#064560"/>
<path fill-rule="evenodd" clip-rule="evenodd" d="M196.157 288.409C196.157 288.409 198.396 286.22 201.696 287.125C204.997 288.031 213.491 289.396 214.124 292.161C214.757 294.924 213.45 296.615 209.686 295.959C205.919 295.303 199.008 291.665 197.443 292.152C196.246 290.725 196.157 288.409 196.157 288.409Z" fill="#333333"/>
<path fill-rule="evenodd" clip-rule="evenodd" d="M183.481 273.141C183.481 273.141 169.728 275.364 164.357 280.789C160.34 284.846 164.718 288.271 176.15 290.858C190.021 293.995 198.497 292.836 198.497 292.836V286.842C198.497 286.842 182.826 284.401 177.868 285.171C181.434 285.999 196.756 287.143 196.756 287.143L196.517 274.79L183.481 273.141Z" fill="#064560"/>
<path fill-rule="evenodd" clip-rule="evenodd" d="M195.089 242.991C195.089 242.991 205.734 243.558 207.042 245.569C206.108 246.852 208.314 256.017 207.833 259.099C207.353 262.181 207.385 270.848 209.048 274.015C208.965 278.982 196.911 279.819 191.572 277.25C186.231 274.681 182.737 270.401 182.737 266.29C182.737 262.181 182.225 259.549 182.558 253.042C182.447 250.09 182.327 246.597 182.243 245.569C184.772 243.616 193.455 242.587 195.089 242.991Z" fill="#F59E6E"/>
<path fill-rule="evenodd" clip-rule="evenodd" d="M207.042 245.569C207.042 245.569 214.742 256.031 217.14 261.339C221.092 268.227 206.772 279.826 206.772 279.826L207.042 270.231C207.042 270.231 211.121 265.832 211.34 264.861C211.557 263.889 207.644 261.019 206.772 258.327C205.899 255.637 206.025 247.213 207.042 245.569Z" fill="#F59E6E"/>
<path fill-rule="evenodd" clip-rule="evenodd" d="M182.243 245.569C182.243 245.569 173.365 258.286 170.967 263.594C168.642 268.899 182.243 277.429 182.243 277.429L182.953 271.563C182.953 271.563 178.102 265.798 177.885 264.826C177.667 263.854 182.08 259.768 182.953 257.077C183.825 254.387 183.26 247.213 182.243 245.569Z" fill="#F59E6E"/>
<path fill-rule="evenodd" clip-rule="evenodd" d="M208.267 283.656C208.178 284.312 207.62 284.847 207.023 284.847H181.087C180.488 284.847 179.932 284.312 179.843 283.656C179.034 277.645 178.223 271.639 177.414 265.628C177.325 264.971 177.833 264.439 178.547 264.439H209.562C210.276 264.439 210.784 264.971 210.695 265.628C209.887 271.639 209.075 277.645 208.267 283.656Z" fill="#FCFCFC"/>
<path fill-rule="evenodd" clip-rule="evenodd" d="M179.663 285.363C179.663 285.078 179.995 284.847 180.402 284.847H207.66C208.068 284.847 208.399 285.078 208.399 285.363V285.628C208.399 285.912 208.068 286.143 207.66 286.143H180.402C179.995 286.143 179.663 285.912 179.663 285.628V285.363Z" fill="#EAEAEA"/>
<path fill-rule="evenodd" clip-rule="evenodd" d="M199.206 234.663C199.206 234.663 198.001 239.012 199.753 243.419C201.944 248.929 191.251 243.634 191.251 243.634C191.251 243.634 192.21 241.179 190.093 238.774C189.08 237.625 199.206 234.663 199.206 234.663Z" fill="#FFD4D6"/>
<path fill-rule="evenodd" clip-rule="evenodd" d="M190.356 221.912C190.356 221.912 187.77 224.772 187.339 226.433C186.907 228.092 185.323 228.379 184.494 228.99C183.667 229.603 184.671 230.35 185.753 230.79C185.688 231.237 185.583 231.73 185.478 232.25C187.021 232.931 188.141 232.938 188.141 233.696C187.573 234.959 187.67 234.796 185.199 234.78C185.356 235.837 185.83 237.909 186.909 238.721C189.768 240.876 196.637 239.169 197.721 235.335C199.379 232.665 200.232 226.225 200.232 226.225L190.356 221.912Z" fill="#FFD4D6"/>
<path fill-rule="evenodd" clip-rule="evenodd" d="M197.654 224.06C197.654 224.06 197.203 225.14 196.953 226.328C196.756 227.266 196.685 228.272 197.062 228.87C197.914 230.228 196.535 232.537 196.535 232.537L197.796 233.096C197.796 233.096 199.674 234.007 198.828 235.273C197.982 236.534 198.767 238.734 198.767 238.734C198.767 238.734 205.034 233.088 204.547 229.081C204.063 225.076 197.654 224.06 197.654 224.06Z" fill="#703518"/>
<path fill-rule="evenodd" clip-rule="evenodd" d="M197.796 226.597C197.796 226.597 190.343 221.837 186.196 223.484C188.593 219.665 191.705 217.198 197.796 218.531C203.887 219.864 205.512 224.04 204.02 227.552C201.165 229.53 197.796 226.597 197.796 226.597Z" fill="#703518"/>
<path fill-rule="evenodd" clip-rule="evenodd" d="M198.261 231.69C198.261 231.69 200.327 230.227 201.33 231.933C202.331 233.642 196.865 236.963 196.537 235.484C196.211 234.002 198.261 231.69 198.261 231.69Z" fill="#FFD4D6"/>
<path fill-rule="evenodd" clip-rule="evenodd" d="M191.43 75.6684C191.43 75.6684 187.581 75.7439 185.196 76.6412C182.498 77.6566 181.493 78.6713 180.817 79.0098C181.028 79.7279 182.382 85.7726 181.988 88.4774C181.593 91.1807 181.706 106.466 181.706 106.466L205.819 107.627L207.424 89.3777C207.424 89.3777 207.763 81.3151 209.2 79.0098C208.101 76.9591 200.124 75.8133 198.839 75.6684C197.554 75.5221 191.43 75.6684 191.43 75.6684Z" fill="#F76B8D"/>
<path fill-rule="evenodd" clip-rule="evenodd" d="M179.698 119.287C179.698 119.287 188.046 115.888 202.597 119.436C208.01 114.62 206.086 108.337 206.086 108.337L180.817 108.179L179.698 119.287Z" fill="#A52959"/>
<path fill-rule="evenodd" clip-rule="evenodd" d="M192.386 53.3454C192.386 53.3454 189.235 52.134 187.12 58.0064C185.004 63.878 181.255 73.1565 185.316 75.41C189.377 77.6619 196.369 77.1557 199.867 77.0429C203.362 76.9301 205.562 75.8613 205.788 73.1001C206.013 70.3404 204.941 61.7236 203.644 58.7939C202.347 55.8665 199.724 51.7818 192.386 53.3454Z" fill="#703518"/>
<path fill-rule="evenodd" clip-rule="evenodd" d="M202.051 66.0893C202.051 66.0893 202.771 64.586 203.786 65.0548C204.802 65.5252 201.995 71.0614 201.537 68.8993C201.587 66.9043 202.051 66.0893 202.051 66.0893Z" fill="#FFD4D6"/>
<path fill-rule="evenodd" clip-rule="evenodd" d="M188.645 66.0893C188.645 66.0893 187.925 64.586 186.91 65.0548C185.895 65.5252 188.701 71.0614 189.159 68.8993C189.11 66.9043 188.645 66.0893 188.645 66.0893Z" fill="#FFD4D6"/>
<path fill-rule="evenodd" clip-rule="evenodd" d="M188.671 63.9482C188.671 63.9482 188.304 68.7067 190.449 71.2697C192.199 73.3647 194 74.6774 195.72 74.6774C197.44 74.6774 199.528 72.8478 200.712 70.961C201.896 69.0727 202.236 65.0177 202.207 63.4694C202.178 61.9196 200.249 54.9776 193.719 55.4572C188.529 55.836 188.671 63.9482 188.671 63.9482Z" fill="#FFD4D6"/>
<path fill-rule="evenodd" clip-rule="evenodd" d="M191.998 58.2589C191.998 58.2589 197.134 63.5534 202.208 65.6377C202.392 65.364 203.11 65.595 202.983 62.5959C202.856 59.5968 198.88 54.2734 193.719 54.4007C188.558 54.528 187.521 62.3192 188.34 65.6102C189.616 64.7091 191.885 59.3719 191.998 58.2589Z" fill="#703518"/>
<path fill-rule="evenodd" clip-rule="evenodd" d="M192.365 72.608C192.365 72.608 192.324 75.0063 190.504 76.9122C192.661 78.7754 193.845 79.1131 195.622 78.9865C197.4 78.8592 199.6 77.0517 199.6 77.0517C199.6 77.0517 198.117 75.3532 198.54 72.608C196.977 71.9745 192.365 72.608 192.365 72.608Z" fill="#FFD4D6"/>
<path fill-rule="evenodd" clip-rule="evenodd" d="M209.2 79.0098C209.2 79.0098 214.643 89.8854 215.996 95.3484C216.786 98.5029 204.604 105.656 204.604 105.656L205.054 101.093C205.054 101.093 210.523 95.9483 210.749 95.1608C210.974 94.3718 207.529 87.6677 207.529 87.6677C207.529 87.6677 207.931 80.6397 209.2 79.0098Z" fill="#F76B8D"/>
<path fill-rule="evenodd" clip-rule="evenodd" d="M180.816 79.0098C180.816 79.0098 174.1 89.8854 172.747 95.3484C171.957 98.5029 185.413 105.656 185.413 105.656L184.962 101.093C184.962 101.093 177.781 95.9483 177.556 95.1608C177.33 94.3718 182.487 87.6677 182.487 87.6677C182.487 87.6677 182.085 80.6397 180.816 79.0098Z" fill="#F76B8D"/>
<path fill-rule="evenodd" clip-rule="evenodd" d="M196.288 148.796C196.288 148.796 197.867 150.854 196.485 153.604C195.104 156.353 192.603 164.042 187.999 165.618C187.012 165.948 186.945 163.582 187.405 160.886C187.866 158.195 190.427 149.189 193.325 147.844C195.827 148.6 196.288 148.796 196.288 148.796Z" fill="#333333"/>
<path fill-rule="evenodd" clip-rule="evenodd" d="M198.866 143.39C198.866 143.39 196.876 149.201 196.616 150.698C196.357 152.197 195.116 155.399 192.375 154.468C189.634 153.538 190.875 150.698 191.547 149.821C192.221 148.941 194.273 144.604 194.773 142.899C195.273 141.195 198.866 143.39 198.866 143.39Z" fill="#FFD4D6"/>
<path fill-rule="evenodd" clip-rule="evenodd" d="M194.134 143.003C194.134 143.003 195.995 137.889 197.159 131.148C198.324 124.407 200.884 109.222 206.236 108.254C211.589 107.285 210.737 115.885 208.797 121.076C206.857 126.268 199.565 144.163 199.565 144.163C199.565 144.163 197.548 145.018 194.134 143.003Z" fill="#C33E6B"/>
<path fill-rule="evenodd" clip-rule="evenodd" d="M189.933 148.793C189.933 148.793 188.36 150.84 189.737 153.579C191.113 156.315 193.602 163.969 198.187 165.538C199.168 165.865 199.234 163.512 198.775 160.829C198.318 158.147 195.768 149.184 192.882 147.844C190.392 148.598 189.933 148.793 189.933 148.793Z" fill="#474747"/>
<path fill-rule="evenodd" clip-rule="evenodd" d="M187.357 143.39C187.357 143.39 189.348 149.201 189.607 150.698C189.866 152.197 191.107 155.399 193.849 154.468C196.59 153.538 195.35 150.698 194.676 149.821C194.005 148.941 191.952 144.604 191.453 142.899C190.953 141.195 187.357 143.39 187.357 143.39Z" fill="#FFD4D6"/>
<path fill-rule="evenodd" clip-rule="evenodd" d="M192.091 143.003C192.091 143.003 190.228 137.889 189.064 131.148C187.901 124.407 185.34 109.222 179.988 108.254C174.634 107.285 175.488 115.885 177.428 121.076C179.367 126.268 186.66 144.163 186.66 144.163C186.66 144.163 188.677 145.018 192.091 143.003Z" fill="#C33E6B"/>
<path fill-rule="evenodd" clip-rule="evenodd" d="M208.292 106.462C208.204 107.105 207.64 107.627 207.04 107.627H180.912C180.31 107.627 179.749 107.105 179.659 106.462C178.844 100.585 178.028 94.7086 177.213 88.8317C177.123 88.1875 177.635 87.6683 178.354 87.6683H209.598C210.317 87.6683 210.828 88.1875 210.739 88.8317C209.925 94.7086 209.107 100.585 208.292 106.462Z" fill="#FCFCFC"/>
<path fill-rule="evenodd" clip-rule="evenodd" d="M179.478 108.131C179.478 107.853 179.811 107.627 180.223 107.627H207.681C208.091 107.627 208.425 107.853 208.425 108.131V108.392C208.425 108.669 208.091 108.895 207.681 108.895H180.223C179.811 108.895 179.478 108.669 179.478 108.392V108.131Z" fill="#EAEAEA"/>
</g>
</svg>
