<svg width="307" height="334" viewBox="0 0 307 334" fill="none" xmlns="http://www.w3.org/2000/svg">
<rect width="307" height="334" rx="8" fill="white"/>
<path opacity="0.3" d="M156.219 279.02C203.95 279.02 242.644 275.411 242.644 270.96C242.644 266.509 203.95 262.901 156.219 262.901C108.488 262.901 69.7941 266.509 69.7941 270.96C69.7941 275.411 108.488 279.02 156.219 279.02Z" fill="#212121"/>
<path d="M214.882 213.577C214.882 213.577 226.998 192.119 245.256 185.943C252.913 183.346 259.598 178.466 264.169 171.797C266.333 168.627 268.201 165.265 269.752 161.755" stroke="#535461" stroke-width="0.60747"/>
<path d="M281.212 157.789C279.131 159.805 269.448 161.891 269.448 161.891C269.448 161.891 271.826 152.28 273.904 150.261C275.983 148.243 279.305 148.293 281.323 150.371C283.341 152.45 283.291 155.771 281.212 157.789Z" fill="#22CCAC"/>
<path d="M275.736 175.186C272.893 175.748 263.632 172.238 263.632 172.238C263.632 172.238 270.852 165.46 273.691 164.895C275.549 164.484 277.483 165.11 278.748 166.531C280.012 167.952 280.408 169.946 279.783 171.743C279.158 173.539 277.609 174.857 275.736 175.186Z" fill="#22CCAC"/>
<path d="M255.78 194.011C253.047 193.064 246.82 185.36 246.82 185.36C246.82 185.36 256.476 183.149 259.212 184.096C261.027 184.676 262.385 186.193 262.76 188.061C263.136 189.928 262.47 191.852 261.02 193.088C259.571 194.324 257.565 194.677 255.78 194.011Z" fill="#22CCAC"/>
<path d="M237.492 204.856C234.634 204.385 227.199 197.838 227.199 197.838C227.199 197.838 236.341 194.03 239.199 194.497C241.048 194.802 242.594 196.07 243.255 197.824C243.915 199.577 243.59 201.55 242.401 202.998C241.213 204.447 239.341 205.151 237.492 204.847V204.856Z" fill="#22CCAC"/>
<path d="M255.555 164.737C255.555 167.634 260.798 176.037 260.798 176.037C260.798 176.037 266.046 167.637 266.049 164.74C265.981 161.892 263.652 159.619 260.802 159.619C257.953 159.619 255.624 161.892 255.555 164.74V164.737Z" fill="#22CCAC"/>
<path d="M234.318 177.683C235.184 180.446 242.698 186.896 242.698 186.896C242.698 186.896 245.195 177.312 244.329 174.549C243.464 171.781 240.518 170.24 237.75 171.105C234.983 171.97 233.441 174.915 234.306 177.683H234.318Z" fill="#22CCAC"/>
<path d="M215.402 193.106C215.787 195.979 222.108 203.604 222.108 203.604C222.108 203.604 226.187 194.582 225.802 191.709C225.416 188.838 222.775 186.823 219.903 187.209C217.031 187.595 215.016 190.235 215.402 193.106Z" fill="#6C63FF"/>
<path d="M281.212 157.789C279.131 159.805 269.448 161.891 269.448 161.891C269.448 161.891 271.827 152.28 273.904 150.261C275.983 148.243 279.305 148.293 281.323 150.371C283.341 152.45 283.291 155.771 281.212 157.789Z" fill="#33907C"/>
<path d="M275.736 175.186C272.893 175.748 263.632 172.238 263.632 172.238C263.632 172.238 270.852 165.46 273.691 164.895C275.549 164.484 277.483 165.11 278.748 166.531C280.012 167.952 280.408 169.946 279.783 171.743C279.158 173.539 277.609 174.857 275.736 175.186Z" fill="#33907C"/>
<path d="M255.78 194.011C253.047 193.064 246.82 185.36 246.82 185.36C246.82 185.36 256.476 183.149 259.212 184.096C261.027 184.676 262.385 186.193 262.76 188.061C263.136 189.928 262.47 191.852 261.02 193.088C259.571 194.324 257.565 194.677 255.78 194.011Z" fill="#33907C"/>
<path d="M237.492 204.856C234.634 204.385 227.199 197.838 227.199 197.838C227.199 197.838 236.341 194.03 239.199 194.497C241.048 194.802 242.594 196.07 243.255 197.824C243.915 199.577 243.59 201.55 242.401 202.998C241.213 204.447 239.341 205.151 237.492 204.847V204.856Z" fill="#33907C"/>
<path d="M255.555 164.737C255.555 167.634 260.798 176.037 260.798 176.037C260.798 176.037 266.046 167.637 266.049 164.74C265.981 161.892 263.652 159.619 260.802 159.619C257.953 159.619 255.624 161.892 255.555 164.74V164.737Z" fill="#33907C"/>
<path d="M234.318 177.683C235.184 180.446 242.698 186.896 242.698 186.896C242.698 186.896 245.195 177.312 244.329 174.549C243.464 171.781 240.518 170.24 237.75 171.105C234.983 171.97 233.441 174.915 234.306 177.683H234.318Z" fill="#33907C"/>
<path opacity="0.25" d="M215.402 193.106C215.787 195.979 222.108 203.604 222.108 203.604C222.108 203.604 226.187 194.582 225.802 191.709C225.416 188.838 222.775 186.823 219.903 187.209C217.031 187.595 215.016 190.235 215.402 193.106Z" fill="black"/>
<path d="M215.581 213.149C215.581 213.149 217.959 188.624 232.131 175.581C238.111 170.147 242.167 162.92 243.692 154.986C244.384 151.213 244.73 147.385 244.724 143.549" stroke="#535461" stroke-width="0.60747"/>
<path d="M253.608 135.28C252.524 137.968 244.518 143.783 244.518 143.783C244.518 143.783 242.792 134.032 243.877 131.332C245.041 128.779 248.009 127.595 250.612 128.644C253.215 129.694 254.53 132.607 253.596 135.253L253.608 135.28Z" fill="#33907C"/>
<path d="M255.65 153.398C253.28 155.065 243.391 155.608 243.391 155.608C243.391 155.608 247.245 146.498 249.614 144.819C251.984 143.19 255.223 143.771 256.877 146.123C258.532 148.474 257.984 151.719 255.65 153.398Z" fill="#33907C"/>
<path opacity="0.7" d="M245.046 178.688C242.161 178.931 233.349 174.409 233.349 174.409C233.349 174.409 241.28 168.478 244.168 168.235C246.036 168.078 247.845 168.93 248.915 170.468C249.984 172.007 250.152 173.999 249.354 175.695C248.556 177.39 246.914 178.531 245.046 178.688Z" fill="#33907C"/>
<path d="M232.715 196.016C229.911 196.741 220.462 193.774 220.462 193.774C220.462 193.774 227.278 186.586 230.081 185.861C232.886 185.134 235.749 186.817 236.476 189.622C237.203 192.426 235.519 195.288 232.715 196.016Z" fill="#33907C"/>
<path d="M232.964 152.013C234.139 154.661 242.337 160.212 242.337 160.212C242.337 160.212 243.731 150.409 242.559 147.761C241.384 145.112 238.285 143.916 235.635 145.09C232.985 146.264 231.789 149.364 232.964 152.013Z" fill="#33907C"/>
<path d="M218.797 172.462C220.711 174.637 230.197 177.488 230.197 177.488C230.197 177.488 228.593 167.716 226.682 165.539C224.77 163.358 221.452 163.141 219.271 165.053C217.091 166.965 216.873 170.282 218.785 172.462H218.797Z" fill="#6C63FF"/>
<path d="M207.757 194.227C209.275 196.696 218.141 201.108 218.141 201.108C218.141 201.108 218.214 191.205 216.699 188.736C215.182 186.268 211.951 185.495 209.482 187.012C207.013 188.528 206.24 191.758 207.757 194.227Z" fill="#6C63FF"/>
<path d="M78.1134 57.9122V66.2269V272.144H232.229V66.2269V57.9122H78.1134Z" fill="#030303"/>
<rect x="79.4651" y="59.792" width="151.412" height="8.16588" fill="#F6F7F9"/>
<g opacity="0.2">
<rect x="79.4651" y="59.792" width="151.412" height="8.16588" fill="#199880"/>
</g>
<rect x="79.4651" y="67.9579" width="151.412" height="202.307" fill="white"/>
<path d="M83.447 65.2582C84.212 65.2582 84.8321 64.6382 84.8321 63.8734C84.8321 63.1086 84.212 62.4886 83.447 62.4886C82.6821 62.4886 82.062 63.1086 82.062 63.8734C82.062 64.6382 82.6821 65.2582 83.447 65.2582Z" fill="#F6F7F9"/>
<path d="M87.2012 65.2582C87.9661 65.2582 88.5862 64.6382 88.5862 63.8734C88.5862 63.1086 87.9661 62.4886 87.2012 62.4886C86.4363 62.4886 85.8162 63.1086 85.8162 63.8734C85.8162 64.6382 86.4363 65.2582 87.2012 65.2582Z" fill="#F6F7F9"/>
<path d="M90.9554 65.2582C91.7203 65.2582 92.3404 64.6382 92.3404 63.8734C92.3404 63.1086 91.7203 62.4886 90.9554 62.4886C90.1904 62.4886 89.5703 63.1086 89.5703 63.8734C89.5703 64.6382 90.1904 65.2582 90.9554 65.2582Z" fill="#F6F7F9"/>
<g opacity="0.2">
<rect x="106.488" y="80.4299" width="97.3623" height="3.81115" fill="#33907C"/>
</g>
<rect x="190.915" y="80.4299" width="12.9361" height="3.81115" fill="#33907C"/>
<g opacity="0.2">
<rect x="92.5348" y="158.314" width="61.2694" height="43.8783" fill="#33907C"/>
</g>
<g opacity="0.2">
<rect x="92.5348" y="101.396" width="61.2694" height="43.8783" fill="#33907C"/>
</g>
<g opacity="0.2">
<rect x="92.5348" y="214.491" width="61.2694" height="43.8783" fill="#33907C"/>
</g>
<g opacity="0.2">
<rect x="156.538" y="158.314" width="61.2694" height="43.8783" fill="#33907C"/>
</g>
<g opacity="0.2">
<rect x="156.538" y="101.396" width="61.2694" height="43.8783" fill="#33907C"/>
</g>
<g opacity="0.2">
<rect x="156.538" y="214.491" width="61.2694" height="43.8783" fill="#33907C"/>
</g>
<path d="M283.319 261.824C283.319 261.824 285.487 264.657 282.32 268.933C279.152 273.208 276.549 276.828 277.596 279.489C277.596 279.489 282.374 271.544 286.265 271.435C290.156 271.326 287.598 266.6 283.319 261.824Z" fill="#33907C"/>
<path opacity="0.1" d="M283.319 261.824C283.508 262.097 283.657 262.395 283.762 262.71C287.559 267.168 289.579 271.329 285.931 271.435C282.535 271.532 278.456 277.606 277.481 279.139C277.513 279.258 277.552 279.374 277.596 279.489C277.596 279.489 282.374 271.544 286.265 271.435C290.156 271.326 287.598 266.6 283.319 261.824Z" fill="black"/>
<path d="M287.349 265.434C287.349 266.43 287.237 267.238 287.1 267.238C286.964 267.238 286.848 266.43 286.848 265.434C286.848 264.438 286.988 264.906 287.128 264.906C287.267 264.906 287.349 264.435 287.349 265.434Z" fill="#FFD037"/>
<path d="M288.731 266.625C287.857 267.102 287.091 267.39 287.027 267.269C286.964 267.147 287.617 266.661 288.491 266.184C289.366 265.708 289.023 266.057 289.099 266.184C289.175 266.312 289.606 266.157 288.731 266.625Z" fill="#33907C"/>
<path d="M271.874 261.824C271.874 261.824 269.705 264.657 272.873 268.933C276.041 273.208 278.644 276.828 277.596 279.489C277.596 279.489 272.819 271.544 268.928 271.435C265.037 271.326 267.588 266.6 271.874 261.824Z" fill="#33907C"/>
<path opacity="0.1" d="M271.874 261.824C271.685 262.097 271.535 262.395 271.431 262.71C267.634 267.168 265.614 271.329 269.262 271.435C272.661 271.532 276.737 277.606 277.712 279.139C277.681 279.258 277.643 279.375 277.596 279.489C277.596 279.489 272.819 271.544 268.928 271.435C265.037 271.326 267.588 266.6 271.874 261.824Z" fill="black"/>
<path d="M267.844 265.434C267.844 266.43 267.956 267.238 268.096 267.238C268.235 267.238 268.345 266.43 268.345 265.434C268.345 264.438 268.205 264.906 268.068 264.906C267.932 264.906 267.844 264.435 267.844 265.434Z" fill="#FFD037"/>
<path d="M266.462 266.625C267.339 267.102 268.102 267.39 268.169 267.269C268.235 267.147 267.576 266.661 266.701 266.184C265.827 265.708 266.17 266.057 266.094 266.184C266.018 266.312 265.587 266.157 266.462 266.625Z" fill="#FFD037"/>
<path opacity="0.3" d="M277.596 301.165C290.11 301.165 300.255 299.608 300.255 297.688C300.255 295.768 290.11 294.211 277.596 294.211C265.082 294.211 254.938 295.768 254.938 297.688C254.938 299.608 265.082 301.165 277.596 301.165Z" fill="#212121"/>
<path d="M289.26 275.671L289.151 276.555L288.999 277.806L288.935 278.325L288.783 279.577L288.716 280.099L288.564 281.347L286.83 295.559C286.675 296.828 284.604 297.815 282.101 297.815H273.092C270.589 297.815 268.536 296.828 268.366 295.559L266.629 281.341L266.477 280.093L266.413 279.57L266.258 278.319L266.194 277.8L266.042 276.549L265.933 275.665C265.848 274.964 266.981 274.356 268.384 274.356H286.812C288.224 274.356 289.348 274.964 289.26 275.671Z" fill="#65617D"/>
<path d="M289.151 276.555L288.999 277.803H266.194L266.042 276.555H289.151Z" fill="#9D9CB5"/>
<path d="M288.935 278.325L288.783 279.577H266.413L266.258 278.325H288.935Z" fill="#9D9CB5"/>
<path d="M288.716 280.096L288.564 281.347H266.629L266.477 280.096H288.716Z" fill="#9D9CB5"/>
<path d="M172.201 109.875C172.201 109.875 171.646 108.487 175.394 108.833C179.142 109.179 189.903 110.376 194.556 109.328C199.21 108.28 201.983 107.946 201.706 109.328C201.43 110.71 193.654 113.831 193.654 113.831L183.585 114.873L176.159 113.692L172.171 111.332L172.201 109.875Z" fill="#F5A623"/>
<path opacity="0.1" d="M201.715 109.328C201.436 110.71 193.663 113.831 193.663 113.831L183.595 114.873L176.168 113.695L172.183 111.335L172.211 109.878C172.131 109.631 172.217 109.362 172.423 109.206C172.766 108.903 173.568 108.666 175.403 108.836C179.154 109.182 189.912 110.376 194.565 109.328C198.356 108.475 200.901 108.095 201.551 108.721C201.715 108.877 201.778 109.111 201.715 109.328Z" fill="#F5A623"/>
<path d="M207.699 130.351C201.22 131.598 195.111 134.304 189.833 138.262C189.566 137.552 189.063 136.955 188.409 136.571C187.962 136.294 187.474 136.089 186.963 135.963C186.498 135.845 186.052 136.127 185.642 136.534C185.17 137.056 184.774 137.642 184.466 138.274C177.386 133.416 166.646 130.315 166.646 130.315V129.343C166.646 129.152 166.68 128.921 166.716 128.66C166.752 128.399 166.798 128.168 166.856 127.886C167.767 123.251 171.369 112.662 171.369 112.662H172.484H175.442L183.339 114.302L192.224 113.759L201.172 111.897L202.332 111.654C204.267 113.172 206.463 123.801 207.325 128.326C207.435 128.9 207.52 129.374 207.584 129.723C207.659 130.118 207.699 130.351 207.699 130.351Z" fill="#F5A623"/>
<path d="M168.116 128.344C168.35 123.895 171.886 114.253 172.484 112.653H171.369C171.369 112.653 167.554 123.889 166.78 128.274C166.778 128.285 166.778 128.297 166.78 128.308C166.758 128.426 166.737 128.541 166.722 128.651C166.686 128.912 166.661 129.143 166.652 129.334V130.306C166.652 130.306 177.392 133.409 184.472 138.265C184.78 137.633 185.176 137.047 185.648 136.525C182.941 134.065 172.678 130.057 168.116 128.344Z" fill="#6C63FF"/>
<path d="M207.584 129.711C207.556 129.556 207.523 129.377 207.486 129.179C207.441 128.924 207.386 128.636 207.325 128.314C206.463 123.783 204.267 113.151 202.332 111.642L201.172 111.885C201.876 113.777 206.417 126.13 206.031 128.541C198.438 130.06 190.741 134.995 188.415 136.571C189.069 136.955 189.572 137.552 189.839 138.262C195.117 134.304 201.226 131.598 207.705 130.351C207.705 130.351 207.659 130.118 207.584 129.711Z" fill="#6C63FF"/>
<path opacity="0.1" d="M168.396 128.065C168.626 123.616 172.165 113.974 172.763 112.377H171.646C171.646 112.377 167.831 123.613 167.056 127.995C167.056 127.995 167.056 128.019 167.056 128.028C167.034 128.15 167.016 128.265 167.001 128.374C166.965 128.636 166.941 128.866 166.932 129.058V130.029C166.932 130.029 177.669 133.13 184.752 137.989C185.057 137.356 185.452 136.77 185.924 136.249C183.218 133.795 172.958 129.777 168.396 128.065Z" fill="black"/>
<path d="M168.116 128.344C168.35 123.895 171.886 114.253 172.484 112.653H171.369C171.369 112.653 167.554 123.889 166.78 128.274C166.778 128.285 166.778 128.297 166.78 128.308C166.758 128.426 166.737 128.541 166.722 128.651C166.686 128.912 166.661 129.143 166.652 129.334V130.306C166.652 130.306 177.392 133.409 184.472 138.265C184.78 137.633 185.176 137.047 185.648 136.525C182.941 134.065 172.678 130.057 168.116 128.344Z" fill="#E69B1F"/>
<path opacity="0.1" d="M207.307 129.431L207.21 128.9C207.161 128.645 207.11 128.359 207.049 128.034C206.189 123.506 203.99 112.875 202.056 111.362L200.898 111.608C201.603 113.5 206.144 125.854 205.758 128.265C198.165 129.783 190.465 134.718 188.141 136.291C188.796 136.677 189.299 137.275 189.566 137.986C194.841 134.025 200.95 131.319 207.429 130.072C207.429 130.072 207.383 129.844 207.307 129.431Z" fill="black"/>
<path d="M207.584 129.711C207.556 129.556 207.523 129.377 207.486 129.179C207.441 128.924 207.386 128.636 207.325 128.314C206.463 123.783 204.267 113.151 202.332 111.642L201.172 111.885C201.876 113.777 206.417 126.13 206.031 128.541C198.438 130.06 190.741 134.995 188.415 136.571C189.069 136.955 189.572 137.552 189.839 138.262C195.117 134.304 201.226 131.598 207.705 130.351C207.705 130.351 207.659 130.118 207.584 129.711Z" fill="#E69B1F"/>
<path opacity="0.1" d="M170.756 118.144C170.756 118.144 177.802 122.577 179.449 116.085L181.016 116.504C181.016 116.504 181.532 123.698 170.288 119.592L170.756 118.144Z" fill="black"/>
<path d="M170.756 117.588C170.756 117.588 177.802 122.022 179.449 115.529L181.016 115.948C181.016 115.948 181.532 123.142 170.288 119.036L170.756 117.588Z" fill="#E69B1F"/>
<path opacity="0.1" d="M192.928 116.294C192.928 116.294 193.84 121.599 203.495 119.027L203.155 118.025C203.155 118.025 196.561 120.758 194.171 116.012L192.928 116.294Z" fill="black"/>
<path d="M192.928 115.738C192.928 115.738 193.84 121.044 203.495 118.472L203.155 117.469C203.155 117.469 196.561 120.203 194.171 115.456L192.928 115.738Z" fill="#E69B1F"/>
<path opacity="0.1" d="M186.501 116.224V127.296H188.214C188.214 127.296 190.583 126.443 190.529 121.466C190.474 116.489 190.113 115.149 190.113 115.149L186.501 116.224Z" fill="black"/>
<path d="M186.225 115.948V127.02H187.938C187.938 127.02 190.307 126.167 190.252 121.19C190.198 116.212 189.833 114.873 189.833 114.873L186.225 115.948Z" fill="#E69B1F"/>
<path opacity="0.1" d="M202.323 112.201C201.624 113.5 195.282 115.635 194.161 116.003L193.991 116.057C193.991 116.057 193.59 116.161 192.919 116.3C190.878 116.725 186.328 117.515 182.896 116.823C182.398 116.725 181.881 116.619 181.356 116.519L180.141 116.255C176.193 115.377 172.107 114.229 171.381 113.218C171.381 113.218 171.579 109.917 172.244 110.005C172.909 110.093 180.335 113.218 180.335 113.218L180.442 113.233C180.633 113.257 181.067 113.312 181.678 113.382C184.09 113.646 189.171 114.065 191.905 113.333C192.035 113.297 192.157 113.26 192.275 113.218C192.482 113.148 192.697 113.075 192.919 112.993C196.436 111.748 201.703 109.519 201.703 109.519C201.703 109.519 203.094 110.77 202.323 112.201Z" fill="black"/>
<path opacity="0.1" d="M201.715 109.328C201.436 110.71 193.663 113.831 193.663 113.831L183.595 114.873L176.168 113.695L172.183 111.335L172.211 109.878C172.131 109.631 172.217 109.362 172.423 109.206C173.744 109.607 180.32 112.374 180.32 112.374L180.427 112.389C180.618 112.413 181.052 112.468 181.663 112.538C184.074 112.802 189.156 113.221 191.89 112.489C192.02 112.453 192.142 112.416 192.26 112.374C192.467 112.307 192.682 112.231 192.904 112.149C196.084 111.022 200.698 109.091 201.551 108.733C201.71 108.886 201.773 109.114 201.715 109.328Z" fill="black"/>
<path d="M202.323 111.642C201.624 112.942 195.282 115.073 194.161 115.441L193.991 115.499C193.991 115.499 193.59 115.599 192.919 115.739C190.878 116.164 186.328 116.953 182.896 116.261C182.398 116.164 181.881 116.057 181.356 115.957L180.141 115.693C176.193 114.815 172.107 113.667 171.381 112.656C171.381 112.656 171.579 109.355 172.244 109.446C172.909 109.537 180.335 112.656 180.335 112.656L180.442 112.671C180.633 112.696 181.067 112.753 181.678 112.82C184.09 113.084 189.171 113.503 191.905 112.772C192.035 112.735 192.157 112.699 192.275 112.656C192.482 112.589 192.697 112.513 192.919 112.431C196.436 111.186 201.703 108.957 201.703 108.957C201.703 108.957 203.094 110.218 202.323 111.642Z" fill="#E69B1F"/>
<path opacity="0.1" d="M187.704 116.261C188.318 116.261 188.816 115.763 188.816 115.149C188.816 114.535 188.318 114.038 187.704 114.038C187.09 114.038 186.592 114.535 186.592 115.149C186.592 115.763 187.09 116.261 187.704 116.261Z" fill="black"/>
<path d="M187.704 115.981C188.318 115.981 188.816 115.484 188.816 114.87C188.816 114.256 188.318 113.759 187.704 113.759C187.09 113.759 186.592 114.256 186.592 114.87C186.592 115.484 187.09 115.981 187.704 115.981Z" fill="#F5A623"/>
<path opacity="0.1" d="M181.942 112.808L181.638 115.942L180.424 115.678L180.727 112.659C180.897 112.69 181.335 112.747 181.942 112.808Z" fill="black"/>
<path d="M181.669 112.808L181.365 115.942L180.15 115.678L180.454 112.659C180.621 112.69 181.061 112.747 181.669 112.808Z" fill="#E69B1F"/>
<path opacity="0.1" d="M193.891 115.441L193.721 115.499C193.721 115.499 193.323 115.599 192.649 115.738L191.613 112.765C191.744 112.729 191.868 112.693 191.987 112.65C192.193 112.583 192.409 112.507 192.631 112.425L193.891 115.441Z" fill="black"/>
<path d="M194.171 115.441L194 115.499C194 115.499 193.6 115.599 192.928 115.738L191.893 112.765C192.023 112.729 192.145 112.693 192.263 112.65C192.47 112.583 192.685 112.507 192.907 112.425L194.171 115.441Z" fill="#E69B1F"/>
<g opacity="0.858515">
<path d="M115.831 107.342C117.252 107.351 118.645 107.738 119.868 108.462C119.868 108.462 123.567 108.912 125.584 108.462C127.601 108.013 128.622 106.446 129.004 106.892C129.387 107.339 129.396 111.545 129.396 111.545L127.659 116.197L123.734 119.109L117.514 117.318L115.455 112.055L115.831 107.342Z" fill="#E96D79"/>
<path opacity="0.1" d="M129.396 111.551L127.659 116.203L123.734 119.115L117.514 117.324L115.455 112.055L115.846 107.348H115.938C117.328 107.383 118.686 107.77 119.886 108.472C119.886 108.472 123.586 108.921 125.602 108.472C127.519 108.046 128.527 106.607 128.944 106.85C128.968 106.861 128.99 106.878 129.007 106.899C129.396 107.342 129.396 111.551 129.396 111.551Z" fill="black"/>
<path opacity="0.1" d="M129.396 111.551L127.659 116.203L123.734 119.115L117.514 117.324L115.455 112.055L115.846 107.348H115.938C116.284 108.833 117.76 113.522 122.462 113.853C127.297 114.19 128.67 108.438 128.956 106.853C128.98 106.864 129.002 106.881 129.019 106.901C129.396 107.342 129.396 111.551 129.396 111.551Z" fill="black"/>
<path d="M115.831 107.342C115.831 107.342 116.84 113.898 122.447 114.29C128.054 114.682 129.004 106.892 129.004 106.892C129.004 106.892 137.132 109.556 139.028 114.305C140.923 119.055 142.335 122.866 142.335 122.866C142.335 122.866 141.728 123.929 141.044 124.041C140.361 124.153 135.72 127.348 135.72 127.348C135.72 127.348 135.665 136.428 136.169 136.987C136.674 137.546 136.507 139.957 134.991 139.844C133.475 139.732 122.996 137.379 114.033 139.34C114.033 139.34 110.279 140.686 110.388 138.499C110.498 136.313 110.668 127.74 110.668 127.74C110.668 127.74 105.006 125.274 104.672 125.274C104.338 125.274 103.494 124.831 104.39 123.37C105.286 121.909 106.409 116.926 106.409 116.926C106.409 116.926 108.657 109.771 115.831 107.342Z" fill="#FF748E"/>
<path opacity="0.1" d="M133.263 119.115C133.263 119.115 134.945 120.348 134.553 121.302C134.162 122.255 133.263 119.115 133.263 119.115Z" fill="black"/>
<path opacity="0.1" d="M135.729 120.3C135.572 120.847 135.572 121.426 135.729 121.973V120.3Z" fill="black"/>
<path opacity="0.1" d="M136.85 123.376C136.85 123.376 137.074 124.894 136.403 125.055L136.85 123.376Z" fill="black"/>
<path opacity="0.1" d="M113.982 118.724C113.982 118.724 110.844 121.457 111.907 122.535L113.982 118.724Z" fill="black"/>
<path opacity="0.1" d="M112.019 125.338C112.019 125.338 111.968 128.195 112.833 128.42L112.019 125.338Z" fill="black"/>
<path opacity="0.1" d="M121.043 134.919C121.043 134.919 123.169 133.464 123.734 133.519L121.043 134.919Z" fill="black"/>
<path opacity="0.1" d="M123.169 136.434C123.169 136.434 125.472 134.806 126.088 134.916L123.169 136.434Z" fill="black"/>
</g>
<g opacity="0.885021">
<path d="M173.164 162.505C173.164 162.505 191.504 163.373 200.622 162.839L200.421 165.244L184.287 167.37L179.512 165.9L173.164 162.505Z" fill="#6C63FF"/>
<path opacity="0.1" d="M200.634 162.839L200.434 165.244L184.302 167.37L179.524 165.9L173.164 162.505C173.164 162.505 173.541 162.526 174.212 162.553C178.191 162.726 192.518 163.285 200.385 162.857L200.634 162.839Z" fill="black"/>
<path d="M206.982 197.039C203.441 199.165 191.148 197.106 191.148 197.106L187.741 184.959L183.932 197.315C178.522 199.253 167.363 196.447 167.363 196.447L171.706 169.723L172.457 166.04L173.164 162.505L180.047 164.576C180.047 164.576 182.115 165.979 190.735 165.578C199.355 165.177 200.622 162.845 200.622 162.845C201.002 162.954 201.363 164.293 201.728 165.958C202.256 168.387 202.794 171.503 203.428 172.532C204.51 174.263 206.982 197.039 206.982 197.039Z" fill="#212121"/>
<path opacity="0.1" d="M201.74 166.219C194.055 170.437 187.44 170.321 187.44 170.321C185.803 170.522 172.457 166.304 172.457 166.304L173.164 162.772L180.047 164.843C180.047 164.843 182.115 166.246 190.735 165.845C199.355 165.444 200.622 163.112 200.622 163.112C201.014 163.218 201.375 164.555 201.74 166.219Z" fill="black"/>
<path opacity="0.1" d="M200.634 162.839L200.434 165.244L184.302 167.37L179.524 165.9L173.164 162.505C173.164 162.505 173.541 162.526 174.212 162.553L180.044 164.309C180.044 164.309 182.112 165.712 190.732 165.311C197.503 165.007 199.738 163.489 200.385 162.854L200.634 162.839Z" fill="black"/>
<path d="M201.74 165.951C194.055 170.17 187.44 170.054 187.44 170.054C185.803 170.255 172.457 166.037 172.457 166.037L173.164 162.505L180.047 164.576C180.047 164.576 182.115 165.979 190.735 165.578C199.355 165.177 200.622 162.845 200.622 162.845C201.014 162.948 201.375 164.287 201.74 165.951Z" fill="#6C63FF"/>
<path opacity="0.1" d="M188.743 169.416C189.13 169.416 189.444 169.102 189.444 168.715C189.444 168.327 189.13 168.013 188.743 168.013C188.355 168.013 188.041 168.327 188.041 168.715C188.041 169.102 188.355 169.416 188.743 169.416Z" fill="black"/>
<path fill-rule="evenodd" clip-rule="evenodd" d="M188.743 169.149C189.13 169.149 189.444 168.835 189.444 168.448C189.444 168.06 189.13 167.746 188.743 167.746C188.355 167.746 188.041 168.06 188.041 168.448C188.041 168.835 188.355 169.149 188.743 169.149Z" stroke="#6C63FF" stroke-width="0.561404"/>
<path opacity="0.1" d="M170.804 181.008C170.804 181.008 172.04 184.682 172.909 184.615C173.778 184.549 170.804 181.008 170.804 181.008Z" fill="black"/>
<path opacity="0.1" d="M170.002 184.615C170.002 184.615 170.771 186.82 171.573 187.188L170.002 184.615Z" fill="black"/>
<path opacity="0.1" d="M170.002 186.92C170.002 186.92 171.217 188.457 171.937 188.824L170.002 186.92Z" fill="black"/>
<path opacity="0.1" d="M202.627 173.027C202.627 173.027 203.763 174.731 202.627 175.098V173.027Z" fill="black"/>
<path opacity="0.1" d="M203.143 175.797C201.825 174.233 202.639 177.922 202.639 177.922C202.639 177.922 203.48 176.198 203.143 175.797Z" fill="black"/>
<path opacity="0.1" d="M203.808 177.701C203.808 177.701 201.803 180.674 202.204 181.008L203.808 177.701Z" fill="black"/>
<path opacity="0.1" d="M177.289 173.091C174.832 173.091 172.268 171.979 172.125 171.913L172.235 171.667C172.283 171.691 177.189 173.82 179.843 172.222C180.846 171.615 181.408 170.546 181.517 169.034L181.784 169.055C181.669 170.658 181.061 171.788 179.98 172.45C179.158 172.905 178.228 173.126 177.289 173.091Z" fill="black"/>
<path d="M177.289 172.824C174.832 172.824 172.268 171.712 172.125 171.645L172.235 171.403C172.283 171.424 177.189 173.553 179.843 171.955C180.846 171.348 181.408 170.279 181.517 168.767L181.784 168.788C181.669 170.391 181.061 171.521 179.98 172.183C179.158 172.637 178.228 172.859 177.289 172.824Z" fill="#6C63FF"/>
<path opacity="0.1" d="M197.463 173.291C196.834 173.3 196.211 173.166 195.641 172.9C193.648 171.94 193.326 169.59 193.311 169.489L193.578 169.456C193.578 169.48 193.897 171.767 195.759 172.66C197.418 173.458 199.771 172.963 202.745 171.141L202.882 171.369C200.765 172.651 198.951 173.291 197.463 173.291Z" fill="black"/>
<path d="M197.463 173.024C196.834 173.033 196.211 172.899 195.641 172.632C193.648 171.673 193.326 169.322 193.311 169.222L193.578 169.189C193.578 169.213 193.897 171.5 195.759 172.393C197.418 173.191 199.771 172.696 202.745 170.874L202.882 171.102C200.765 172.383 198.951 173.024 197.463 173.024Z" fill="#6C63FF"/>
</g>
<path d="M117.38 162.915C117.38 162.915 120.828 167.728 123.169 167.26C125.511 166.793 125.742 166.28 127.823 162.915L129.53 166.841L127.519 171.7L125.138 174.783L120.09 173.99L118.456 168.475L117.38 162.915Z" fill="#6C63FF"/>
<path opacity="0.1" d="M129.53 166.838L127.519 171.697L125.138 174.779L120.09 173.987L118.456 168.472L117.38 162.915C117.38 162.915 117.684 163.334 118.158 163.911C119.315 165.293 121.517 167.588 123.169 167.251C125.478 166.79 125.736 166.283 127.741 163.042L127.823 162.906L129.53 166.838Z" fill="black"/>
<path opacity="0.1" d="M129.53 166.838L127.519 171.697L125.138 174.779L120.09 173.987L118.456 168.472L117.38 162.915C117.38 162.915 117.684 163.334 118.158 163.911C118.911 166.34 120.53 170.236 123.169 170.203C126.149 170.17 127.352 165.235 127.741 163.051L127.823 162.915L129.53 166.838Z" fill="black"/>
<path d="M115.558 162.772C115.558 162.772 114.389 162.632 114.996 164.081C115.603 165.529 116.724 170.294 116.165 171.275C115.606 172.256 115.886 174.919 113.456 175.435L114.155 178.19C114.155 178.19 114.294 184.263 114.015 185.153C113.735 186.043 113.687 190.944 113.781 191.457C113.875 191.971 113.83 195.335 113.456 195.478C113.082 195.621 112.849 197.252 114.064 197.531C115.278 197.81 120.463 197.953 121.399 198.232C122.334 198.512 128.968 198.232 128.968 198.232C128.968 198.232 131.771 197.859 132.473 197.625C133.175 197.391 133.314 196.832 133.08 195.757C132.846 194.682 131.771 186.881 132.005 185.9C132.239 184.919 132.288 175.341 132.288 175.341C132.288 175.341 130.465 174.734 130.465 172.957C130.465 171.181 129.764 166.416 131.212 163.428C131.212 163.428 130.043 162.626 129.858 162.769C129.672 162.912 127.908 162.398 127.908 162.398C127.908 162.398 126.997 170.528 123.185 170.573C119.373 170.619 117.675 162.398 117.675 162.398C117.675 162.398 117.708 161.651 115.558 162.772Z" fill="#413E4D"/>
<path opacity="0.1" d="M121.071 188.843C121.071 188.843 121.857 190.759 123.169 191.038C124.482 191.318 121.071 188.843 121.071 188.843Z" fill="black"/>
<path opacity="0.1" d="M119.856 190.337C119.856 190.337 122.395 192.393 122.286 192.815L119.856 190.337Z" fill="black"/>
<path opacity="0.1" d="M114.762 178.19C114.762 178.19 116.773 179.544 116.773 180.525L114.762 178.19Z" fill="black"/>
<path opacity="0.1" d="M116.117 182.441C116.117 182.441 115.558 180.479 115.184 180.06L116.117 182.441Z" fill="black"/>
<path opacity="0.1" d="M115.184 183.188C115.184 183.188 116.026 184.871 116.117 185.338L115.184 183.188Z" fill="black"/>
<path opacity="0.1" d="M131.492 179.778C131.492 179.778 128.877 180.574 129.108 181.554L131.492 179.778Z" fill="black"/>
<path opacity="0.1" d="M129.095 188.843C129.095 188.843 132.521 184.871 131.492 184.965C130.462 185.059 129.095 188.843 129.095 188.843Z" fill="black"/>
<g opacity="0.1">
<path d="M130.462 172.957C130.462 172.137 130.313 170.68 130.295 169.055C130.277 170.92 130.462 172.645 130.462 173.565C130.462 175.302 132.203 175.918 132.285 175.945C132.285 175.566 132.285 175.338 132.285 175.338C132.285 175.338 130.462 174.734 130.462 172.957Z" fill="black"/>
<path d="M133.071 196.365C133.107 196.524 133.134 196.685 133.153 196.848C133.192 196.482 133.164 196.113 133.071 195.757C132.871 194.846 132.057 188.998 131.972 186.714C131.881 188.275 132.859 195.344 133.071 196.365Z" fill="black"/>
<path d="M113.739 190.306C113.739 188.639 113.833 186.34 114.015 185.751C114.164 185.278 114.194 183.34 114.191 181.627C114.191 183.164 114.146 184.725 114.015 185.144C113.808 185.806 113.729 188.654 113.739 190.306Z" fill="black"/>
<path d="M115.558 163.379C117.705 162.259 117.66 163.006 117.66 163.006C117.66 163.006 119.342 171.229 123.169 171.181C126.997 171.132 127.908 163.006 127.908 163.006C127.908 163.006 129.685 163.519 129.87 163.376C130.055 163.234 130.678 163.68 131.021 163.899C131.085 163.738 131.152 163.58 131.228 163.428C131.228 163.428 130.058 162.626 129.87 162.769C129.682 162.912 127.908 162.398 127.908 162.398C127.908 162.398 126.997 170.528 123.185 170.573C119.373 170.619 117.675 162.398 117.675 162.398C117.675 162.398 117.72 161.651 115.573 162.772C115.573 162.772 114.622 162.663 114.887 163.71C115.039 163.319 115.558 163.379 115.558 163.379Z" fill="black"/>
<path d="M113.453 196.085C113.757 195.973 113.839 193.893 113.821 192.745C113.805 193.899 113.699 195.384 113.453 195.478C113.207 195.572 113.089 196.085 113.183 196.58C113.231 196.319 113.328 196.128 113.453 196.085Z" fill="black"/>
<path d="M116.165 171.882C116.314 171.484 116.363 171.056 116.308 170.634C116.305 170.855 116.257 171.073 116.165 171.275C115.603 172.256 115.883 174.919 113.453 175.435L113.599 176.006C115.871 175.417 115.616 172.845 116.165 171.882Z" fill="black"/>
</g>
<path d="M129.663 219.897C128.515 221.986 116.861 219.897 116.861 219.897L116.891 219.687L117.122 218.069H129.402L129.636 219.684L129.663 219.897Z" fill="#6C63FF"/>
<path opacity="0.1" d="M129.663 219.897C128.515 221.986 116.861 219.897 116.861 219.897L116.891 219.687C117.45 219.687 125.882 219.487 129.648 219.687L129.663 219.897Z" fill="black"/>
<path d="M116.861 219.897C116.861 219.897 114.771 220.419 111.53 229.195C108.29 237.972 107.141 249.311 107.141 249.311C107.141 249.311 105.319 252.396 113.098 252.603C113.098 252.603 112.472 254.641 116.861 254.328C121.25 254.015 120.618 254.018 120.618 254.018C120.618 254.018 123.44 252.241 124.694 252.554C125.949 252.867 126.732 252.973 128.09 254.121C129.448 255.269 133.788 254.801 133.84 253.915C133.875 253.479 133.875 253.041 133.84 252.606C133.84 252.606 140.476 253.025 139.222 248.218C137.967 243.411 136.923 235.521 136.923 235.521C136.923 235.521 133.527 220.109 129.657 219.9C125.788 219.69 116.861 219.897 116.861 219.897Z" fill="#6C63FF"/>
<path opacity="0.1" d="M113.004 252.61L115.462 225.963L115.671 225.982L113.213 252.629L113.004 252.61Z" fill="black"/>
<path opacity="0.1" d="M120.506 253.999L120.614 225.942L120.824 225.943L120.716 254L120.506 253.999Z" fill="black"/>
<path opacity="0.1" d="M126.963 225.945L127.172 225.937L128.22 254.099L128.01 254.106L126.963 225.945Z" fill="black"/>
<path opacity="0.1" d="M133.739 252.606C133.375 236.557 130.641 225.569 130.608 225.472L130.811 225.421C130.839 225.53 133.588 236.538 133.949 252.615L133.739 252.606Z" fill="black"/>
<path opacity="0.1" d="M117.225 221.464C117.225 221.464 116.861 221.673 117.225 222.678V221.464Z" fill="black"/>
<path opacity="0.1" d="M118.273 221.464C118.273 221.464 117.28 222.089 118.273 223.137V221.464Z" fill="black"/>
<path opacity="0.1" d="M127.574 221.464C127.574 221.464 128.931 222.77 128.619 223.137L127.574 221.464Z" fill="black"/>
<path opacity="0.1" d="M128.667 221.151C128.667 221.151 128.88 222.718 129.663 223.137L128.667 221.151Z" fill="black"/>
<g opacity="0.88837">
<path d="M184.135 218.646C184.135 218.646 189.262 216.605 191.479 219.095C193.697 221.585 189.961 224.616 189.961 224.616L188.394 227.744L184.706 227.34L183.838 223.015L184.135 218.646Z" fill="#57CCB7"/>
<path opacity="0.1" d="M189.961 224.601L188.394 227.729L184.706 227.337L183.838 223.015L184.141 218.646L184.223 218.615C184.873 218.375 189.262 216.845 191.361 218.952C191.405 218.992 191.446 219.035 191.486 219.08C193.697 221.558 189.961 224.601 189.961 224.601Z" fill="black"/>
<path opacity="0.1" d="M189.961 224.601L188.394 227.729L184.706 227.337L183.838 223.016L184.141 218.646L184.223 218.615C184.858 222.092 186.553 223.559 186.838 223.778L186.881 223.808L187.923 223.723C189.949 222.606 191.018 219.948 191.361 218.943C191.405 218.983 191.446 219.026 191.486 219.071C193.697 221.558 189.961 224.601 189.961 224.601Z" fill="black"/>
<path d="M198.915 236.511C198.915 236.511 197.785 250.899 198.092 252.636C198.399 254.373 197.439 254.504 197.439 254.504C197.439 254.504 193.35 255.415 192.579 254.807C191.808 254.2 190.492 254.082 190.492 254.082C190.492 254.082 187.455 254.777 186.1 254.258C184.746 253.738 182.492 253.954 182.492 253.954C182.492 253.954 180.755 254.999 180.275 254.78C179.795 254.561 179.187 254.65 177.796 254.261C176.405 253.872 175.621 253.52 176.36 251.13C177.098 248.74 176.451 241.175 176.405 240.261C176.36 239.347 175.928 237.133 175.318 234.491C174.707 231.849 176.36 232.405 176.36 232.405C180.232 230.407 178.622 226.493 178.015 224.756C177.407 223.018 178.361 222.933 178.838 222.933C179.315 222.933 181.143 221.37 181.143 221.37L181.885 220.704L184.144 218.676C184.706 222.475 186.529 224.069 186.832 224.306L186.875 224.339L187.917 224.251C190.438 222.864 191.479 219.089 191.479 219.089C191.783 219.605 192.461 220.194 193.217 220.741C194.207 221.441 195.238 222.08 196.306 222.654C198.128 223.741 196.786 224.828 196.786 224.828C194.568 232.39 197.697 232.724 197.697 232.724C200.002 233.064 198.915 236.511 198.915 236.511Z" fill="#33907C"/>
<path opacity="0.1" d="M181.83 222.949C181.83 222.949 181.177 223.298 181.177 223.687L181.83 222.949Z" fill="black"/>
<path opacity="0.1" d="M182.222 223.687C182.222 223.687 181.353 224.598 181.505 224.862L182.222 223.687Z" fill="black"/>
<path opacity="0.1" d="M182.222 224.865C182.222 224.865 181.569 225.56 181.83 225.952L182.222 224.865Z" fill="black"/>
<path opacity="0.1" d="M186.571 224.828L183.838 227.467C183.737 224.534 182.319 222.186 181.62 221.196L183.88 219.168C184.433 222.997 186.27 224.592 186.571 224.828Z" fill="black"/>
<path d="M186.832 224.306L184.099 226.948C184.002 224.012 182.58 221.667 181.885 220.674L184.144 218.646C184.706 222.475 186.529 224.069 186.832 224.306Z" fill="#57CCB7"/>
<path opacity="0.1" d="M193.478 221.254C192.385 222.961 190.353 227.467 190.353 227.467L188.178 224.774C190.699 223.383 191.741 219.611 191.741 219.611C192.044 220.115 192.722 220.705 193.478 221.254Z" fill="black"/>
<path d="M193.211 220.732C192.12 222.441 190.085 226.948 190.085 226.948L187.917 224.257C190.438 222.87 191.479 219.095 191.479 219.095C191.783 219.596 192.461 220.185 193.211 220.732Z" fill="#57CCB7"/>
<path opacity="0.1" d="M191.613 248.594C191.613 248.594 191.148 252.542 190.881 252.767L191.613 248.594Z" fill="black"/>
<path opacity="0.1" d="M195.437 249.29C195.437 249.29 195.96 252.114 195.741 252.767L195.437 249.29Z" fill="black"/>
<path opacity="0.1" d="M184.308 249.463C184.308 249.463 183.831 252.114 184.308 252.418V249.463Z" fill="black"/>
<path opacity="0.1" d="M181.487 249.071C181.487 249.071 181.092 252.202 181.183 252.767L181.487 249.071Z" fill="black"/>
<path opacity="0.1" d="M196.09 233.814C196.09 233.814 194.875 234.771 194.96 235.029L196.09 233.814Z" fill="black"/>
<path opacity="0.1" d="M196.959 234.425C196.959 234.425 194.632 236.38 195.796 236.162C196.959 235.943 196.959 234.425 196.959 234.425Z" fill="black"/>
</g>
<path fill-rule="evenodd" clip-rule="evenodd" d="M216.898 148.403C218.858 147.588 220.133 145.672 220.128 143.549C220.121 140.658 217.775 138.317 214.882 138.317C212.76 138.317 210.846 139.596 210.035 141.557C209.224 143.518 209.675 145.775 211.177 147.274C212.68 148.773 214.938 149.219 216.898 148.403ZM218.169 142.435L214.275 146.325V146.331C214.212 146.395 214.126 146.431 214.036 146.431C213.947 146.431 213.861 146.395 213.798 146.331L211.599 144.132C211.535 144.07 211.499 143.984 211.499 143.894C211.499 143.804 211.535 143.718 211.599 143.656L212.076 143.176C212.209 143.045 212.422 143.045 212.556 143.176L214.038 144.652L217.212 141.478C217.275 141.414 217.361 141.378 217.45 141.378C217.54 141.378 217.626 141.414 217.689 141.478L218.169 141.958C218.299 142.09 218.299 142.302 218.169 142.435Z" fill="#33907C"/>
<path fill-rule="evenodd" clip-rule="evenodd" d="M151.338 206.353C154.235 206.353 156.583 204.005 156.583 201.108C156.583 198.212 154.235 195.864 151.338 195.864C148.441 195.864 146.092 198.212 146.092 201.108C146.092 204.005 148.441 206.353 151.338 206.353ZM154.636 199.994L150.73 203.884C150.667 203.948 150.581 203.984 150.49 203.984C150.4 203.984 150.314 203.948 150.251 203.884L148.051 201.685C147.921 201.552 147.921 201.339 148.051 201.205L148.531 200.729C148.594 200.665 148.68 200.629 148.77 200.629C148.859 200.629 148.945 200.665 149.008 200.729L150.49 202.211L153.664 199.052C153.728 198.988 153.814 198.952 153.904 198.952C153.995 198.952 154.081 198.988 154.144 199.052L154.636 199.514C154.701 199.577 154.737 199.664 154.737 199.754C154.737 199.844 154.701 199.93 154.636 199.994Z" fill="#33907C"/>
<path fill-rule="evenodd" clip-rule="evenodd" d="M151.338 263.645C154.235 263.645 156.583 261.296 156.583 258.4C156.583 255.504 154.235 253.156 151.338 253.156C148.441 253.156 146.092 255.504 146.092 258.4C146.092 261.296 148.441 263.645 151.338 263.645ZM154.636 257.286L150.73 261.176H150.746C150.682 261.24 150.596 261.276 150.506 261.276C150.415 261.276 150.329 261.24 150.266 261.176L148.067 258.977C147.936 258.844 147.936 258.631 148.067 258.497L148.547 258.02C148.609 257.956 148.695 257.92 148.785 257.92C148.875 257.92 148.961 257.956 149.023 258.02L150.506 259.502L153.68 256.329C153.743 256.265 153.829 256.229 153.92 256.229C154.01 256.229 154.096 256.265 154.16 256.329L154.636 256.806C154.701 256.869 154.737 256.955 154.737 257.046C154.737 257.136 154.701 257.222 154.636 257.286Z" fill="#33907C"/>
<path opacity="0.3" d="M56.1939 295.852C78.964 295.852 97.4229 292.244 97.4229 287.793C97.4229 283.342 78.964 279.733 56.1939 279.733C33.4238 279.733 14.9649 283.342 14.9649 287.793C14.9649 292.244 33.4238 295.852 56.1939 295.852Z" fill="#212121"/>
<path d="M90.5281 178.402L90.5433 178.381L90.516 178.36L90.3519 178.25L90.3853 178.275C90.1416 178.134 89.8305 178.202 89.6685 178.433L89.6017 178.527L85.9113 183.835L85.2674 184.779C83.3205 184.193 80.1586 186.659 78.5579 188.074C78.4577 188.162 78.3635 188.244 78.2785 188.323C78.1509 188.038 78.075 187.856 78.075 187.856C77.996 188.724 74.9283 190.027 74.2115 190.501C73.8858 190.697 73.5208 190.82 73.1423 190.859C73.2456 187.558 70.6912 184.084 70.6912 184.084L64.4494 176.143C64.2198 174.707 64.4427 173.235 65.0873 171.931C65.1389 171.828 65.1905 171.724 65.2482 171.627H65.2786C65.0425 172.294 64.9103 172.994 64.8868 173.701C64.902 174.239 65.4001 176.844 66.1017 176.738C66.2436 176.753 66.3817 176.687 66.4601 176.568C67.019 175.918 67.0676 174.813 67.0403 173.789C67.0306 174.09 66.9971 174.39 66.94 174.685C66.9856 173.835 66.8884 172.936 66.8884 172.295C66.8884 172.04 66.8884 171.788 66.9066 171.533H66.9826C66.9826 171.63 66.9826 171.733 66.9826 171.837C66.9826 171.73 66.9826 171.627 66.9826 171.533H67.0615C68.4616 171.277 69.7734 170.669 70.8734 169.766C71.422 169.744 71.9387 169.502 72.307 169.095C72.4423 169.546 72.3406 170.034 72.0367 170.394C72.872 170.355 73.5797 169.705 73.9016 168.943C74.1775 168.164 74.2589 167.33 74.1386 166.513C74.0185 165.696 73.9586 164.871 73.9594 164.044C74.0169 163.598 74.0413 163.149 74.0323 162.699C74.0188 162.562 73.9945 162.426 73.9594 162.292H73.9837C74.1453 162.296 74.3016 162.234 74.418 162.122C74.7643 161.855 74.8766 161.333 74.9647 160.932C75.2045 160.009 75.3129 159.057 75.2867 158.104C75.2685 158.393 75.232 158.684 75.1895 158.973C75.2654 157.88 75.1136 156.817 74.3907 156.024C73.8925 155.481 73.197 155.162 72.5288 154.843C72.2898 154.758 72.0794 154.607 71.9213 154.409C71.8032 154.175 71.7388 153.917 71.733 153.656C71.4991 152.058 69.9956 150.947 68.4982 150.315C66.5725 149.477 64.2459 149.119 62.4083 150.115C61.4971 150.598 60.7985 151.354 59.9784 151.97C58.9518 152.751 57.7672 153.297 56.6708 153.977C55.5743 154.658 54.5446 155.52 54.007 156.692C53.2021 158.514 53.8065 160.579 53.9068 162.556C54.0678 165.669 52.786 168.934 50.2468 170.756C49.9424 170.942 49.6706 171.177 49.4419 171.451C49.2133 171.735 49.1866 172.132 49.375 172.444C49.5057 172.614 49.7122 172.711 49.855 172.872C50.1435 173.2 50.0858 173.701 49.9734 174.12C49.6046 175.492 48.8696 176.737 47.8473 177.722C47.8928 178.044 48.2907 178.171 48.6157 178.22C49.4756 178.346 50.3436 178.409 51.2126 178.408H51.5862C51.5468 178.509 51.5042 178.615 51.4617 178.727C50.9909 179.966 50.3804 181.873 50.5839 183.039C50.8877 184.88 51.8596 193.295 51.3797 194.77C50.8998 196.246 52.1512 206.948 52.1512 206.948C52.1512 206.948 52.3182 207.774 52.6068 209.007C51.8566 210.774 51 212.736 50.5718 213.523C49.7092 215.099 50.1344 223.146 53.108 226.723C53.108 226.723 54.3229 228.46 54.0192 229.089C53.7154 229.718 54.0738 230.826 54.0738 230.826L54.5446 241.239C54.5345 242.303 54.4615 243.366 54.3259 244.422C53.0563 245.992 51.1003 248.281 50.1799 248.655C48.7554 249.235 38.1308 262.12 38.1308 262.12C38.1308 262.12 38.2158 262.275 38.3829 262.527L38.0791 262.873L36.0411 265.236L35.8801 265.421C35.4974 265.348 32.9491 264.886 30.9292 264.741H30.7288V264.704C30.0209 264.623 29.3051 264.643 28.6026 264.762C28.4697 264.787 28.3471 264.85 28.2503 264.944C27.5608 265.788 27.1902 279.041 27.1902 279.041C27.1902 279.041 27.9253 285.676 30.2276 286.047C30.345 286.088 30.4679 286.11 30.5921 286.114H30.6923C32.3325 285.992 33.0857 285.054 33.4259 284.41C33.5266 284.218 33.6031 284.014 33.6537 283.803C33.6537 283.803 33.3864 282.621 34.1033 280.991C34.8201 279.36 36.1595 276.49 36.1595 276.49C36.1595 276.49 38.5894 273.936 38.1551 272.697C38.2219 272.597 38.3009 272.488 38.3859 272.363C39.2971 271.063 41.1438 268.497 42.6382 266.784C42.7354 266.669 42.8326 266.563 42.9419 266.457C43.4856 266.686 44.0545 266.85 44.6368 266.945C44.6368 266.945 46.9209 266.053 47.7683 264.054C48.1297 263.204 49.5482 261.698 51.0577 260.249L51.0091 260.635L50.9575 273.311C51.4484 273.648 51.9713 273.935 52.5187 274.17V274.474C52.5294 276.28 52.4198 278.084 52.1907 279.876L52.1451 280.158C51.9568 280.025 51.7928 279.979 51.6895 280.083C51.2218 280.556 50.9302 283.581 50.9028 284.975C50.9028 285.02 50.9028 285.066 50.9028 285.114C50.8269 286.505 50.0342 288.528 52.4215 288.631C54.2075 288.707 61.9072 288.822 66.0258 288.883C68.2448 288.925 70.4035 288.16 72.1005 286.73C73.4096 285.609 74.2024 284.276 72.4194 283.295C72.3101 283.235 72.1947 283.177 72.0671 283.119L68.1185 282.512L61.3726 279.068C61.3726 279.068 61.3331 276.985 60.5221 277.331C60.2812 277.384 60.0504 277.475 59.8387 277.601C59.7992 277.526 59.7567 277.444 59.7172 277.359C59.1678 276.27 58.8827 275.067 58.885 273.848C58.885 273.739 58.885 273.626 58.9002 273.514C59.0977 273.334 59.2844 273.142 59.4591 272.94C59.4591 272.94 59.4074 268.206 59.939 267.313C60.4705 266.42 62.1167 257.37 62.1167 257.37C62.1167 257.37 62.1684 255.688 63.2314 254.689C64.2945 253.69 63.9209 250.796 63.9209 250.796C63.9209 250.796 65.4092 250.006 65.8861 247.431C66.3629 244.856 67.9059 239.232 67.9059 239.232C67.9059 239.232 71.0921 230.92 70.8825 225.664C70.673 220.407 71.1863 217.668 71.1863 217.668L71.8484 205.448V205.259C72.1127 205.46 72.2919 205.624 72.2919 205.624C72.2919 205.624 72.2919 205.575 72.2919 205.49C72.389 205.572 72.4437 205.624 72.4437 205.624C72.4437 205.624 72.7839 200.079 72.6685 197.88C74.5273 197.248 77.3582 196.21 77.5282 195.681C77.7652 194.895 80.9544 192.408 80.9544 192.408C80.8854 192.397 80.8193 192.372 80.76 192.335C80.8602 192.289 80.9635 192.235 81.0637 192.177C83.1534 191.059 87.0352 187.792 86.3821 185.8L90.6344 179.699C90.9089 179.296 90.8646 178.755 90.5281 178.402Z" fill="url(#paint0_linear_3309_2091)"/>
<path d="M80.6355 193.137C80.3251 193.331 79.9793 193.462 79.6179 193.522C78.2906 193.562 77.1881 189.969 77.1881 189.969C77.1881 189.969 77.5647 189.587 78.1661 189.058C79.946 187.476 83.6789 184.555 85.4284 186.188C87.4027 188.014 82.9347 191.901 80.6355 193.137Z" fill="#FFD4D6"/>
<path d="M60.4583 278.813L55.5591 284.1C55.5591 284.1 51.0274 284.152 51.9143 281.653C52.0915 281.111 52.2175 280.554 52.2909 279.988C52.5142 278.214 52.6207 276.426 52.6098 274.638C52.6098 273.465 52.5916 272.642 52.5916 272.642C52.5916 272.642 59.7263 269.518 58.9974 272.773C58.9067 273.18 58.8578 273.595 58.8516 274.012C58.8487 275.219 59.1274 276.409 59.6656 277.489C59.8858 277.955 60.1513 278.399 60.4583 278.813Z" fill="#FFD4D6"/>
<path opacity="0.1" d="M60.4583 278.813L55.5591 284.1C55.5591 284.1 51.0274 284.152 51.9143 281.653C52.0915 281.111 52.2175 280.554 52.2909 279.988C52.9379 280.489 53.8673 281.965 53.8673 281.965C53.8673 281.965 56.9927 282.876 57.8523 280.143C58.3322 278.625 59.0915 277.857 59.6747 277.489C59.892 277.955 60.1545 278.398 60.4583 278.813Z" fill="black"/>
<path d="M71.8241 286.776C70.163 288.191 68.0404 288.947 65.8587 288.901C61.8191 288.844 54.2713 288.725 52.5187 288.652C50.1739 288.549 50.9514 286.548 51.0274 285.169C51.0274 285.121 51.0274 285.078 51.0274 285.032C51.0547 283.651 51.3311 280.657 51.7989 280.189C52.2666 279.721 53.8673 282.272 53.8673 282.272C53.8673 282.272 56.9927 283.183 57.8523 280.45C58.7119 277.717 60.4583 277.453 60.4583 277.453C61.2511 277.11 61.2906 279.172 61.2906 279.172L67.9059 282.582L71.7876 283.189C71.9122 283.247 72.0246 283.305 72.1309 283.362C73.8865 284.346 73.1089 285.664 71.8241 286.776Z" fill="#C17174"/>
<path opacity="0.25" d="M59.6018 281.519C59.7595 281.519 59.8873 281.391 59.8873 281.233C59.8873 281.076 59.7595 280.948 59.6018 280.948C59.4441 280.948 59.3163 281.076 59.3163 281.233C59.3163 281.391 59.4441 281.519 59.6018 281.519Z" fill="white"/>
<path opacity="0.25" d="M62.2868 282.849C62.4445 282.849 62.5723 282.721 62.5723 282.564C62.5723 282.406 62.4445 282.278 62.2868 282.278C62.1291 282.278 62.0013 282.406 62.0013 282.564C62.0013 282.721 62.1291 282.849 62.2868 282.849Z" fill="white"/>
<path opacity="0.25" d="M63.6658 283.465C63.8235 283.465 63.9513 283.338 63.9513 283.18C63.9513 283.022 63.8235 282.895 63.6658 282.895C63.5081 282.895 63.3803 283.022 63.3803 283.18C63.3803 283.338 63.5081 283.465 63.6658 283.465Z" fill="white"/>
<path opacity="0.25" d="M66.53 284.565C66.6877 284.565 66.8155 284.437 66.8155 284.279C66.8155 284.122 66.6877 283.994 66.53 283.994C66.3723 283.994 66.2445 284.122 66.2445 284.279C66.2445 284.437 66.3723 284.565 66.53 284.565Z" fill="white"/>
<path opacity="0.25" d="M65.0721 284.097C65.2298 284.097 65.3576 283.969 65.3576 283.812C65.3576 283.654 65.2298 283.526 65.0721 283.526C64.9144 283.526 64.7866 283.654 64.7866 283.812C64.7866 283.969 64.9144 284.097 65.0721 284.097Z" fill="white"/>
<path d="M71.8241 286.776C70.163 288.19 68.0404 288.947 65.8587 288.901C61.8191 288.844 54.2713 288.725 52.5187 288.652C50.1739 288.549 50.9514 286.548 51.0274 285.169L65.7494 286.08C65.7494 286.08 71.7785 285.169 72.1278 283.371C73.8865 284.346 73.1089 285.664 71.8241 286.776Z" fill="#C17174"/>
<path opacity="0.25" d="M71.8241 286.776C70.163 288.19 68.0404 288.947 65.8587 288.901C61.8191 288.844 54.2713 288.725 52.5187 288.652C50.1739 288.549 50.9514 286.548 51.0274 285.169L65.7494 286.08C65.7494 286.08 71.7785 285.169 72.1278 283.371C73.8865 284.346 73.1089 285.664 71.8241 286.776Z" fill="white"/>
<path d="M44.4181 265.533C43.8764 265.975 43.3817 266.472 42.9419 267.015C41.481 268.71 39.6738 271.267 38.7777 272.536C38.4315 273.034 38.2219 273.347 38.2219 273.347L36.2658 273.058C36.2658 273.058 34.1579 269.83 34.1853 269.754C34.2126 269.679 35.8558 266.211 35.8558 266.211L36.4906 265.467L38.4922 263.128L39.4034 262.071C39.4034 262.071 46.1828 264.258 44.4181 265.533Z" fill="#FFD4D6"/>
<path opacity="0.1" d="M38.7777 272.542C38.4315 273.04 38.2219 273.353 38.2219 273.353L36.2658 273.065C36.2658 273.065 34.1579 269.836 34.1853 269.761C34.2126 269.685 35.8558 266.211 35.8558 266.211L36.4906 265.467L36.6971 265.506H37.1953C35.4488 267.328 37.3228 271.337 37.3228 271.337C37.3228 271.337 38.1308 271.413 38.7777 272.542Z" fill="black"/>
<path d="M36.5939 276.624C36.5939 276.624 35.2909 279.436 34.5862 281.051C33.8815 282.667 34.1427 283.836 34.1427 283.836C34.0931 284.046 34.0187 284.25 33.921 284.443C33.4121 285.455 32.3868 286.104 31.2542 286.132H31.1267C28.7514 286.071 27.9982 279.178 27.9982 279.178C27.9982 279.178 28.3627 266.056 29.04 265.208C29.1331 265.114 29.2529 265.051 29.3832 265.026C30.0744 264.906 30.7792 264.887 31.4759 264.968C33.6234 265.123 36.3843 265.652 36.3843 265.652H36.8794C35.1329 267.474 37.007 271.485 37.007 271.485C37.007 271.485 37.8422 271.561 38.4922 272.734C39.1422 273.906 36.5939 276.624 36.5939 276.624Z" fill="#C17174"/>
<path opacity="0.25" d="M33.7266 273.004C33.8843 273.004 34.0121 272.876 34.0121 272.718C34.0121 272.561 33.8843 272.433 33.7266 272.433C33.5689 272.433 33.4411 272.561 33.4411 272.718C33.4411 272.876 33.5689 273.004 33.7266 273.004Z" fill="white"/>
<path opacity="0.25" d="M33.5839 275.278C33.7415 275.278 33.8694 275.151 33.8694 274.993C33.8694 274.835 33.7415 274.707 33.5839 274.707C33.4262 274.707 33.2984 274.835 33.2984 274.993C33.2984 275.151 33.4262 275.278 33.5839 275.278Z" fill="white"/>
<path d="M33.7297 284.386C33.2207 285.398 32.1954 286.047 31.0629 286.074H30.9383C28.5631 286.013 27.8068 279.12 27.8068 279.12C27.8068 279.12 28.1713 265.998 28.8486 265.151C28.9418 265.056 29.0615 264.993 29.1919 264.968C29.883 264.849 30.5879 264.829 31.2846 264.911C31.2451 267.27 31.1327 274.726 31.2846 275.467C31.4365 276.208 32.782 282.409 33.7297 284.386Z" fill="#C17174"/>
<path opacity="0.25" d="M33.7297 284.386C33.2207 285.398 32.1954 286.047 31.0629 286.074H30.9383C28.5631 286.013 27.8068 279.12 27.8068 279.12C27.8068 279.12 28.1713 265.998 28.8486 265.151C28.9418 265.056 29.0615 264.993 29.1919 264.968C29.883 264.849 30.5879 264.829 31.2846 264.911C31.2451 267.27 31.1327 274.726 31.2846 275.467C31.4365 276.208 32.782 282.409 33.7297 284.386Z" fill="white"/>
<path d="M30.9353 286.08C28.5601 286.019 27.8038 279.126 27.8038 279.126C27.8038 279.126 28.1683 266.004 28.8456 265.157C28.9387 265.063 29.0585 264.999 29.1888 264.975C29.6869 265.716 30.1243 267.355 29.7295 270.963C28.9884 277.799 29.8813 278.23 29.8813 278.23C29.8813 278.23 30.996 284.039 30.9353 286.08Z" fill="#C17174"/>
<path opacity="0.1" d="M30.9353 286.08C28.5601 286.019 27.8038 279.126 27.8038 279.126C27.8038 279.126 28.1683 266.004 28.8456 265.157C28.9387 265.063 29.0585 264.999 29.1888 264.975C29.6869 265.716 30.1243 267.355 29.7295 270.963C28.9884 277.799 29.8813 278.23 29.8813 278.23C29.8813 278.23 30.996 284.039 30.9353 286.08Z" fill="black"/>
<path opacity="0.1" d="M80.6355 193.137C80.3251 193.331 79.9793 193.462 79.6179 193.522C78.2906 193.562 77.1881 189.969 77.1881 189.969C77.1881 189.969 77.5647 189.587 78.1661 189.058C78.6004 190.03 79.7971 192.651 80.6355 193.137Z" fill="black"/>
<path d="M72.1187 191.843C72.1187 191.843 73.2122 191.922 73.9138 191.454C74.6154 190.987 77.6254 189.696 77.7044 188.837C77.7044 188.837 79.4995 193.21 80.517 193.367C80.517 193.367 77.3916 195.827 77.1577 196.608C76.9238 197.388 70.8279 199.304 70.8279 199.304L72.1187 191.843Z" fill="#FF748E"/>
<path opacity="0.1" d="M72.1187 191.843C72.1187 191.843 73.2122 191.922 73.9138 191.454C74.6154 190.987 77.6254 189.696 77.7044 188.837C77.7044 188.837 79.4995 193.21 80.517 193.367C80.517 193.367 77.3916 195.827 77.1577 196.608C76.9238 197.388 70.8279 199.304 70.8279 199.304L72.1187 191.843Z" fill="black"/>
<path opacity="0.1" d="M44.4181 265.533C43.8764 265.975 43.3817 266.472 42.9419 267.015C40.585 266.028 39.0663 264.012 38.4892 263.128L39.4004 262.071C39.4004 262.071 46.1828 264.258 44.4181 265.533Z" fill="black"/>
<path d="M55.5652 243.389C55.5652 243.389 51.7442 248.494 50.347 249.068C48.9498 249.642 38.5347 262.399 38.5347 262.399C38.5347 262.399 40.7733 266.514 44.8889 267.188C44.8889 267.188 47.1274 266.305 47.9627 264.325C48.7979 262.345 55.3586 256.751 55.3586 256.751L55.5652 243.389Z" fill="#5E5A6B"/>
<path opacity="0.1" d="M55.5652 243.389C55.5652 243.389 51.7442 248.494 50.347 249.068C48.9498 249.642 38.5347 262.399 38.5347 262.399C38.5347 262.399 40.7733 266.514 44.8889 267.188C44.8889 267.188 47.1274 266.305 47.9627 264.325C48.7979 262.345 55.3586 256.751 55.3586 256.751L55.5652 243.389Z" fill="black"/>
<path opacity="0.1" d="M43.9898 260.471C45.1459 260.592 46.3115 260.592 47.4676 260.471C49.5239 260.274 47.9748 261.525 43.9898 260.471Z" fill="black"/>
<path opacity="0.1" d="M43.0513 261.798C43.0513 261.798 45.7849 263.359 46.8419 262.579C47.8989 261.798 45.8244 263.332 43.0513 261.798Z" fill="black"/>
<path opacity="0.1" d="M59.0034 272.773C58.9128 273.18 58.8639 273.595 58.8577 274.012C56.7467 275.928 54.2044 275.336 52.6159 274.638C52.6159 273.465 52.5977 272.642 52.5977 272.642C52.5977 272.642 59.7324 269.505 59.0034 272.773Z" fill="black"/>
<path d="M71.6601 204.837L71.5842 206.277L70.9342 218.378C70.9342 218.378 70.4117 221.087 70.6304 226.292C70.8491 231.497 67.7024 239.745 67.7024 239.745C67.7024 239.745 66.1837 245.317 65.7221 247.868C65.2604 250.419 63.7964 251.209 63.7964 251.209C63.7964 251.209 64.1609 254.073 63.1191 255.062C62.0772 256.052 62.0256 257.717 62.0256 257.717C62.0256 257.717 60.4097 266.675 59.8995 267.562C59.3892 268.449 59.4287 273.134 59.4287 273.134C56.0451 277.143 51.0972 273.499 51.0972 273.499L51.1489 260.948C51.1489 260.948 52.5552 249.387 53.597 247.771C54.6388 246.156 54.6388 241.731 54.6388 241.731L54.1741 231.406C54.1741 231.406 53.8035 230.313 54.1224 229.687C54.4414 229.062 53.2325 227.346 53.2325 227.346C50.3136 223.802 49.8914 215.833 50.7449 214.288C51.5984 212.742 54.1224 206.477 54.1224 206.477L57.6063 204.446L63.9027 204.631L71.6601 204.837Z" fill="#5E5A6B"/>
<path opacity="0.1" d="M56.8439 266.211C56.8439 266.211 57.667 269.062 58.3292 269.375C58.9913 269.688 56.8439 266.211 56.8439 266.211Z" fill="black"/>
<path opacity="0.1" d="M57.9768 256.721C57.9768 256.721 60.103 258.403 61.0142 258.4C61.9254 258.397 57.9768 256.721 57.9768 256.721Z" fill="black"/>
<path d="M70.8279 186.219V189.657L68.5589 188.679L66.2961 187.704L61.3695 182.86C61.3695 182.86 57.4726 180.331 55.389 178.026C54.1984 176.711 53.6 175.469 54.6479 174.813C55.1557 174.48 55.6148 174.079 56.0117 173.619C57.0589 172.385 57.9693 171.041 58.727 169.611C58.7605 169.553 58.7939 169.495 58.8242 169.438C59.8387 167.576 60.51 165.988 60.51 165.988C60.51 165.988 63.3651 166.899 65.1996 168.199C65.3485 168.302 65.4882 168.408 65.6218 168.518C66.6454 169.356 67.1557 170.34 66.2111 171.299C65.9684 171.55 65.7441 171.818 65.5398 172.101C65.3873 172.311 65.2473 172.53 65.1207 172.757C65.066 172.86 65.0113 172.96 64.9627 173.061C64.3307 174.353 64.1122 175.809 64.337 177.23L70.8279 186.219Z" fill="#FFD4D6"/>
<path d="M70.4117 161.7C70.5302 161.906 70.6942 162.083 70.8036 162.292C70.9878 162.755 71.0475 163.257 70.9767 163.75C70.9175 164.528 70.9686 165.312 71.1285 166.076C71.2895 166.762 71.5902 167.424 71.6145 168.129C71.6479 169.122 71.1316 170.042 70.6335 170.901C71.1804 170.885 71.6965 170.644 72.061 170.236C72.195 170.681 72.0969 171.164 71.7998 171.521C72.6168 171.481 73.3185 170.838 73.6222 170.085C73.8994 169.306 73.9797 168.472 73.8561 167.655C73.7371 166.846 73.6782 166.029 73.6799 165.21C73.7364 164.768 73.7598 164.323 73.7498 163.877C73.6738 162.994 73.1423 162.225 72.6077 161.509L71.5507 160.057C71.4773 159.938 71.3721 159.843 71.247 159.781C70.2477 159.356 70.1323 161.196 70.4117 161.7Z" fill="#464353"/>
<path opacity="0.1" d="M66.2293 171.299C65.9866 171.55 65.7623 171.818 65.558 172.101C65.4055 172.311 65.2655 172.53 65.1389 172.757C65.0842 172.86 65.0295 172.96 64.9809 173.061C62.543 172.924 60.2928 171.708 58.8425 169.744C58.8091 169.699 58.7756 169.653 58.7453 169.605C58.7787 169.547 58.8121 169.489 58.8425 169.432C59.8569 167.57 60.5282 165.982 60.5282 165.982C60.5282 165.982 63.3833 166.893 65.2179 168.193C65.3667 168.296 65.5064 168.402 65.6401 168.511C66.6515 169.356 67.1618 170.327 66.2293 171.299Z" fill="black"/>
<path d="M73.6344 164.567C73.6353 168.523 70.8104 171.916 66.9188 172.632C66.4277 172.722 65.9296 172.766 65.4305 172.766H65.394C65.306 172.766 65.2148 172.766 65.1267 172.766C60.6409 172.6 57.1223 168.859 57.2321 164.372C57.3419 159.885 61.0393 156.32 65.528 156.374C70.0167 156.427 73.6282 160.079 73.6313 164.567H73.6344Z" fill="#FFD4D6"/>
<path opacity="0.1" d="M66.5057 184.84C66.5057 184.84 70.6365 187.169 69.5795 185.205L64.1882 177.236L70.3085 185.098C70.3085 185.098 74.2145 190.464 72.0792 194.16C72.0792 194.16 71.7755 197.233 72.1309 197.962C72.4862 198.691 72.0276 206.465 72.0276 206.465C72.0276 206.465 70.5666 205.111 69.786 205.369C69.0054 205.627 63.4957 206.088 63.4957 206.088L66.5057 184.84Z" fill="black"/>
<path opacity="0.1" d="M71.6601 204.837L71.5841 206.277C71.0891 205.918 70.3996 205.518 69.9409 205.669C69.1603 205.931 63.6415 206.401 63.6415 206.401L63.8936 204.607L71.6601 204.837Z" fill="black"/>
<path d="M66.6606 184.84C66.6606 184.84 70.7944 187.169 69.7344 185.205L64.3431 177.236L70.4634 185.098C70.4634 185.098 74.3694 190.464 72.2341 194.16C72.2341 194.16 71.9304 197.233 72.2858 197.962C72.6411 198.691 72.1825 206.465 72.1825 206.465C72.1825 206.465 70.7246 205.111 69.944 205.369C69.1634 205.627 63.6415 206.101 63.6415 206.101L66.6606 184.84Z" fill="#464353"/>
<path opacity="0.1" d="M68.8688 188.834C68.6288 191.339 67.5991 194.318 67.5991 194.318C67.5991 194.318 66.8702 201.712 65.9256 203.911C64.981 206.11 65.4031 209.119 64.8838 214.692C64.6954 216.699 64.0485 218.078 63.1768 219.007C61.7431 220.525 59.696 220.856 58.0801 220.762L57.6974 220.732C55.0913 220.474 52.5916 207.923 52.5916 207.923C52.5916 207.923 51.3949 197.245 51.8626 195.776C52.3304 194.306 51.401 185.994 51.0881 184.172C50.8876 183.015 51.486 181.135 51.9477 179.902C52.218 179.192 52.4397 178.688 52.4397 178.688C52.4397 178.688 53.3266 175.876 54.7846 174.418C55.1907 174.001 55.7485 173.767 56.3306 173.768C57.016 173.796 57.6817 174.006 58.2593 174.375C58.2827 174.389 58.305 174.404 58.3261 174.421C58.3261 174.421 67.8087 184.108 68.6926 186.346C68.9386 186.975 68.9629 187.868 68.8688 188.834Z" fill="black"/>
<path d="M68.559 188.679C68.316 191.181 67.2863 194.16 67.2863 194.16C67.2863 194.16 66.5573 201.558 65.6188 203.744C64.6803 205.931 65.0994 208.952 64.577 214.525C64.3887 216.529 63.7417 217.908 62.87 218.84C61.4364 220.358 59.3892 220.686 57.7733 220.595L57.3906 220.565C54.7846 220.304 52.2848 207.753 52.2848 207.753C52.2848 207.753 51.0881 197.078 51.5559 195.621C52.0236 194.163 51.0881 185.83 50.7753 184.005C50.5748 182.851 51.1732 180.968 51.6348 179.735C51.9052 179.025 52.1269 178.536 52.1269 178.536C52.1269 178.536 53.0138 175.724 54.4717 174.266C54.8767 173.848 55.4356 173.614 56.0177 173.619C56.7037 173.644 57.3702 173.854 57.9465 174.227L58.0133 174.269C58.0133 174.269 67.4959 183.957 68.3797 186.195C68.6258 186.817 68.6592 187.713 68.559 188.679Z" fill="#FF748E"/>
<path opacity="0.1" d="M57.9373 226.802C57.9373 226.802 55.7869 228.716 55.0458 228.624C54.3047 228.533 57.9373 226.802 57.9373 226.802Z" fill="black"/>
<path opacity="0.1" d="M58.5084 228.64C58.5084 228.64 56.2425 229.69 55.5652 229.854C54.8878 230.018 57.6336 228.369 58.5084 228.64Z" fill="black"/>
<path opacity="0.1" d="M67.2742 199.89C67.2742 199.89 70.6335 199.93 71.1407 200.984C71.6479 202.037 68.3555 199.459 67.2742 199.89Z" fill="black"/>
<path opacity="0.1" d="M66.8034 201.725C66.8034 201.725 69.3821 202.271 70.1627 202.897C70.9433 203.522 66.8034 201.725 66.8034 201.725Z" fill="black"/>
<path opacity="0.1" d="M62.4691 195.36C62.4691 195.36 62.1653 205.943 61.0051 207.312C59.8448 208.682 62.4691 195.36 62.4691 195.36Z" fill="black"/>
<path opacity="0.1" d="M59.5775 225.278C59.5775 225.278 57.421 234.613 61.7462 235.19C66.0714 235.767 64.7349 224.561 64.7349 224.561L59.5775 225.278Z" fill="black"/>
<path d="M59.4196 225.123C59.4196 225.123 57.2752 234.458 61.5913 235.041C65.9073 235.624 64.577 224.412 64.577 224.412L59.4196 225.123Z" fill="#FFD4D6"/>
<path opacity="0.1" d="M73.5827 163.662C73.4624 163.483 73.3606 163.293 73.279 163.094C72.7049 161.897 71.2288 162.487 70.1475 163.054L69.5704 163.798C69.3071 164.107 69.0855 164.449 68.9113 164.816C68.8004 165.113 68.7081 165.418 68.6349 165.727C68.4861 166.255 68.2674 166.759 68.0699 167.276C67.4151 168.992 67.0269 170.798 66.9188 172.632C66.4277 172.722 65.9296 172.766 65.4305 172.766H65.394V172.73C65.4487 172.523 65.4943 172.314 65.5368 172.104C65.7629 170.922 65.7906 169.711 65.6188 168.521C65.6188 168.493 65.6188 168.469 65.6188 168.442C65.5793 168.177 65.5277 167.91 65.5064 167.646C65.4062 167.828 65.309 168.013 65.2027 168.202C64.5497 169.416 63.8632 170.631 62.63 171.163C62.1296 171.359 61.6021 171.478 61.0658 171.515C60.4037 171.55 59.7477 171.659 59.1098 171.84C58.8922 171.899 58.6956 172.018 58.5418 172.183C58.3701 172.437 58.2713 172.733 58.2563 173.039C58.1904 173.443 58.0888 173.841 57.9525 174.227C57.3948 175.668 56.5233 176.966 55.4012 178.029L55.1187 178.302C54.6376 178.798 54.0639 179.196 53.4299 179.471C52.854 179.665 52.2483 179.755 51.6409 179.738C51.9112 179.028 52.133 178.539 52.133 178.539C52.133 178.539 53.0199 175.727 54.4778 174.269C54.8828 173.851 55.4416 173.617 56.0238 173.622C57.1121 172.336 58.0553 170.934 58.8364 169.441C56.7905 166.665 56.6999 162.907 58.6096 160.036C60.5193 157.165 64.0213 155.795 67.3725 156.608C70.7237 157.422 73.208 160.244 73.5888 163.671L73.5827 163.662Z" fill="black"/>
<path d="M74.1052 157.263C73.6192 156.723 72.9358 156.407 72.2827 156.094C72.0503 156.006 71.8457 155.857 71.6905 155.663C71.5771 155.431 71.515 155.177 71.5082 154.919C71.2804 153.334 69.8043 152.237 68.3372 151.594C66.448 150.765 64.1791 150.409 62.3658 151.393C61.485 151.873 60.7894 152.623 59.9936 153.234C58.9852 154.005 57.825 154.545 56.7497 155.22C55.6745 155.894 54.6479 156.738 54.1376 157.91C53.3479 159.702 53.9402 161.758 54.0404 163.713C54.1953 166.799 52.9409 170.021 50.4503 171.846C50.1502 172.03 49.8832 172.263 49.6606 172.535C49.4376 172.817 49.4123 173.208 49.5968 173.516C49.7213 173.686 49.9279 173.783 50.0645 173.941C50.35 174.266 50.2923 174.761 50.18 175.18C49.8202 176.534 49.1001 177.765 48.0963 178.742C48.1389 179.064 48.5276 179.189 48.8466 179.237C49.6902 179.363 50.542 179.425 51.3949 179.423C52.7427 179.533 54.0635 179.001 54.9577 177.986C56.4764 176.559 57.7612 174.776 58.1044 172.724C58.1223 172.418 58.2208 172.122 58.3899 171.867C58.5459 171.705 58.7418 171.587 58.9579 171.524C60.0908 171.135 61.3878 171.327 62.4782 170.847C63.8997 170.239 64.6043 168.721 65.3485 167.33C65.3728 167.594 65.4214 167.862 65.4639 168.129C65.6808 169.558 65.6085 171.016 65.2513 172.417C65.0478 173.209 64.7532 173.999 64.7744 174.816C64.7896 175.423 65.4062 178.597 66.2172 177.646C67.0281 176.696 66.7305 174.594 66.7305 173.416C66.7314 171.21 67.1359 169.023 67.9241 166.963C68.1185 166.45 68.3403 165.942 68.4891 165.414C68.5627 165.105 68.654 164.801 68.7625 164.503C68.9388 164.137 69.1614 163.795 69.4246 163.486L70.0047 162.742C71.086 162.168 72.5622 161.585 73.1362 162.781C73.3549 163.24 73.4734 163.747 74.0474 163.3C74.3846 163.036 74.4939 162.517 74.582 162.122C74.9435 160.467 75.2411 158.521 74.1052 157.263Z" fill="#464353"/>
<path opacity="0.1" d="M63.113 185.933C62.8913 180.325 55.0397 179.164 53.2082 184.47C53.1933 184.505 53.1811 184.542 53.1717 184.579C51.972 188.172 52.4944 197.27 52.4944 197.27C52.4944 197.27 52.6493 203.38 53.2234 205.411C53.7974 207.443 55.4103 213.273 55.4103 214.218C55.4103 215.162 56.9077 218.749 57.5364 219.01C58.1651 219.271 58.4841 221.3 58.639 221.664C58.7939 222.029 59.2464 226.769 59.2464 226.769C59.2464 226.769 65.1328 226.405 65.2361 225.466C65.3394 224.528 63.9331 219.945 63.9331 219.945C63.9331 219.945 62.8973 218.072 62.7637 216.562C62.63 215.053 61.816 214.367 61.977 213.325C62.138 212.284 61.5062 211.764 61.5062 211.087C61.5062 210.41 61.0385 208.588 61.0385 208.588C61.0385 208.588 60.0483 207.804 60.2062 206.869C60.3642 205.934 58.8 204.057 59.2161 203.38C59.6322 202.702 59.7355 201.035 59.7355 201.035C59.7355 201.035 60.2579 193.538 60.6224 191.506C60.9868 189.474 63.1221 186.195 63.1221 186.195C63.1221 186.195 63.1191 186.1 63.113 185.933Z" fill="black"/>
<path opacity="0.1" d="M62.87 218.84C61.4364 220.358 59.3892 220.686 57.7733 220.595C57.585 219.885 57.3116 219.01 56.9137 218.846C56.282 218.585 54.7876 214.992 54.7876 214.057C54.7876 213.122 53.1748 207.285 52.6007 205.25C52.0267 203.216 51.8717 197.112 51.8717 197.112C51.8717 197.112 51.3493 188.001 52.5491 184.418C52.5491 184.385 52.5703 184.348 52.5855 184.312C54.4079 179.003 62.2686 180.167 62.4903 185.776C62.4903 185.943 62.4903 186.034 62.4903 186.034C62.4903 186.034 60.3642 189.313 59.9906 191.345C59.617 193.377 59.1098 200.874 59.1098 200.874C59.1098 200.874 59.0034 202.542 58.5873 203.219C58.1712 203.896 59.7324 205.773 59.5775 206.708C59.4226 207.643 60.4097 208.427 60.4097 208.427C60.4097 208.427 60.8775 210.249 60.8775 210.929C60.8775 211.609 61.5032 212.126 61.3483 213.167C61.1934 214.209 62.0256 214.886 62.1593 216.395C62.2708 217.241 62.5105 218.066 62.87 218.84Z" fill="black"/>
<path d="M62.8001 185.779C62.5784 180.17 54.7269 179.01 52.8953 184.315L52.8589 184.421C51.6591 188.017 52.1816 197.115 52.1816 197.115C52.1816 197.115 52.3365 203.222 52.9105 205.253C53.4846 207.285 55.0974 213.119 55.0974 214.06C55.0974 215.001 56.5948 218.591 57.2236 218.852C57.8523 219.113 58.1712 221.145 58.3261 221.509C58.481 221.874 58.9336 226.611 58.9336 226.611C58.9336 226.611 64.82 226.247 64.9232 225.311C65.0265 224.376 63.6233 219.79 63.6233 219.79C63.6233 219.79 62.5845 217.914 62.4508 216.404C62.3172 214.895 61.485 214.218 61.6429 213.176C61.8008 212.135 61.1721 211.612 61.1721 210.935C61.1721 210.258 60.7044 208.436 60.7044 208.436C60.7044 208.436 59.7142 207.655 59.8721 206.717C60.0301 205.779 58.4658 203.905 58.882 203.228C59.2981 202.551 59.4013 200.886 59.4013 200.886C59.4013 200.886 59.9238 193.386 60.2882 191.354C60.6527 189.322 62.788 186.043 62.788 186.043C62.788 186.043 62.8062 185.946 62.8001 185.779Z" fill="#FF748E"/>
<path opacity="0.1" d="M53.1322 200.203C53.2872 200.045 56.2577 196.766 57.1932 197.938C58.1287 199.11 53.1322 200.203 53.1322 200.203Z" fill="black"/>
<path opacity="0.1" d="M53.4056 202.742C53.521 202.624 56.3731 202.508 57.0778 200.92C57.7824 199.332 53.4056 202.742 53.4056 202.742Z" fill="black"/>
<path d="M50.1557 173.941C50.2258 174.024 50.2785 174.12 50.3106 174.224C50.4269 173.865 50.3697 173.472 50.1557 173.161C50.0159 173 49.8124 172.906 49.6849 172.736C49.6849 172.736 49.6697 172.708 49.6606 172.693C49.5171 172.951 49.5264 173.267 49.6849 173.516C49.8276 173.686 50.0159 173.783 50.1557 173.941Z" fill="black"/>
<path d="M54.1315 163.826C54.1315 163.522 54.1315 163.218 54.1315 162.939C54.0769 161.876 53.8794 160.786 53.8278 159.72C53.764 161.026 54.0556 162.395 54.1315 163.719C54.1315 163.75 54.1285 163.783 54.1315 163.826Z" fill="black"/>
<path d="M66.3052 176.866C65.5823 177.713 65.0144 175.274 64.8898 174.312C64.8701 174.479 64.861 174.647 64.8625 174.816C64.8807 175.423 65.4943 178.597 66.3052 177.646C66.855 177.002 66.9127 175.906 66.8763 174.895C66.8368 175.669 66.7153 176.386 66.3052 176.866Z" fill="black"/>
<path d="M65.552 168.129C65.6138 168.537 65.6513 168.949 65.6644 169.362C65.6907 168.688 65.6531 168.012 65.552 167.345C65.5125 167.081 65.4609 166.814 65.4366 166.547C64.6863 167.95 63.9908 169.45 62.5693 170.066C61.4667 170.543 60.1819 170.355 59.049 170.743C58.8315 170.803 58.6348 170.922 58.481 171.087C58.3102 171.341 58.2115 171.637 58.1955 171.943C57.8493 173.996 56.5614 175.778 55.0458 177.206C54.1516 178.22 52.8308 178.753 51.483 178.642C50.6311 178.643 49.7804 178.581 48.9377 178.457C48.807 178.437 48.6787 178.403 48.555 178.357C48.4365 178.49 48.312 178.618 48.1844 178.742C48.2269 179.064 48.6188 179.189 48.9377 179.237C49.7803 179.363 50.6311 179.425 51.483 179.423C52.8308 179.533 54.1516 179.001 55.0458 177.986C56.5645 176.559 57.8493 174.776 58.1955 172.723C58.2119 172.417 58.3106 172.122 58.481 171.867C58.636 171.704 58.8322 171.585 59.049 171.524C60.1819 171.135 61.4789 171.327 62.5693 170.847C63.9908 170.239 64.6954 168.721 65.4366 167.33C65.4609 167.594 65.5125 167.862 65.552 168.129Z" fill="black"/>
<path d="M74.6701 161.342C74.582 161.736 74.4696 162.253 74.1325 162.52C73.5615 162.963 73.446 162.459 73.2213 162.001C72.6472 160.804 71.1711 161.393 70.0898 161.961L69.5096 162.705C69.2463 163.014 69.0247 163.356 68.8505 163.722C68.7393 164.02 68.648 164.324 68.5772 164.633C68.4253 165.162 68.2066 165.666 68.0092 166.179C67.224 168.24 66.8205 170.427 66.8186 172.632C66.8186 172.733 66.8186 172.842 66.8186 172.954C66.8726 170.904 67.2742 168.878 68.0062 166.963C68.2036 166.449 68.4223 165.942 68.5741 165.414C68.645 165.105 68.7363 164.8 68.8475 164.503C69.0217 164.136 69.2433 163.794 69.5066 163.486L70.0867 162.742C71.168 162.168 72.6442 161.585 73.2182 162.781C73.44 163.24 73.5554 163.747 74.1295 163.3C74.4666 163.036 74.579 162.517 74.6671 162.122C74.8961 161.207 74.9983 160.265 74.9708 159.322C74.9221 160.002 74.8216 160.677 74.6701 161.342Z" fill="black"/>
<path d="M81.7745 190.908L81.9354 191.017C81.79 190.92 81.69 190.769 81.6585 190.597C81.627 190.425 81.6667 190.248 81.7684 190.106L89.0094 179.617C89.1059 179.476 89.2549 179.379 89.4232 179.348C89.5915 179.317 89.7652 179.355 89.9054 179.453L89.7445 179.341C90.2146 179.665 90.3329 180.31 90.0087 180.78L83.2142 190.64C82.8893 191.11 82.2462 191.229 81.7745 190.908Z" fill="#464353"/>
<path d="M89.8222 179.38L89.9448 179.465L81.9742 191.034L81.8516 190.949C81.6113 190.784 81.5506 190.455 81.7162 190.214L89.0854 179.518C89.251 179.278 89.5801 179.217 89.8205 179.383L89.8222 179.38Z" fill="#9F9EFF"/>
<path d="M88.8324 180.959C88.8486 180.935 88.8808 180.93 88.9042 180.946L88.9267 180.961C88.9502 180.977 88.9562 181.01 88.94 181.033L88.349 181.891C88.3328 181.914 88.3007 181.92 88.2772 181.904L88.2547 181.889C88.2312 181.872 88.2253 181.84 88.2414 181.817L88.8324 180.959Z" fill="#464353"/>
<defs>
<linearGradient id="paint0_linear_3309_2091" x1="90.834" y1="288.907" x2="90.834" y2="149.425" gradientUnits="userSpaceOnUse">
<stop stop-color="#808080" stop-opacity="0.25"/>
<stop offset="0.54" stop-color="#808080" stop-opacity="0.12"/>
<stop offset="1" stop-color="#808080" stop-opacity="0.1"/>
</linearGradient>
</defs>
</svg>
