<svg width="24" height="24" viewBox="0 0 24 24" xmlns="http://www.w3.org/2000/svg">
<path d="M22.5003 7.16953L20.1824 3.52734C19.9753 3.20039 19.6074 3 19.2146 3H4.78598C4.39312 3 4.02526 3.20039 3.81812 3.52734L1.50026 7.16953C0.303835 9.05039 1.36455 11.666 3.60026 11.9648C3.76098 11.9859 3.92526 11.9965 4.08955 11.9965C5.14669 11.9965 6.08241 11.5395 6.72526 10.8328C7.36812 11.5395 8.30741 11.9965 9.36098 11.9965C10.4181 11.9965 11.3538 11.5395 11.9967 10.8328C12.6395 11.5395 13.5788 11.9965 14.6324 11.9965C15.6896 11.9965 16.6253 11.5395 17.2681 10.8328C17.9146 11.5395 18.8503 11.9965 19.9038 11.9965C20.0717 11.9965 20.2324 11.9859 20.3931 11.9648C22.636 11.6695 23.7003 9.05391 22.5003 7.16953V7.16953ZM19.911 13.125C19.5538 13.125 19.2003 13.0723 18.8574 12.9914V16.5H5.14312V12.9914C4.80026 13.0688 4.44669 13.125 4.08955 13.125C3.87526 13.125 3.65741 13.1109 3.44669 13.0828C3.24669 13.0547 3.05026 13.009 2.86098 12.9563V19.875C2.86098 20.4973 3.37169 21 4.00383 21H20.0038C20.636 21 21.1467 20.4973 21.1467 19.875V12.9563C20.9538 13.0125 20.761 13.0582 20.561 13.0828C20.3431 13.1109 20.1288 13.125 19.911 13.125Z"/>
</svg>
